<?xml version="1.0" encoding="utf-8"?>
<!-- Generator: Adobe Illustrator 20.0.0, SVG Export Plug-In . SVG Version: 6.00 Build 0)  -->
<!DOCTYPE svg PUBLIC "-//W3C//DTD SVG 1.1//EN" "http://www.w3.org/Graphics/SVG/1.1/DTD/svg11.dtd">
<svg version="1.1" xmlns="http://www.w3.org/2000/svg" xmlns:xlink="http://www.w3.org/1999/xlink" x="0px" y="0px"
	 viewBox="0 0 400 400" style="enable-background:new 0 0 400 400;" xml:space="preserve">
<style type="text/css">
	.st0{fill:none;stroke:#C48F65;stroke-width:2;stroke-miterlimit:10;}
	.st1{fill:none;stroke:#C48F65;stroke-width:2;stroke-miterlimit:10;stroke-dasharray:21.0526,3.1579;}
	.st2{fill:none;stroke:#C48F65;stroke-width:2;stroke-miterlimit:10;stroke-dasharray:21.0526,5.2632,21.0526,3.1579;}
	.st3{fill:none;stroke:#C48F65;stroke-width:2;stroke-miterlimit:10;stroke-dasharray:16.9492,2.5424;}
	.st4{fill:none;stroke:#C48F65;stroke-width:2;stroke-miterlimit:10;stroke-dasharray:16.9492,2.5424,16.9492,2.5424;}
	.st5{fill:none;stroke:#B5AB9F;stroke-width:2;stroke-miterlimit:10;stroke-dasharray:20,5,20,3;}
	.st6{fill:none;stroke:#B5AB9F;stroke-width:2;stroke-miterlimit:10;stroke-dasharray:20,3,20,3;}
	.st7{fill:none;stroke:#72B0B0;stroke-width:2;stroke-miterlimit:10;stroke-dasharray:20,5,20,3;}
	.st8{fill:none;stroke:#72B0B0;stroke-width:2;stroke-miterlimit:10;}
	.st9{fill:none;stroke:#72B0B0;stroke-width:2;stroke-miterlimit:10;stroke-dasharray:16.9492,2.5424;}
	.st10{fill:none;stroke:#72B0B0;stroke-width:2;stroke-miterlimit:10;stroke-dasharray:16.9492,2.5424,16.9492,2.5424;}
	.st11{fill:none;}
	.st12{fill:none;stroke:#BFBFBF;stroke-width:2;stroke-miterlimit:10;}
	.st13{fill:#BFBFBF;}
	.st14{fill:#999999;}
	.st15{fill:#FFFFFF;}
	.st16{fill:none;stroke:#928371;stroke-width:2;stroke-miterlimit:10;}
	.st17{fill:none;stroke:#928371;stroke-width:2;stroke-miterlimit:10;stroke-dasharray:22.2222,3.3333;}
	.st18{fill:none;stroke:#928371;stroke-width:2;stroke-miterlimit:10;stroke-dasharray:22.2222,3.3333,22.2222,3.3333;}
	.st19{fill:none;stroke:#928371;stroke-width:2;stroke-miterlimit:10;stroke-dasharray:16.9492,2.5424;}
	.st20{fill:none;stroke:#928371;stroke-width:2;stroke-miterlimit:10;stroke-dasharray:16.9492,2.5424,16.9492,2.5424;}
	.st21{fill:none;stroke:#B5AB9F;stroke-width:2;stroke-miterlimit:10;}
	.st22{fill:none;stroke:#B5AB9F;stroke-width:2;stroke-miterlimit:10;stroke-dasharray:22.2222,3.3333;}
	.st23{fill:none;stroke:#B5AB9F;stroke-width:2;stroke-miterlimit:10;stroke-dasharray:22.2222,3.3333,22.2222,3.3333;}
	.st24{fill:none;stroke:#B5AB9F;stroke-width:2;stroke-miterlimit:10;stroke-dasharray:16.9492,2.5424;}
	.st25{fill:none;stroke:#B5AB9F;stroke-width:2;stroke-miterlimit:10;stroke-dasharray:16.9492,2.5424,16.9492,2.5424;}
	.st26{fill:none;stroke:#B0D6B1;stroke-width:2;stroke-miterlimit:10;}
	.st27{fill:none;stroke:#B0D6B1;stroke-width:2;stroke-miterlimit:10;stroke-dasharray:21.0526,3.1579;}
	.st28{fill:none;stroke:#B0D6B1;stroke-width:2;stroke-miterlimit:10;stroke-dasharray:21.0526,5.2632,21.0526,3.1579;}
	.st29{fill:none;stroke:#B0D6B1;stroke-width:2;stroke-miterlimit:10;stroke-dasharray:16.9492,2.5424;}
	.st30{fill:none;stroke:#B0D6B1;stroke-width:2;stroke-miterlimit:10;stroke-dasharray:16.9492,2.5424,16.9492,2.5424;}
	.st31{fill:none;stroke:#B5AB9F;stroke-width:2;stroke-miterlimit:10;stroke-dasharray:21.0526,3.1579;}
	.st32{fill:none;stroke:#B5AB9F;stroke-width:2;stroke-miterlimit:10;stroke-dasharray:21.0526,5.2632,21.0526,3.1579;}
	.st33{fill:none;stroke:#72B0B0;stroke-width:2;stroke-miterlimit:10;stroke-dasharray:21.0526,3.1579;}
	.st34{fill:none;stroke:#72B0B0;stroke-width:2;stroke-miterlimit:10;stroke-dasharray:21.0526,5.2632,21.0526,3.1579;}
	.st35{fill:none;stroke:#95C4E0;stroke-width:2;stroke-miterlimit:10;}
	.st36{fill:none;stroke:#95C4E0;stroke-width:2;stroke-miterlimit:10;stroke-dasharray:21.0526,3.1579;}
	.st37{fill:none;stroke:#95C4E0;stroke-width:2;stroke-miterlimit:10;stroke-dasharray:21.0526,5.2632,21.0526,3.1579;}
	.st38{fill:none;stroke:#95C4E0;stroke-width:2;stroke-miterlimit:10;stroke-dasharray:16.9492,2.5424;}
	.st39{fill:none;stroke:#95C4E0;stroke-width:2;stroke-miterlimit:10;stroke-dasharray:16.9492,2.5424,16.9492,2.5424;}
	.st40{fill:none;stroke:#95C4E0;stroke-width:2;stroke-miterlimit:10;stroke-dasharray:22.2222,3.3333;}
	.st41{fill:none;stroke:#95C4E0;stroke-width:2;stroke-miterlimit:10;stroke-dasharray:22.2222,3.3333,22.2222,3.3333;}
</style>
<g id="Laag_1">
	<g>
		<g>
			<line class="st12" x1="197.4" y1="214.7" x2="197.4" y2="120"/>
			<line class="st12" x1="202.6" y1="215" x2="202.6" y2="120"/>
		</g>
		<g>
			<g>
				<path class="st14" d="M26.7,182.7c0.6,0.5,0.9,1.2,0.9,2.1c0,0.6-0.1,1.1-0.4,1.5c-0.3,0.4-0.7,0.7-1.1,0.9
					c-0.5,0.2-1,0.3-1.6,0.3H22v3.2c0,0.1,0,0.2-0.1,0.2s-0.2,0.1-0.2,0.1h-0.5c-0.1,0-0.2,0-0.2-0.1c-0.1-0.1-0.1-0.2-0.1-0.2v-8.4
					c0-0.1,0-0.2,0.1-0.2C21,182,21,182,21.1,182h3.3C25.3,182,26.1,182.2,26.7,182.7z M24.3,186.3c0.6,0,1.1-0.1,1.5-0.4
					c0.3-0.3,0.5-0.7,0.5-1.2c0-1.1-0.7-1.6-2-1.6H22v3.2H24.3z"/>
				<path class="st14" d="M32.6,184.4c0.1,0.1,0.1,0.2,0.1,0.2v0.4c0,0.1,0,0.2-0.1,0.2s-0.2,0.1-0.2,0.1h-0.8
					c-0.5,0-0.9,0.1-1.1,0.4c-0.3,0.3-0.4,0.6-0.4,1.1v3.8c0,0.1,0,0.2-0.1,0.2c-0.1,0.1-0.2,0.1-0.2,0.1h-0.5c-0.1,0-0.2,0-0.2-0.1
					s-0.1-0.2-0.1-0.2v-6.1c0-0.1,0-0.2,0.1-0.2s0.2-0.1,0.2-0.1h0.5c0.1,0,0.2,0,0.2,0.1c0.1,0.1,0.1,0.2,0.1,0.2v0.4
					c0.2-0.3,0.4-0.5,0.6-0.6c0.2-0.1,0.6-0.2,0.9-0.2h0.7C32.5,184.3,32.6,184.3,32.6,184.4z"/>
				<path class="st14" d="M39.7,187.7c0,0.2,0,0.4,0,0.6c-0.1,0.9-0.4,1.6-0.9,2.1c-0.5,0.5-1.3,0.8-2.2,0.8c-0.9,0-1.6-0.3-2.2-0.8
					c-0.5-0.5-0.8-1.2-0.9-2.1c0-0.1,0-0.3,0-0.6c0-0.3,0-0.5,0-0.6c0.1-0.9,0.4-1.6,0.9-2.1c0.5-0.5,1.3-0.8,2.2-0.8
					c0.9,0,1.6,0.3,2.2,0.8c0.5,0.5,0.8,1.2,0.9,2.1C39.7,187.2,39.7,187.5,39.7,187.7z M38,185.8c-0.3-0.3-0.8-0.5-1.3-0.5
					c-0.6,0-1,0.2-1.3,0.5s-0.5,0.8-0.6,1.3c0,0.1,0,0.3,0,0.6c0,0.3,0,0.4,0,0.5c0.1,0.6,0.2,1,0.6,1.3s0.8,0.5,1.3,0.5
					c0.6,0,1-0.2,1.3-0.5s0.5-0.8,0.6-1.3c0-0.2,0-0.4,0-0.5c0-0.2,0-0.4,0-0.6C38.5,186.6,38.3,186.1,38,185.8z"/>
				<path class="st14" d="M46,182.2c0-0.1,0-0.2,0.1-0.2c0.1-0.1,0.2-0.1,0.2-0.1h0.5c0.1,0,0.2,0,0.2,0.1s0.1,0.2,0.1,0.2v8.5
					c0,0.1,0,0.2-0.1,0.2s-0.2,0.1-0.2,0.1h-0.5c-0.1,0-0.2,0-0.2-0.1c-0.1-0.1-0.1-0.2-0.1-0.2v-0.4c-0.4,0.6-1.1,0.9-2,0.9
					c-0.5,0-1-0.1-1.5-0.4c-0.4-0.3-0.8-0.6-1.1-1.1c-0.3-0.5-0.4-1-0.4-1.6l0-0.4l0-0.4c0-0.6,0.2-1.2,0.4-1.6
					c0.3-0.5,0.6-0.8,1-1.1c0.4-0.3,0.9-0.4,1.5-0.4c0.5,0,0.9,0.1,1.2,0.3c0.3,0.2,0.6,0.4,0.8,0.6V182.2z M45.4,185.8
					c-0.3-0.3-0.8-0.5-1.3-0.5c-0.6,0-1,0.2-1.3,0.5c-0.3,0.4-0.5,0.9-0.6,1.5l0,0.4l0,0.4c0,0.6,0.2,1.1,0.6,1.5
					c0.3,0.4,0.8,0.5,1.3,0.5c0.5,0,1-0.2,1.3-0.5c0.3-0.3,0.5-0.8,0.6-1.3c0-0.1,0-0.3,0-0.5c0-0.3,0-0.4,0-0.5
					C46,186.6,45.8,186.1,45.4,185.8z"/>
				<path class="st14" d="M49.1,184.4c0.1-0.1,0.2-0.1,0.2-0.1h0.5c0.1,0,0.2,0,0.2,0.1s0.1,0.2,0.1,0.2v3.4c0,0.7,0.1,1.2,0.4,1.5
					s0.7,0.5,1.3,0.5c0.6,0,1-0.2,1.3-0.5s0.5-0.8,0.5-1.5v-3.4c0-0.1,0-0.2,0.1-0.2s0.2-0.1,0.2-0.1h0.5c0.1,0,0.2,0,0.2,0.1
					c0.1,0.1,0.1,0.2,0.1,0.2v6.1c0,0.1,0,0.2-0.1,0.2c-0.1,0.1-0.2,0.1-0.2,0.1H54c-0.1,0-0.2,0-0.2-0.1s-0.1-0.2-0.1-0.2v-0.4
					c-0.5,0.6-1.1,0.9-2,0.9c-0.8,0-1.5-0.3-2-0.8c-0.5-0.5-0.7-1.2-0.7-2.1v-3.6C49,184.5,49,184.5,49.1,184.4z"/>
				<path class="st14" d="M61.3,189c0.1-0.1,0.1-0.2,0.2-0.3c0.1-0.1,0.1-0.1,0.2-0.1h0.4c0.1,0,0.2,0,0.2,0.1
					c0.1,0.1,0.1,0.1,0.1,0.2c0,0.3-0.1,0.6-0.4,0.9c-0.2,0.3-0.6,0.6-1,0.9c-0.4,0.2-1,0.4-1.6,0.4c-0.6,0-1.1-0.1-1.6-0.4
					s-0.8-0.6-1-1.1c-0.2-0.5-0.4-1-0.4-1.5c0-0.1,0-0.3,0-0.6c0-0.2,0-0.4,0-0.4c0.1-0.9,0.4-1.6,0.9-2.2s1.2-0.8,2.1-0.8
					c0.6,0,1.1,0.1,1.6,0.3c0.4,0.2,0.8,0.5,1,0.8c0.2,0.3,0.4,0.6,0.4,0.9c0,0.1,0,0.2-0.1,0.2c-0.1,0.1-0.2,0.1-0.3,0.1h-0.4
					c-0.1,0-0.2,0-0.2-0.1c-0.1-0.1-0.1-0.1-0.2-0.3c-0.3-0.7-0.9-1-1.8-1c-0.5,0-0.9,0.2-1.2,0.5s-0.6,0.8-0.6,1.5
					c0,0.1,0,0.3,0,0.5c0,0.2,0,0.3,0,0.4c0.1,0.6,0.3,1.1,0.6,1.5s0.8,0.5,1.2,0.5C60.4,190.1,61,189.7,61.3,189z"/>
				<path class="st14" d="M66.1,189.6c0.2,0.2,0.4,0.3,0.9,0.3h0.7c0.1,0,0.2,0,0.2,0.1s0.1,0.2,0.1,0.2v0.4c0,0.1,0,0.2-0.1,0.2
					s-0.2,0.1-0.2,0.1h-0.8c-0.7,0-1.3-0.2-1.6-0.6s-0.5-1-0.5-1.7v-3.4h-1c-0.1,0-0.2,0-0.2-0.1s-0.1-0.2-0.1-0.2v-0.4
					c0-0.1,0-0.2,0.1-0.2s0.2-0.1,0.2-0.1h1v-2.1c0-0.1,0-0.2,0.1-0.2s0.2-0.1,0.2-0.1h0.5c0.1,0,0.2,0,0.2,0.1
					c0.1,0.1,0.1,0.2,0.1,0.2v2.1h1.7c0.1,0,0.2,0,0.2,0.1c0.1,0.1,0.1,0.2,0.1,0.2v0.4c0,0.1,0,0.2-0.1,0.2
					c-0.1,0.1-0.2,0.1-0.2,0.1h-1.7v3.4C65.8,189.1,65.9,189.4,66.1,189.6z"/>
				<path class="st14" d="M72.5,183.5c0.2-0.9,0.5-1.5,0.9-1.9c0.4-0.4,1.1-0.6,1.9-0.6c0.1,0,0.2,0,0.2,0.1
					c0.1,0.1,0.1,0.2,0.1,0.2v0.4c0,0.1,0,0.2-0.1,0.2s-0.2,0.1-0.2,0.1c-0.5,0-0.9,0.2-1.2,0.5c-0.3,0.4-0.4,0.9-0.5,1.6
					s-0.1,1.6-0.1,2.8c0,1.2,0,2.2,0.1,2.9c0.1,0.7,0.3,1.2,0.5,1.6s0.7,0.5,1.2,0.5c0.1,0,0.2,0,0.2,0.1s0.1,0.2,0.1,0.2v0.4
					c0,0.1,0,0.2-0.1,0.2s-0.2,0.1-0.2,0.1c-0.8,0-1.4-0.2-1.9-0.6c-0.4-0.4-0.7-1.1-0.9-1.9c-0.2-0.9-0.2-2-0.2-3.5
					C72.2,185.6,72.3,184.4,72.5,183.5z"/>
				<path class="st14" d="M81,185c0.5,0.6,0.8,1.4,0.8,2.4v0.4c0,0.1,0,0.2-0.1,0.2s-0.2,0.1-0.2,0.1H77v0.1c0,0.6,0.2,1,0.5,1.3
					c0.3,0.3,0.8,0.5,1.3,0.5c0.4,0,0.8-0.1,1-0.2c0.2-0.1,0.5-0.3,0.6-0.5c0.1-0.1,0.1-0.1,0.2-0.1c0.1,0,0.1,0,0.2,0h0.4
					c0.1,0,0.2,0,0.3,0.1s0.1,0.2,0.1,0.2c0,0.2-0.2,0.5-0.4,0.7c-0.2,0.2-0.5,0.5-0.9,0.6c-0.4,0.2-0.9,0.3-1.5,0.3
					c-0.6,0-1-0.1-1.5-0.4c-0.4-0.3-0.8-0.6-1-1.1c-0.3-0.5-0.4-1-0.5-1.5c0-0.3,0-0.5,0-0.6s0-0.3,0-0.6c0.1-0.5,0.2-1,0.5-1.5
					c0.3-0.4,0.6-0.8,1-1c0.4-0.3,0.9-0.4,1.5-0.4C79.7,184.2,80.4,184.5,81,185z M80.6,187.1L80.6,187.1c0-0.6-0.2-1-0.5-1.3
					c-0.3-0.3-0.8-0.5-1.3-0.5c-0.5,0-0.9,0.2-1.3,0.5S77,186.5,77,187v0H80.6z"/>
				<path class="st14" d="M84.6,189.6c0.1,0.1,0.1,0.2,0.1,0.2v0.9c0,0.1,0,0.2-0.1,0.2s-0.2,0.1-0.2,0.1h-0.9c-0.1,0-0.2,0-0.2-0.1
					s-0.1-0.2-0.1-0.2v-0.9c0-0.1,0-0.2,0.1-0.2s0.2-0.1,0.2-0.1h0.9C84.5,189.5,84.5,189.5,84.6,189.6z"/>
				<path class="st14" d="M90.3,184.4c0.3,0.2,0.6,0.4,0.8,0.6v-0.4c0-0.1,0-0.2,0.1-0.2c0.1-0.1,0.2-0.1,0.2-0.1h0.5
					c0.1,0,0.2,0,0.2,0.1s0.1,0.2,0.1,0.2v6.3c0,0.9-0.3,1.6-0.8,2.2s-1.3,0.8-2.3,0.8c-0.6,0-1.2-0.1-1.6-0.3
					c-0.4-0.2-0.8-0.4-1-0.7c-0.2-0.3-0.3-0.6-0.3-0.9c0-0.1,0-0.2,0.1-0.2s0.2-0.1,0.3-0.1h0.4c0.1,0,0.2,0,0.2,0.1
					c0.1,0.1,0.1,0.1,0.2,0.3c0.1,0.2,0.3,0.4,0.5,0.6c0.2,0.2,0.6,0.3,1.2,0.3c1.3,0,2-0.6,2-1.7v-0.8c-0.4,0.6-1.1,0.9-2,0.9
					c-0.5,0-1-0.1-1.5-0.4c-0.4-0.3-0.8-0.6-1.1-1.1c-0.3-0.5-0.4-1-0.4-1.6l0-0.4l0-0.4c0-0.6,0.2-1.2,0.4-1.6
					c0.3-0.5,0.6-0.8,1-1.1c0.4-0.3,0.9-0.4,1.5-0.4C89.5,184.2,89.9,184.2,90.3,184.4z M87.8,185.8c-0.3,0.4-0.5,0.9-0.6,1.5l0,0.4
					l0,0.4c0,0.6,0.2,1.1,0.6,1.5c0.3,0.4,0.8,0.5,1.3,0.5c0.6,0,1-0.2,1.3-0.5c0.3-0.3,0.5-0.8,0.5-1.4c0-0.1,0-0.2,0-0.5
					s0-0.4,0-0.5c0-0.6-0.2-1.1-0.5-1.4c-0.3-0.3-0.8-0.5-1.3-0.5C88.6,185.3,88.1,185.5,87.8,185.8z"/>
				<path class="st14" d="M95.5,189.6c0.1,0.1,0.1,0.2,0.1,0.2v0.9c0,0.1,0,0.2-0.1,0.2s-0.2,0.1-0.2,0.1h-0.9c-0.1,0-0.2,0-0.2-0.1
					s-0.1-0.2-0.1-0.2v-0.9c0-0.1,0-0.2,0.1-0.2s0.2-0.1,0.2-0.1h0.9C95.4,189.5,95.5,189.5,95.5,189.6z"/>
				<path class="st14" d="M96.1,192.3c0-0.1,0-0.2,0.1-0.2c0.1-0.1,0.2-0.1,0.2-0.1c0.5,0,0.9-0.2,1.2-0.5s0.4-0.9,0.5-1.6
					c0.1-0.7,0.1-1.6,0.1-2.9c0-1.2,0-2.2-0.1-2.8s-0.3-1.2-0.5-1.6c-0.3-0.4-0.7-0.5-1.2-0.5c-0.1,0-0.2,0-0.2-0.1
					c-0.1-0.1-0.1-0.2-0.1-0.2v-0.4c0-0.1,0-0.2,0.1-0.2c0.1-0.1,0.2-0.1,0.2-0.1c0.8,0,1.4,0.2,1.9,0.6c0.4,0.4,0.7,1.1,0.9,1.9
					s0.2,2,0.2,3.5c0,1.5-0.1,2.6-0.2,3.5c-0.2,0.9-0.5,1.5-0.9,1.9c-0.4,0.4-1.1,0.6-1.9,0.6c-0.1,0-0.2,0-0.2-0.1
					c-0.1-0.1-0.1-0.2-0.1-0.2V192.3z"/>
			</g>
		</g>
		<g>
			<g>
				<path class="st14" d="M22.2,288.2l-0.7,1.7c-0.1,0.2-0.2,0.3-0.5,0.3h-0.5c-0.1,0-0.1,0-0.2-0.1c-0.1-0.1-0.1-0.1-0.1-0.2
					c0,0,0-0.1,0.1-0.2l3.2-8.2c0.1-0.3,0.3-0.4,0.6-0.4h0.8c0.3,0,0.5,0.1,0.6,0.4l3.2,8.2c0,0.1,0.1,0.1,0.1,0.2
					c0,0.1,0,0.1-0.1,0.2c-0.1,0.1-0.1,0.1-0.2,0.1h-0.5c-0.3,0-0.4-0.1-0.5-0.3l-0.7-1.7H22.2z M26.2,287l-1.8-4.6l-1.8,4.6H26.2z"
					/>
				<path class="st14" d="M31.1,292.3c0,0.1,0,0.2-0.1,0.2s-0.2,0.1-0.2,0.1h-0.5c-0.1,0-0.2,0-0.2-0.1s-0.1-0.2-0.1-0.2v-8.5
					c0-0.1,0-0.2,0.1-0.2s0.2-0.1,0.2-0.1h0.5c0.1,0,0.2,0,0.2,0.1s0.1,0.2,0.1,0.2v0.4c0.4-0.6,1.1-0.9,2-0.9c0.5,0,1,0.1,1.5,0.4
					c0.4,0.3,0.8,0.6,1.1,1.1c0.3,0.5,0.4,1,0.4,1.6c0,0.1,0,0.2,0,0.4c0,0.2,0,0.3,0,0.4c0,0.6-0.2,1.2-0.4,1.6s-0.6,0.8-1,1.1
					c-0.4,0.3-0.9,0.4-1.5,0.4c-0.5,0-0.9-0.1-1.2-0.3c-0.3-0.2-0.6-0.4-0.8-0.6V292.3z M31.7,288.7c0.3,0.3,0.8,0.5,1.3,0.5
					c0.6,0,1-0.2,1.3-0.5c0.3-0.4,0.5-0.9,0.6-1.5c0-0.1,0-0.2,0-0.4s0-0.3,0-0.4c0-0.6-0.2-1.1-0.6-1.5c-0.3-0.4-0.8-0.5-1.3-0.5
					c-0.5,0-1,0.2-1.3,0.5s-0.5,0.8-0.6,1.3l0,0.5l0,0.5C31.1,287.9,31.3,288.4,31.7,288.7z"/>
				<path class="st14" d="M38.9,292.3c0,0.1,0,0.2-0.1,0.2s-0.2,0.1-0.2,0.1H38c-0.1,0-0.2,0-0.2-0.1s-0.1-0.2-0.1-0.2v-8.5
					c0-0.1,0-0.2,0.1-0.2s0.2-0.1,0.2-0.1h0.5c0.1,0,0.2,0,0.2,0.1s0.1,0.2,0.1,0.2v0.4c0.4-0.6,1.1-0.9,2-0.9c0.5,0,1,0.1,1.5,0.4
					c0.4,0.3,0.8,0.6,1.1,1.1c0.3,0.5,0.4,1,0.4,1.6c0,0.1,0,0.2,0,0.4c0,0.2,0,0.3,0,0.4c0,0.6-0.2,1.2-0.4,1.6s-0.6,0.8-1,1.1
					c-0.4,0.3-0.9,0.4-1.5,0.4c-0.5,0-0.9-0.1-1.2-0.3c-0.3-0.2-0.6-0.4-0.8-0.6V292.3z M39.4,288.7c0.3,0.3,0.8,0.5,1.3,0.5
					c0.6,0,1-0.2,1.3-0.5c0.3-0.4,0.5-0.9,0.6-1.5c0-0.1,0-0.2,0-0.4s0-0.3,0-0.4c0-0.6-0.2-1.1-0.6-1.5c-0.3-0.4-0.8-0.5-1.3-0.5
					c-0.5,0-1,0.2-1.3,0.5s-0.5,0.8-0.6,1.3l0,0.5l0,0.5C38.9,287.9,39.1,288.4,39.4,288.7z"/>
				<path class="st14" d="M46.5,290.1c-0.1,0.1-0.2,0.1-0.2,0.1h-0.5c-0.1,0-0.2,0-0.2-0.1s-0.1-0.2-0.1-0.2v-8.5
					c0-0.1,0-0.2,0.1-0.2s0.2-0.1,0.2-0.1h0.5c0.1,0,0.2,0,0.2,0.1s0.1,0.2,0.1,0.2v8.5C46.6,290,46.6,290.1,46.5,290.1z"/>
				<path class="st14" d="M49.7,282.3c-0.1,0.1-0.2,0.1-0.2,0.1h-0.7c-0.1,0-0.2,0-0.2-0.1s-0.1-0.2-0.1-0.2v-0.7
					c0-0.1,0-0.2,0.1-0.2s0.2-0.1,0.2-0.1h0.7c0.1,0,0.2,0,0.2,0.1s0.1,0.2,0.1,0.2v0.7C49.8,282.2,49.8,282.3,49.7,282.3z
					 M49.6,290.1c-0.1,0.1-0.2,0.1-0.2,0.1h-0.5c-0.1,0-0.2,0-0.2-0.1s-0.1-0.2-0.1-0.2v-6.1c0-0.1,0-0.2,0.1-0.2s0.2-0.1,0.2-0.1
					h0.5c0.1,0,0.2,0,0.2,0.1s0.1,0.2,0.1,0.2v6.1C49.7,290,49.6,290.1,49.6,290.1z"/>
				<path class="st14" d="M56,288.2c0.1-0.1,0.1-0.2,0.2-0.3c0.1-0.1,0.1-0.1,0.2-0.1h0.4c0.1,0,0.2,0,0.2,0.1
					c0.1,0.1,0.1,0.1,0.1,0.2c0,0.3-0.1,0.6-0.4,0.9c-0.2,0.3-0.6,0.6-1,0.9c-0.4,0.2-1,0.4-1.6,0.4c-0.6,0-1.1-0.1-1.6-0.4
					c-0.5-0.3-0.8-0.6-1-1.1c-0.2-0.5-0.4-1-0.4-1.5c0-0.1,0-0.3,0-0.6c0-0.2,0-0.4,0-0.4c0.1-0.9,0.4-1.6,0.9-2.2
					c0.5-0.6,1.2-0.8,2.1-0.8c0.6,0,1.1,0.1,1.6,0.3c0.4,0.2,0.8,0.5,1,0.8c0.2,0.3,0.4,0.6,0.4,0.9c0,0.1,0,0.2-0.1,0.2
					c-0.1,0.1-0.2,0.1-0.3,0.1h-0.4c-0.1,0-0.2,0-0.2-0.1c-0.1-0.1-0.1-0.1-0.2-0.3c-0.3-0.7-0.9-1-1.8-1c-0.5,0-0.9,0.2-1.2,0.5
					s-0.6,0.8-0.6,1.5c0,0.1,0,0.3,0,0.5c0,0.2,0,0.3,0,0.4c0.1,0.6,0.3,1.1,0.6,1.5c0.4,0.3,0.8,0.5,1.2,0.5
					C55.1,289.2,55.7,288.9,56,288.2z"/>
				<path class="st14" d="M62.9,286v-0.2c0-0.4-0.1-0.8-0.4-1s-0.6-0.3-1.1-0.3c-0.3,0-0.6,0.1-0.8,0.2c-0.2,0.1-0.4,0.3-0.6,0.5
					c-0.1,0.1-0.1,0.1-0.2,0.1c-0.1,0-0.1,0-0.2,0h-0.4c-0.1,0-0.2,0-0.3-0.1c-0.1-0.1-0.1-0.2-0.1-0.2c0-0.3,0.2-0.5,0.4-0.8
					c0.2-0.3,0.5-0.5,0.9-0.6c0.4-0.2,0.8-0.2,1.2-0.2c0.8,0,1.5,0.2,2,0.7c0.5,0.5,0.7,1.1,0.7,1.9v4c0,0.1,0,0.2-0.1,0.2
					s-0.2,0.1-0.2,0.1h-0.5c-0.1,0-0.2,0-0.2-0.1s-0.1-0.2-0.1-0.2v-0.5c-0.1,0.3-0.4,0.6-0.9,0.7c-0.5,0.2-0.9,0.3-1.4,0.3
					c-0.4,0-0.8-0.1-1.2-0.2s-0.6-0.4-0.8-0.7s-0.3-0.6-0.3-0.9c0-0.6,0.2-1.2,0.7-1.5s1.1-0.6,1.9-0.7L62.9,286z M62.9,287
					l-1.5,0.2c-0.6,0.1-1,0.2-1.3,0.4c-0.3,0.2-0.5,0.4-0.5,0.7c0,0.2,0.1,0.4,0.3,0.6c0.2,0.2,0.5,0.3,0.9,0.3
					c0.6,0,1.1-0.2,1.5-0.5c0.4-0.4,0.6-0.8,0.6-1.4V287z"/>
				<path class="st14" d="M67.9,288.8c0.2,0.2,0.4,0.3,0.9,0.3h0.7c0.1,0,0.2,0,0.2,0.1c0.1,0.1,0.1,0.2,0.1,0.2v0.4
					c0,0.1,0,0.2-0.1,0.2c-0.1,0.1-0.2,0.1-0.2,0.1h-0.8c-0.7,0-1.3-0.2-1.6-0.6s-0.5-1-0.5-1.7v-3.4h-1c-0.1,0-0.2,0-0.2-0.1
					s-0.1-0.2-0.1-0.2v-0.4c0-0.1,0-0.2,0.1-0.2s0.2-0.1,0.2-0.1h1v-2.1c0-0.1,0-0.2,0.1-0.2s0.2-0.1,0.2-0.1h0.5
					c0.1,0,0.2,0,0.2,0.1s0.1,0.2,0.1,0.2v2.1h1.7c0.1,0,0.2,0,0.2,0.1s0.1,0.2,0.1,0.2v0.4c0,0.1,0,0.2-0.1,0.2s-0.2,0.1-0.2,0.1
					h-1.7v3.4C67.7,288.3,67.7,288.6,67.9,288.8z"/>
				<path class="st14" d="M72.3,282.3c-0.1,0.1-0.2,0.1-0.2,0.1h-0.7c-0.1,0-0.2,0-0.2-0.1s-0.1-0.2-0.1-0.2v-0.7
					c0-0.1,0-0.2,0.1-0.2s0.2-0.1,0.2-0.1h0.7c0.1,0,0.2,0,0.2,0.1s0.1,0.2,0.1,0.2v0.7C72.4,282.2,72.4,282.3,72.3,282.3z
					 M72.2,290.1c-0.1,0.1-0.2,0.1-0.2,0.1h-0.5c-0.1,0-0.2,0-0.2-0.1s-0.1-0.2-0.1-0.2v-6.1c0-0.1,0-0.2,0.1-0.2s0.2-0.1,0.2-0.1
					h0.5c0.1,0,0.2,0,0.2,0.1s0.1,0.2,0.1,0.2v6.1C72.3,290,72.2,290.1,72.2,290.1z"/>
				<path class="st14" d="M80.1,286.9c0,0.2,0,0.4,0,0.6c-0.1,0.9-0.4,1.6-0.9,2.1c-0.5,0.5-1.3,0.8-2.2,0.8s-1.6-0.3-2.2-0.8
					c-0.5-0.5-0.8-1.2-0.9-2.1c0-0.1,0-0.3,0-0.6c0-0.3,0-0.5,0-0.6c0.1-0.9,0.4-1.6,0.9-2.1c0.5-0.5,1.3-0.8,2.2-0.8
					s1.6,0.3,2.2,0.8s0.8,1.2,0.9,2.1C80,286.4,80.1,286.6,80.1,286.9z M78.3,285c-0.3-0.3-0.8-0.5-1.3-0.5c-0.6,0-1,0.2-1.3,0.5
					s-0.5,0.8-0.6,1.3c0,0.1,0,0.3,0,0.6c0,0.3,0,0.4,0,0.5c0.1,0.6,0.2,1,0.6,1.3s0.8,0.5,1.3,0.5c0.6,0,1-0.2,1.3-0.5
					s0.5-0.8,0.6-1.3c0-0.2,0-0.4,0-0.5c0-0.2,0-0.4,0-0.6C78.8,285.7,78.6,285.3,78.3,285z"/>
				<path class="st14" d="M87.5,290.1c-0.1,0.1-0.2,0.1-0.2,0.1h-0.5c-0.1,0-0.2,0-0.2-0.1s-0.1-0.2-0.1-0.2v-3.4
					c0-0.6-0.2-1.1-0.5-1.5c-0.3-0.3-0.8-0.5-1.3-0.5c-0.6,0-1,0.2-1.3,0.5s-0.5,0.8-0.5,1.5v3.4c0,0.1,0,0.2-0.1,0.2
					s-0.2,0.1-0.2,0.1H82c-0.1,0-0.2,0-0.2-0.1s-0.1-0.2-0.1-0.2v-6.1c0-0.1,0-0.2,0.1-0.2s0.2-0.1,0.2-0.1h0.5c0.1,0,0.2,0,0.2,0.1
					s0.1,0.2,0.1,0.2v0.4c0.2-0.3,0.5-0.5,0.8-0.6s0.7-0.3,1.2-0.3c0.5,0,1,0.1,1.5,0.4s0.8,0.6,1,1s0.4,1,0.4,1.6v3.6
					C87.7,290,87.6,290.1,87.5,290.1z"/>
			</g>
		</g>
		<g>
			<g>
				<rect x="150" y="281" class="st11" width="90" height="64"/>
				<path d="M152.2,290l-0.7,1.7c-0.1,0.2-0.2,0.3-0.5,0.3h-0.5c-0.1,0-0.1,0-0.2-0.1c-0.1-0.1-0.1-0.1-0.1-0.2c0,0,0-0.1,0.1-0.2
					l3.2-8.2c0.1-0.3,0.3-0.4,0.6-0.4h0.8c0.3,0,0.5,0.1,0.6,0.4l3.2,8.2c0,0.1,0.1,0.1,0.1,0.2c0,0.1,0,0.1-0.1,0.2
					c-0.1,0.1-0.1,0.1-0.2,0.1h-0.5c-0.3,0-0.4-0.1-0.5-0.3l-0.7-1.7H152.2z M156.2,288.8l-1.8-4.6l-1.8,4.6H156.2z"/>
				<path d="M163.6,285.4c0.3,0.2,0.6,0.4,0.8,0.6v-0.4c0-0.1,0-0.2,0.1-0.2c0.1-0.1,0.2-0.1,0.2-0.1h0.5c0.1,0,0.2,0,0.2,0.1
					s0.1,0.2,0.1,0.2v6.3c0,0.9-0.3,1.6-0.8,2.2c-0.5,0.5-1.3,0.8-2.3,0.8c-0.7,0-1.2-0.1-1.6-0.3c-0.4-0.2-0.8-0.4-1-0.7
					c-0.2-0.3-0.3-0.6-0.3-0.9c0-0.1,0-0.2,0.1-0.2c0.1-0.1,0.2-0.1,0.3-0.1h0.4c0.1,0,0.2,0,0.2,0.1c0.1,0.1,0.1,0.1,0.2,0.3
					c0.1,0.2,0.3,0.4,0.5,0.6c0.2,0.2,0.6,0.3,1.2,0.3c1.3,0,2-0.6,2-1.7v-0.8c-0.4,0.6-1.1,0.9-2,0.9c-0.5,0-1-0.1-1.5-0.4
					s-0.8-0.6-1.1-1.1c-0.3-0.5-0.4-1-0.4-1.6l0-0.4l0-0.4c0-0.6,0.2-1.2,0.4-1.6c0.3-0.5,0.6-0.8,1-1.1c0.4-0.3,0.9-0.4,1.5-0.4
					C162.9,285.2,163.3,285.2,163.6,285.4z M161.2,286.8c-0.3,0.4-0.5,0.9-0.6,1.5l0,0.4l0,0.4c0,0.6,0.2,1.1,0.6,1.5
					s0.8,0.5,1.3,0.5c0.6,0,1-0.2,1.3-0.5c0.3-0.3,0.5-0.8,0.5-1.4c0-0.1,0-0.2,0-0.5s0-0.4,0-0.5c0-0.6-0.2-1.1-0.5-1.4
					s-0.8-0.5-1.3-0.5C161.9,286.3,161.5,286.5,161.2,286.8z"/>
				<path d="M171.1,285.4c0.1,0.1,0.1,0.2,0.1,0.2v0.4c0,0.1,0,0.2-0.1,0.2s-0.2,0.1-0.2,0.1h-0.8c-0.5,0-0.9,0.1-1.1,0.4
					c-0.3,0.3-0.4,0.6-0.4,1.1v3.8c0,0.1,0,0.2-0.1,0.2s-0.2,0.1-0.2,0.1h-0.5c-0.1,0-0.2,0-0.2-0.1s-0.1-0.2-0.1-0.2v-6.1
					c0-0.1,0-0.2,0.1-0.2s0.2-0.1,0.2-0.1h0.5c0.1,0,0.2,0,0.2,0.1s0.1,0.2,0.1,0.2v0.4c0.2-0.3,0.4-0.5,0.6-0.6
					c0.2-0.1,0.6-0.2,0.9-0.2h0.7C171,285.3,171.1,285.3,171.1,285.4z"/>
				<path d="M173.7,284.2c-0.1,0.1-0.2,0.1-0.2,0.1h-0.7c-0.1,0-0.2,0-0.2-0.1s-0.1-0.2-0.1-0.2v-0.7c0-0.1,0-0.2,0.1-0.2
					s0.2-0.1,0.2-0.1h0.7c0.1,0,0.2,0,0.2,0.1s0.1,0.2,0.1,0.2v0.7C173.8,284,173.7,284.1,173.7,284.2z M173.5,291.9
					c-0.1,0.1-0.2,0.1-0.2,0.1h-0.5c-0.1,0-0.2,0-0.2-0.1s-0.1-0.2-0.1-0.2v-6.1c0-0.1,0-0.2,0.1-0.2s0.2-0.1,0.2-0.1h0.5
					c0.1,0,0.2,0,0.2,0.1c0.1,0.1,0.1,0.2,0.1,0.2v6.1C173.6,291.8,173.6,291.9,173.5,291.9z"/>
				<path d="M180,290c0.1-0.1,0.1-0.2,0.2-0.3c0.1-0.1,0.1-0.1,0.2-0.1h0.4c0.1,0,0.2,0,0.2,0.1c0.1,0.1,0.1,0.1,0.1,0.2
					c0,0.3-0.1,0.6-0.4,0.9c-0.2,0.3-0.6,0.6-1,0.9c-0.4,0.2-1,0.4-1.6,0.4c-0.6,0-1.1-0.1-1.6-0.4c-0.5-0.3-0.8-0.6-1-1.1
					c-0.2-0.5-0.4-1-0.4-1.5c0-0.1,0-0.3,0-0.6c0-0.2,0-0.4,0-0.4c0.1-0.9,0.4-1.6,0.9-2.2c0.5-0.6,1.2-0.8,2.1-0.8
					c0.6,0,1.1,0.1,1.6,0.3c0.4,0.2,0.8,0.5,1,0.8c0.2,0.3,0.4,0.6,0.4,0.9c0,0.1,0,0.2-0.1,0.2s-0.2,0.1-0.3,0.1h-0.4
					c-0.1,0-0.2,0-0.2-0.1c-0.1-0.1-0.1-0.1-0.2-0.3c-0.3-0.7-0.9-1-1.8-1c-0.5,0-0.9,0.2-1.2,0.5s-0.6,0.8-0.6,1.5
					c0,0.1,0,0.3,0,0.5c0,0.2,0,0.3,0,0.4c0.1,0.6,0.3,1.1,0.6,1.5c0.4,0.3,0.8,0.5,1.2,0.5C179.1,291.1,179.7,290.7,180,290z"/>
				<path d="M182.7,285.4c0.1-0.1,0.2-0.1,0.2-0.1h0.5c0.1,0,0.2,0,0.2,0.1s0.1,0.2,0.1,0.2v3.4c0,0.7,0.2,1.2,0.4,1.5
					s0.7,0.5,1.3,0.5c0.6,0,1-0.2,1.3-0.5s0.5-0.8,0.5-1.5v-3.4c0-0.1,0-0.2,0.1-0.2s0.2-0.1,0.2-0.1h0.5c0.1,0,0.2,0,0.2,0.1
					c0.1,0.1,0.1,0.2,0.1,0.2v6.1c0,0.1,0,0.2-0.1,0.2c-0.1,0.1-0.2,0.1-0.2,0.1h-0.5c-0.1,0-0.2,0-0.2-0.1s-0.1-0.2-0.1-0.2v-0.4
					c-0.5,0.6-1.1,0.9-2,0.9c-0.8,0-1.5-0.3-2-0.8c-0.5-0.5-0.7-1.2-0.7-2.1v-3.6C182.6,285.5,182.6,285.5,182.7,285.4z"/>
				<path d="M191.4,291.9c-0.1,0.1-0.2,0.1-0.2,0.1h-0.5c-0.1,0-0.2,0-0.2-0.1s-0.1-0.2-0.1-0.2v-8.5c0-0.1,0-0.2,0.1-0.2
					s0.2-0.1,0.2-0.1h0.5c0.1,0,0.2,0,0.2,0.1c0.1,0.1,0.1,0.2,0.1,0.2v8.5C191.5,291.8,191.5,291.9,191.4,291.9z"/>
				<path d="M195.5,290.6c0.2,0.2,0.4,0.3,0.9,0.3h0.7c0.1,0,0.2,0,0.2,0.1s0.1,0.2,0.1,0.2v0.4c0,0.1,0,0.2-0.1,0.2
					s-0.2,0.1-0.2,0.1h-0.8c-0.7,0-1.3-0.2-1.6-0.6s-0.5-1-0.5-1.7v-3.4h-1c-0.1,0-0.2,0-0.2-0.1s-0.1-0.2-0.1-0.2v-0.4
					c0-0.1,0-0.2,0.1-0.2s0.2-0.1,0.2-0.1h1v-2.1c0-0.1,0-0.2,0.1-0.2s0.2-0.1,0.2-0.1h0.5c0.1,0,0.2,0,0.2,0.1
					c0.1,0.1,0.1,0.2,0.1,0.2v2.1h1.7c0.1,0,0.2,0,0.2,0.1c0.1,0.1,0.1,0.2,0.1,0.2v0.4c0,0.1,0,0.2-0.1,0.2
					c-0.1,0.1-0.2,0.1-0.2,0.1h-1.7v3.4C195.3,290.1,195.4,290.4,195.5,290.6z"/>
				<path d="M198.7,285.4c0.1-0.1,0.2-0.1,0.2-0.1h0.5c0.1,0,0.2,0,0.2,0.1s0.1,0.2,0.1,0.2v3.4c0,0.7,0.2,1.2,0.4,1.5
					s0.7,0.5,1.3,0.5c0.6,0,1-0.2,1.3-0.5s0.5-0.8,0.5-1.5v-3.4c0-0.1,0-0.2,0.1-0.2s0.2-0.1,0.2-0.1h0.5c0.1,0,0.2,0,0.2,0.1
					c0.1,0.1,0.1,0.2,0.1,0.2v6.1c0,0.1,0,0.2-0.1,0.2c-0.1,0.1-0.2,0.1-0.2,0.1h-0.5c-0.1,0-0.2,0-0.2-0.1s-0.1-0.2-0.1-0.2v-0.4
					c-0.5,0.6-1.1,0.9-2,0.9c-0.8,0-1.5-0.3-2-0.8c-0.5-0.5-0.7-1.2-0.7-2.1v-3.6C198.6,285.5,198.7,285.5,198.7,285.4z"/>
				<path d="M210.1,285.4c0.1,0.1,0.1,0.2,0.1,0.2v0.4c0,0.1,0,0.2-0.1,0.2s-0.2,0.1-0.2,0.1h-0.8c-0.5,0-0.9,0.1-1.1,0.4
					c-0.3,0.3-0.4,0.6-0.4,1.1v3.8c0,0.1,0,0.2-0.1,0.2c-0.1,0.1-0.2,0.1-0.2,0.1h-0.5c-0.1,0-0.2,0-0.2-0.1s-0.1-0.2-0.1-0.2v-6.1
					c0-0.1,0-0.2,0.1-0.2s0.2-0.1,0.2-0.1h0.5c0.1,0,0.2,0,0.2,0.1c0.1,0.1,0.1,0.2,0.1,0.2v0.4c0.2-0.3,0.4-0.5,0.6-0.6
					c0.2-0.1,0.6-0.2,0.9-0.2h0.7C209.9,285.3,210,285.3,210.1,285.4z"/>
				<path d="M215.4,287.8v-0.2c0-0.4-0.1-0.8-0.4-1c-0.3-0.2-0.6-0.3-1.1-0.3c-0.3,0-0.6,0.1-0.8,0.2c-0.2,0.1-0.4,0.3-0.6,0.5
					c-0.1,0.1-0.1,0.1-0.2,0.1c-0.1,0-0.1,0-0.2,0h-0.4c-0.1,0-0.2,0-0.3-0.1c-0.1-0.1-0.1-0.2-0.1-0.2c0-0.3,0.2-0.5,0.4-0.8
					c0.2-0.3,0.5-0.5,0.9-0.6c0.4-0.2,0.8-0.2,1.2-0.2c0.8,0,1.5,0.2,2,0.7s0.7,1.1,0.7,1.9v4c0,0.1,0,0.2-0.1,0.2s-0.2,0.1-0.2,0.1
					h-0.5c-0.1,0-0.2,0-0.2-0.1c-0.1-0.1-0.1-0.2-0.1-0.2v-0.5c-0.1,0.3-0.4,0.6-0.9,0.7c-0.5,0.2-0.9,0.3-1.4,0.3
					c-0.4,0-0.8-0.1-1.2-0.2s-0.6-0.4-0.8-0.7s-0.3-0.6-0.3-0.9c0-0.6,0.2-1.2,0.7-1.5c0.5-0.4,1.1-0.6,1.9-0.7L215.4,287.8z
					 M215.4,288.8l-1.5,0.2c-0.6,0.1-1,0.2-1.3,0.4c-0.3,0.2-0.5,0.4-0.5,0.7c0,0.2,0.1,0.4,0.3,0.6c0.2,0.2,0.5,0.3,0.9,0.3
					c0.6,0,1.1-0.2,1.5-0.5c0.4-0.4,0.6-0.8,0.6-1.4V288.8z"/>
				<path d="M219.5,291.9c-0.1,0.1-0.2,0.1-0.2,0.1h-0.5c-0.1,0-0.2,0-0.2-0.1s-0.1-0.2-0.1-0.2v-8.5c0-0.1,0-0.2,0.1-0.2
					s0.2-0.1,0.2-0.1h0.5c0.1,0,0.2,0,0.2,0.1s0.1,0.2,0.1,0.2v8.5C219.6,291.8,219.5,291.9,219.5,291.9z"/>
				<path d="M152.1,310.9c-0.1,0.1-0.2,0.1-0.2,0.1h-0.5c-0.1,0-0.2,0-0.2-0.1s-0.1-0.2-0.1-0.2v-8.5c0-0.1,0-0.2,0.1-0.2
					s0.2-0.1,0.2-0.1h0.5c0.1,0,0.2,0,0.2,0.1c0.1,0.1,0.1,0.2,0.1,0.2v8.5C152.2,310.8,152.1,310.9,152.1,310.9z"/>
				<path d="M158.1,306.8v-0.2c0-0.4-0.1-0.8-0.4-1c-0.3-0.2-0.6-0.3-1.1-0.3c-0.3,0-0.6,0.1-0.8,0.2s-0.4,0.3-0.6,0.5
					c-0.1,0.1-0.1,0.1-0.2,0.1c-0.1,0-0.1,0-0.2,0h-0.4c-0.1,0-0.2,0-0.3-0.1c-0.1-0.1-0.1-0.2-0.1-0.2c0-0.3,0.2-0.5,0.4-0.8
					c0.2-0.3,0.5-0.5,0.9-0.6c0.4-0.2,0.8-0.2,1.2-0.2c0.8,0,1.5,0.2,2,0.7c0.5,0.5,0.7,1.1,0.7,1.9v4c0,0.1,0,0.2-0.1,0.2
					s-0.2,0.1-0.2,0.1h-0.5c-0.1,0-0.2,0-0.2-0.1s-0.1-0.2-0.1-0.2v-0.5c-0.1,0.3-0.4,0.6-0.9,0.7c-0.5,0.2-0.9,0.3-1.4,0.3
					c-0.4,0-0.8-0.1-1.2-0.2c-0.3-0.2-0.6-0.4-0.8-0.7s-0.3-0.6-0.3-0.9c0-0.6,0.2-1.2,0.7-1.5s1.1-0.6,1.9-0.7L158.1,306.8z
					 M158.1,307.8l-1.5,0.2c-0.6,0.1-1,0.2-1.3,0.4c-0.3,0.2-0.5,0.4-0.5,0.7c0,0.2,0.1,0.4,0.3,0.6c0.2,0.2,0.5,0.3,0.9,0.3
					c0.6,0,1.1-0.2,1.5-0.5c0.4-0.4,0.6-0.8,0.6-1.4V307.8z"/>
				<path d="M167,310.9c-0.1,0.1-0.2,0.1-0.2,0.1h-0.5c-0.1,0-0.2,0-0.2-0.1s-0.1-0.2-0.1-0.2v-3.4c0-0.6-0.2-1.1-0.5-1.5
					c-0.3-0.3-0.8-0.5-1.3-0.5c-0.6,0-1,0.2-1.3,0.5s-0.5,0.8-0.5,1.5v3.4c0,0.1,0,0.2-0.1,0.2c-0.1,0.1-0.2,0.1-0.2,0.1h-0.5
					c-0.1,0-0.2,0-0.2-0.1s-0.1-0.2-0.1-0.2v-6.1c0-0.1,0-0.2,0.1-0.2s0.2-0.1,0.2-0.1h0.5c0.1,0,0.2,0,0.2,0.1
					c0.1,0.1,0.1,0.2,0.1,0.2v0.4c0.2-0.3,0.5-0.5,0.8-0.6c0.3-0.2,0.7-0.3,1.2-0.3c0.5,0,1,0.1,1.5,0.4s0.8,0.6,1,1s0.4,1,0.4,1.6
					v3.6C167.1,310.8,167.1,310.9,167,310.9z"/>
				<path d="M173.6,302.2c0-0.1,0-0.2,0.1-0.2c0.1-0.1,0.2-0.1,0.2-0.1h0.5c0.1,0,0.2,0,0.2,0.1s0.1,0.2,0.1,0.2v8.5
					c0,0.1,0,0.2-0.1,0.2s-0.2,0.1-0.2,0.1h-0.5c-0.1,0-0.2,0-0.2-0.1c-0.1-0.1-0.1-0.2-0.1-0.2v-0.4c-0.4,0.6-1.1,0.9-2,0.9
					c-0.5,0-1-0.1-1.5-0.4s-0.8-0.6-1.1-1.1c-0.3-0.5-0.4-1-0.4-1.6l0-0.4l0-0.4c0-0.6,0.2-1.2,0.4-1.6c0.3-0.5,0.6-0.8,1-1.1
					c0.4-0.3,0.9-0.4,1.5-0.4c0.5,0,0.9,0.1,1.2,0.3c0.3,0.2,0.6,0.4,0.8,0.6V302.2z M173.1,305.8c-0.3-0.3-0.8-0.5-1.3-0.5
					c-0.6,0-1,0.2-1.3,0.5c-0.3,0.4-0.5,0.9-0.6,1.5l0,0.4l0,0.4c0,0.6,0.2,1.1,0.6,1.5s0.8,0.5,1.3,0.5c0.5,0,1-0.2,1.3-0.5
					c0.3-0.3,0.5-0.8,0.6-1.3c0-0.1,0-0.3,0-0.5c0-0.3,0-0.4,0-0.5C173.6,306.6,173.4,306.1,173.1,305.8z"/>
				<path d="M152.9,323.4c0.3-0.2,0.6-0.2,1-0.2c1,0,1.7,0.4,2.1,1.1c0.3-0.4,0.5-0.6,0.9-0.8c0.3-0.2,0.7-0.3,1.3-0.3
					c0.8,0,1.5,0.3,1.9,0.8c0.4,0.5,0.6,1.2,0.6,2.2v3.6c0,0.1,0,0.2-0.1,0.2c-0.1,0.1-0.2,0.1-0.2,0.1h-0.5c-0.1,0-0.2,0-0.2-0.1
					s-0.1-0.2-0.1-0.2v-3.5c0-1.3-0.5-2-1.5-2c-0.5,0-0.8,0.2-1.1,0.5c-0.3,0.3-0.4,0.8-0.4,1.4v3.6c0,0.1,0,0.2-0.1,0.2
					c-0.1,0.1-0.2,0.1-0.2,0.1h-0.5c-0.1,0-0.2,0-0.2-0.1s-0.1-0.2-0.1-0.2v-3.5c0-1.3-0.5-2-1.5-2c-0.5,0-0.8,0.2-1.1,0.5
					c-0.3,0.3-0.4,0.8-0.4,1.4v3.6c0,0.1,0,0.2-0.1,0.2c-0.1,0.1-0.2,0.1-0.2,0.1h-0.5c-0.1,0-0.2,0-0.2-0.1s-0.1-0.2-0.1-0.2v-6.1
					c0-0.1,0-0.2,0.1-0.2s0.2-0.1,0.2-0.1h0.5c0.1,0,0.2,0,0.2,0.1c0.1,0.1,0.1,0.2,0.1,0.2v0.4
					C152.4,323.8,152.6,323.6,152.9,323.4z"/>
				<path d="M166.5,325.8v-0.2c0-0.4-0.1-0.8-0.4-1c-0.3-0.2-0.6-0.3-1.1-0.3c-0.3,0-0.6,0.1-0.8,0.2c-0.2,0.1-0.4,0.3-0.6,0.5
					c-0.1,0.1-0.1,0.1-0.2,0.1c-0.1,0-0.1,0-0.2,0h-0.4c-0.1,0-0.2,0-0.3-0.1c-0.1-0.1-0.1-0.2-0.1-0.2c0-0.3,0.2-0.5,0.4-0.8
					c0.2-0.3,0.5-0.5,0.9-0.6c0.4-0.2,0.8-0.2,1.2-0.2c0.8,0,1.5,0.2,2,0.7s0.7,1.1,0.7,1.9v4c0,0.1,0,0.2-0.1,0.2s-0.2,0.1-0.2,0.1
					h-0.5c-0.1,0-0.2,0-0.2-0.1c-0.1-0.1-0.1-0.2-0.1-0.2v-0.5c-0.1,0.3-0.4,0.6-0.9,0.7c-0.5,0.2-0.9,0.3-1.4,0.3
					c-0.4,0-0.8-0.1-1.2-0.2s-0.6-0.4-0.8-0.7s-0.3-0.6-0.3-0.9c0-0.6,0.2-1.2,0.7-1.5c0.5-0.4,1.1-0.6,1.9-0.7L166.5,325.8z
					 M166.5,326.8l-1.5,0.2c-0.6,0.1-1,0.2-1.3,0.4c-0.3,0.2-0.5,0.4-0.5,0.7c0,0.2,0.1,0.4,0.3,0.6c0.2,0.2,0.5,0.3,0.9,0.3
					c0.6,0,1.1-0.2,1.5-0.5c0.4-0.4,0.6-0.8,0.6-1.4V326.8z"/>
				<path d="M175.4,329.9c-0.1,0.1-0.2,0.1-0.2,0.1h-0.5c-0.1,0-0.2,0-0.2-0.1s-0.1-0.2-0.1-0.2v-3.4c0-0.6-0.2-1.1-0.5-1.5
					c-0.3-0.3-0.8-0.5-1.3-0.5c-0.6,0-1,0.2-1.3,0.5s-0.5,0.8-0.5,1.5v3.4c0,0.1,0,0.2-0.1,0.2s-0.2,0.1-0.2,0.1h-0.5
					c-0.1,0-0.2,0-0.2-0.1s-0.1-0.2-0.1-0.2v-6.1c0-0.1,0-0.2,0.1-0.2s0.2-0.1,0.2-0.1h0.5c0.1,0,0.2,0,0.2,0.1s0.1,0.2,0.1,0.2v0.4
					c0.2-0.3,0.5-0.5,0.8-0.6c0.3-0.2,0.7-0.3,1.2-0.3c0.5,0,1,0.1,1.5,0.4s0.8,0.6,1,1s0.4,1,0.4,1.6v3.6
					C175.5,329.8,175.5,329.9,175.4,329.9z"/>
				<path d="M181.4,325.8v-0.2c0-0.4-0.1-0.8-0.4-1c-0.3-0.2-0.6-0.3-1.1-0.3c-0.3,0-0.6,0.1-0.8,0.2s-0.4,0.3-0.6,0.5
					c-0.1,0.1-0.1,0.1-0.2,0.1c-0.1,0-0.1,0-0.2,0h-0.4c-0.1,0-0.2,0-0.3-0.1c-0.1-0.1-0.1-0.2-0.1-0.2c0-0.3,0.2-0.5,0.4-0.8
					c0.2-0.3,0.5-0.5,0.9-0.6c0.4-0.2,0.8-0.2,1.2-0.2c0.8,0,1.5,0.2,2,0.7c0.5,0.5,0.7,1.1,0.7,1.9v4c0,0.1,0,0.2-0.1,0.2
					s-0.2,0.1-0.2,0.1h-0.5c-0.1,0-0.2,0-0.2-0.1s-0.1-0.2-0.1-0.2v-0.5c-0.1,0.3-0.4,0.6-0.9,0.7c-0.5,0.2-0.9,0.3-1.4,0.3
					c-0.4,0-0.8-0.1-1.2-0.2c-0.3-0.2-0.6-0.4-0.8-0.7s-0.3-0.6-0.3-0.9c0-0.6,0.2-1.2,0.7-1.5s1.1-0.6,1.9-0.7L181.4,325.8z
					 M181.4,326.8l-1.5,0.2c-0.6,0.1-1,0.2-1.3,0.4c-0.3,0.2-0.5,0.4-0.5,0.7c0,0.2,0.1,0.4,0.3,0.6c0.2,0.2,0.5,0.3,0.9,0.3
					c0.6,0,1.1-0.2,1.5-0.5c0.4-0.4,0.6-0.8,0.6-1.4V326.8z"/>
				<path d="M188.3,323.4c0.3,0.2,0.6,0.4,0.8,0.6v-0.4c0-0.1,0-0.2,0.1-0.2c0.1-0.1,0.2-0.1,0.2-0.1h0.5c0.1,0,0.2,0,0.2,0.1
					s0.1,0.2,0.1,0.2v6.3c0,0.9-0.3,1.6-0.8,2.2c-0.5,0.5-1.3,0.8-2.3,0.8c-0.7,0-1.2-0.1-1.6-0.3c-0.4-0.2-0.8-0.4-1-0.7
					c-0.2-0.3-0.3-0.6-0.3-0.9c0-0.1,0-0.2,0.1-0.2c0.1-0.1,0.2-0.1,0.3-0.1h0.4c0.1,0,0.2,0,0.2,0.1c0.1,0.1,0.1,0.1,0.2,0.3
					c0.1,0.2,0.3,0.4,0.5,0.6c0.2,0.2,0.6,0.3,1.2,0.3c1.3,0,2-0.6,2-1.7v-0.8c-0.4,0.6-1.1,0.9-2,0.9c-0.5,0-1-0.1-1.5-0.4
					s-0.8-0.6-1.1-1.1c-0.3-0.5-0.4-1-0.4-1.6l0-0.4l0-0.4c0-0.6,0.2-1.2,0.4-1.6c0.3-0.5,0.6-0.8,1-1.1c0.4-0.3,0.9-0.4,1.5-0.4
					C187.6,323.2,188,323.2,188.3,323.4z M185.9,324.8c-0.3,0.4-0.5,0.9-0.6,1.5l0,0.4l0,0.4c0,0.6,0.2,1.1,0.6,1.5s0.8,0.5,1.3,0.5
					c0.6,0,1-0.2,1.3-0.5c0.3-0.3,0.5-0.8,0.5-1.4c0-0.1,0-0.2,0-0.5s0-0.4,0-0.5c0-0.6-0.2-1.1-0.5-1.4s-0.8-0.5-1.3-0.5
					C186.6,324.3,186.2,324.5,185.9,324.8z"/>
				<path d="M197,324c0.5,0.6,0.8,1.4,0.8,2.4v0.4c0,0.1,0,0.2-0.1,0.2s-0.2,0.1-0.2,0.1H193v0.1c0,0.6,0.2,1,0.5,1.3
					c0.3,0.3,0.8,0.5,1.3,0.5c0.4,0,0.8-0.1,1-0.2c0.2-0.1,0.5-0.3,0.6-0.5c0.1-0.1,0.1-0.1,0.2-0.1c0.1,0,0.1,0,0.2,0h0.4
					c0.1,0,0.2,0,0.3,0.1s0.1,0.2,0.1,0.2c0,0.2-0.2,0.5-0.4,0.7c-0.2,0.2-0.5,0.5-0.9,0.6c-0.4,0.2-0.9,0.3-1.5,0.3
					c-0.6,0-1-0.1-1.5-0.4c-0.4-0.3-0.8-0.6-1-1.1c-0.3-0.5-0.4-1-0.5-1.5c0-0.3,0-0.5,0-0.6s0-0.3,0-0.6c0.1-0.5,0.2-1,0.5-1.5
					c0.3-0.4,0.6-0.8,1-1c0.4-0.3,0.9-0.4,1.5-0.4C195.8,323.2,196.5,323.5,197,324z M196.7,326.1L196.7,326.1c0-0.6-0.2-1-0.5-1.3
					c-0.3-0.3-0.8-0.5-1.3-0.5c-0.5,0-0.9,0.2-1.3,0.5c-0.4,0.3-0.5,0.7-0.5,1.3v0H196.7z"/>
				<path d="M201.3,323.4c0.3-0.2,0.6-0.2,1-0.2c1,0,1.7,0.4,2.1,1.1c0.3-0.4,0.5-0.6,0.9-0.8c0.3-0.2,0.7-0.3,1.3-0.3
					c0.8,0,1.5,0.3,1.9,0.8c0.4,0.5,0.6,1.2,0.6,2.2v3.6c0,0.1,0,0.2-0.1,0.2c-0.1,0.1-0.2,0.1-0.2,0.1h-0.5c-0.1,0-0.2,0-0.2-0.1
					s-0.1-0.2-0.1-0.2v-3.5c0-1.3-0.5-2-1.5-2c-0.5,0-0.8,0.2-1.1,0.5c-0.3,0.3-0.4,0.8-0.4,1.4v3.6c0,0.1,0,0.2-0.1,0.2
					c-0.1,0.1-0.2,0.1-0.2,0.1H204c-0.1,0-0.2,0-0.2-0.1s-0.1-0.2-0.1-0.2v-3.5c0-1.3-0.5-2-1.5-2c-0.5,0-0.8,0.2-1.1,0.5
					c-0.3,0.3-0.4,0.8-0.4,1.4v3.6c0,0.1,0,0.2-0.1,0.2c-0.1,0.1-0.2,0.1-0.2,0.1h-0.5c-0.1,0-0.2,0-0.2-0.1s-0.1-0.2-0.1-0.2v-6.1
					c0-0.1,0-0.2,0.1-0.2s0.2-0.1,0.2-0.1h0.5c0.1,0,0.2,0,0.2,0.1c0.1,0.1,0.1,0.2,0.1,0.2v0.4C200.8,323.8,201,323.6,201.3,323.4z
					"/>
				<path d="M215.8,324c0.5,0.6,0.8,1.4,0.8,2.4v0.4c0,0.1,0,0.2-0.1,0.2s-0.2,0.1-0.2,0.1h-4.5v0.1c0,0.6,0.2,1,0.5,1.3
					s0.8,0.5,1.3,0.5c0.4,0,0.8-0.1,1-0.2c0.2-0.1,0.5-0.3,0.6-0.5c0.1-0.1,0.1-0.1,0.2-0.1c0.1,0,0.1,0,0.2,0h0.4
					c0.1,0,0.2,0,0.3,0.1s0.1,0.2,0.1,0.2c0,0.2-0.2,0.5-0.4,0.7c-0.2,0.2-0.5,0.5-0.9,0.6c-0.4,0.2-0.9,0.3-1.5,0.3
					c-0.6,0-1-0.1-1.5-0.4c-0.4-0.3-0.8-0.6-1-1.1c-0.3-0.5-0.4-1-0.5-1.5c0-0.3,0-0.5,0-0.6s0-0.3,0-0.6c0.1-0.5,0.2-1,0.5-1.5
					c0.3-0.4,0.6-0.8,1-1c0.4-0.3,0.9-0.4,1.5-0.4C214.5,323.2,215.2,323.5,215.8,324z M215.4,326.1L215.4,326.1
					c0-0.6-0.2-1-0.5-1.3c-0.3-0.3-0.8-0.5-1.3-0.5c-0.5,0-0.9,0.2-1.3,0.5c-0.4,0.3-0.5,0.7-0.5,1.3v0H215.4z"/>
				<path d="M224,329.9c-0.1,0.1-0.2,0.1-0.2,0.1h-0.5c-0.1,0-0.2,0-0.2-0.1s-0.1-0.2-0.1-0.2v-3.4c0-0.6-0.2-1.1-0.5-1.5
					c-0.3-0.3-0.8-0.5-1.3-0.5c-0.6,0-1,0.2-1.3,0.5s-0.5,0.8-0.5,1.5v3.4c0,0.1,0,0.2-0.1,0.2s-0.2,0.1-0.2,0.1h-0.5
					c-0.1,0-0.2,0-0.2-0.1s-0.1-0.2-0.1-0.2v-6.1c0-0.1,0-0.2,0.1-0.2s0.2-0.1,0.2-0.1h0.5c0.1,0,0.2,0,0.2,0.1s0.1,0.2,0.1,0.2v0.4
					c0.2-0.3,0.5-0.5,0.8-0.6c0.3-0.2,0.7-0.3,1.2-0.3c0.5,0,1,0.1,1.5,0.4s0.8,0.6,1,1s0.4,1,0.4,1.6v3.6
					C224.1,329.8,224.1,329.9,224,329.9z"/>
				<path d="M227.8,328.6c0.2,0.2,0.4,0.3,0.9,0.3h0.7c0.1,0,0.2,0,0.2,0.1s0.1,0.2,0.1,0.2v0.4c0,0.1,0,0.2-0.1,0.2
					s-0.2,0.1-0.2,0.1h-0.8c-0.7,0-1.3-0.2-1.6-0.6s-0.5-1-0.5-1.7v-3.4h-1c-0.1,0-0.2,0-0.2-0.1s-0.1-0.2-0.1-0.2v-0.4
					c0-0.1,0-0.2,0.1-0.2s0.2-0.1,0.2-0.1h1v-2.1c0-0.1,0-0.2,0.1-0.2s0.2-0.1,0.2-0.1h0.5c0.1,0,0.2,0,0.2,0.1
					c0.1,0.1,0.1,0.2,0.1,0.2v2.1h1.7c0.1,0,0.2,0,0.2,0.1c0.1,0.1,0.1,0.2,0.1,0.2v0.4c0,0.1,0,0.2-0.1,0.2
					c-0.1,0.1-0.2,0.1-0.2,0.1h-1.7v3.4C227.6,328.1,227.7,328.4,227.8,328.6z"/>
			</g>
			<g>
				<rect x="289" y="281" class="st11" width="91" height="40"/>
				<path d="M296,291c0.1,0.1,0.1,0.2,0.1,0.2v0.5c0,0.1,0,0.2-0.1,0.2s-0.2,0.1-0.2,0.1h-5.3c-0.1,0-0.2,0-0.2-0.1
					c-0.1-0.1-0.1-0.2-0.1-0.2v-8.4c0-0.1,0-0.2,0.1-0.2c0.1-0.1,0.2-0.1,0.2-0.1h0.5c0.1,0,0.2,0,0.2,0.1s0.1,0.2,0.1,0.2v7.6h4.4
					C295.9,290.9,295.9,290.9,296,291z"/>
				<path d="M301.6,287.8v-0.2c0-0.4-0.1-0.8-0.4-1c-0.3-0.2-0.6-0.3-1.1-0.3c-0.3,0-0.6,0.1-0.8,0.2s-0.4,0.3-0.6,0.5
					c-0.1,0.1-0.1,0.1-0.2,0.1c-0.1,0-0.1,0-0.2,0h-0.4c-0.1,0-0.2,0-0.3-0.1c-0.1-0.1-0.1-0.2-0.1-0.2c0-0.3,0.2-0.5,0.4-0.8
					c0.2-0.3,0.5-0.5,0.9-0.6c0.4-0.2,0.8-0.2,1.2-0.2c0.8,0,1.5,0.2,2,0.7c0.5,0.5,0.7,1.1,0.7,1.9v4c0,0.1,0,0.2-0.1,0.2
					s-0.2,0.1-0.2,0.1H302c-0.1,0-0.2,0-0.2-0.1s-0.1-0.2-0.1-0.2v-0.5c-0.1,0.3-0.4,0.6-0.9,0.7c-0.5,0.2-0.9,0.3-1.4,0.3
					c-0.4,0-0.8-0.1-1.2-0.2c-0.3-0.2-0.6-0.4-0.8-0.7s-0.3-0.6-0.3-0.9c0-0.6,0.2-1.2,0.7-1.5s1.1-0.6,1.9-0.7L301.6,287.8z
					 M301.6,288.8l-1.5,0.2c-0.6,0.1-1,0.2-1.3,0.4c-0.3,0.2-0.5,0.4-0.5,0.7c0,0.2,0.1,0.4,0.3,0.6c0.2,0.2,0.5,0.3,0.9,0.3
					c0.6,0,1.1-0.2,1.5-0.5c0.4-0.4,0.6-0.8,0.6-1.4V288.8z"/>
				<path d="M310.6,291.9c-0.1,0.1-0.2,0.1-0.2,0.1h-0.5c-0.1,0-0.2,0-0.2-0.1s-0.1-0.2-0.1-0.2v-3.4c0-0.6-0.2-1.1-0.5-1.5
					c-0.3-0.3-0.8-0.5-1.3-0.5c-0.6,0-1,0.2-1.3,0.5s-0.5,0.8-0.5,1.5v3.4c0,0.1,0,0.2-0.1,0.2c-0.1,0.1-0.2,0.1-0.2,0.1H305
					c-0.1,0-0.2,0-0.2-0.1s-0.1-0.2-0.1-0.2v-6.1c0-0.1,0-0.2,0.1-0.2s0.2-0.1,0.2-0.1h0.5c0.1,0,0.2,0,0.2,0.1
					c0.1,0.1,0.1,0.2,0.1,0.2v0.4c0.2-0.3,0.5-0.5,0.8-0.6c0.3-0.2,0.7-0.3,1.2-0.3c0.5,0,1,0.1,1.5,0.4s0.8,0.6,1,1s0.4,1,0.4,1.6
					v3.6C310.7,291.8,310.6,291.9,310.6,291.9z"/>
				<path d="M317.1,283.2c0-0.1,0-0.2,0.1-0.2c0.1-0.1,0.2-0.1,0.2-0.1h0.5c0.1,0,0.2,0,0.2,0.1s0.1,0.2,0.1,0.2v8.5
					c0,0.1,0,0.2-0.1,0.2s-0.2,0.1-0.2,0.1h-0.5c-0.1,0-0.2,0-0.2-0.1c-0.1-0.1-0.1-0.2-0.1-0.2v-0.4c-0.4,0.6-1.1,0.9-2,0.9
					c-0.5,0-1-0.1-1.5-0.4s-0.8-0.6-1.1-1.1c-0.3-0.5-0.4-1-0.4-1.6l0-0.4l0-0.4c0-0.6,0.2-1.2,0.4-1.6c0.3-0.5,0.6-0.8,1-1.1
					c0.4-0.3,0.9-0.4,1.5-0.4c0.5,0,0.9,0.1,1.2,0.3c0.3,0.2,0.6,0.4,0.8,0.6V283.2z M316.6,286.8c-0.3-0.3-0.8-0.5-1.3-0.5
					c-0.6,0-1,0.2-1.3,0.5c-0.3,0.4-0.5,0.9-0.6,1.5l0,0.4l0,0.4c0,0.6,0.2,1.1,0.6,1.5s0.8,0.5,1.3,0.5c0.5,0,1-0.2,1.3-0.5
					c0.3-0.3,0.5-0.8,0.6-1.3c0-0.1,0-0.3,0-0.5c0-0.3,0-0.4,0-0.5C317.1,287.6,316.9,287.1,316.6,286.8z"/>
				<path d="M293.7,304.4c0.1,0.1,0.1,0.2,0.1,0.2v0.4c0,0.1,0,0.2-0.1,0.2s-0.2,0.1-0.2,0.1h-0.8c-0.5,0-0.9,0.1-1.1,0.4
					c-0.3,0.3-0.4,0.6-0.4,1.1v3.8c0,0.1,0,0.2-0.1,0.2c-0.1,0.1-0.2,0.1-0.2,0.1h-0.5c-0.1,0-0.2,0-0.2-0.1s-0.1-0.2-0.1-0.2v-6.1
					c0-0.1,0-0.2,0.1-0.2s0.2-0.1,0.2-0.1h0.5c0.1,0,0.2,0,0.2,0.1c0.1,0.1,0.1,0.2,0.1,0.2v0.4c0.2-0.3,0.4-0.5,0.6-0.6
					c0.2-0.1,0.6-0.2,0.9-0.2h0.7C293.5,304.3,293.6,304.3,293.7,304.4z"/>
				<path d="M299.7,305c0.5,0.6,0.8,1.4,0.8,2.4v0.4c0,0.1,0,0.2-0.1,0.2s-0.2,0.1-0.2,0.1h-4.5v0.1c0,0.6,0.2,1,0.5,1.3
					c0.3,0.3,0.8,0.5,1.3,0.5c0.4,0,0.8-0.1,1-0.2c0.2-0.1,0.5-0.3,0.6-0.5c0.1-0.1,0.1-0.1,0.2-0.1c0.1,0,0.1,0,0.2,0h0.4
					c0.1,0,0.2,0,0.3,0.1s0.1,0.2,0.1,0.2c0,0.2-0.2,0.5-0.4,0.7c-0.2,0.2-0.5,0.5-0.9,0.6c-0.4,0.2-0.9,0.3-1.5,0.3
					c-0.6,0-1-0.1-1.5-0.4c-0.4-0.3-0.8-0.6-1-1.1c-0.3-0.5-0.4-1-0.5-1.5c0-0.3,0-0.5,0-0.6s0-0.3,0-0.6c0.1-0.5,0.2-1,0.5-1.5
					c0.3-0.4,0.6-0.8,1-1c0.4-0.3,0.9-0.4,1.5-0.4C298.4,304.2,299.2,304.5,299.7,305z M299.4,307.1L299.4,307.1
					c0-0.6-0.2-1-0.5-1.3c-0.3-0.3-0.8-0.5-1.3-0.5c-0.5,0-0.9,0.2-1.3,0.5c-0.4,0.3-0.5,0.7-0.5,1.3v0H299.4z"/>
				<path d="M303.9,304.4c0.3-0.2,0.6-0.2,1-0.2c1,0,1.7,0.4,2.1,1.1c0.3-0.4,0.5-0.6,0.9-0.8c0.3-0.2,0.7-0.3,1.3-0.3
					c0.8,0,1.5,0.3,1.9,0.8c0.4,0.5,0.6,1.2,0.6,2.2v3.6c0,0.1,0,0.2-0.1,0.2c-0.1,0.1-0.2,0.1-0.2,0.1h-0.5c-0.1,0-0.2,0-0.2-0.1
					s-0.1-0.2-0.1-0.2v-3.5c0-1.3-0.5-2-1.5-2c-0.5,0-0.8,0.2-1.1,0.5c-0.3,0.3-0.4,0.8-0.4,1.4v3.6c0,0.1,0,0.2-0.1,0.2
					c-0.1,0.1-0.2,0.1-0.2,0.1h-0.5c-0.1,0-0.2,0-0.2-0.1s-0.1-0.2-0.1-0.2v-3.5c0-1.3-0.5-2-1.5-2c-0.5,0-0.8,0.2-1.1,0.5
					c-0.3,0.3-0.4,0.8-0.4,1.4v3.6c0,0.1,0,0.2-0.1,0.2c-0.1,0.1-0.2,0.1-0.2,0.1h-0.5c-0.1,0-0.2,0-0.2-0.1s-0.1-0.2-0.1-0.2v-6.1
					c0-0.1,0-0.2,0.1-0.2s0.2-0.1,0.2-0.1h0.5c0.1,0,0.2,0,0.2,0.1c0.1,0.1,0.1,0.2,0.1,0.2v0.4
					C303.4,304.8,303.7,304.6,303.9,304.4z"/>
				<path d="M318.4,305c0.5,0.6,0.8,1.4,0.8,2.4v0.4c0,0.1,0,0.2-0.1,0.2s-0.2,0.1-0.2,0.1h-4.5v0.1c0,0.6,0.2,1,0.5,1.3
					s0.8,0.5,1.3,0.5c0.4,0,0.8-0.1,1-0.2c0.2-0.1,0.5-0.3,0.6-0.5c0.1-0.1,0.1-0.1,0.2-0.1c0.1,0,0.1,0,0.2,0h0.4
					c0.1,0,0.2,0,0.3,0.1s0.1,0.2,0.1,0.2c0,0.2-0.2,0.5-0.4,0.7c-0.2,0.2-0.5,0.5-0.9,0.6c-0.4,0.2-0.9,0.3-1.5,0.3
					c-0.6,0-1-0.1-1.5-0.4c-0.4-0.3-0.8-0.6-1-1.1c-0.3-0.5-0.4-1-0.5-1.5c0-0.3,0-0.5,0-0.6s0-0.3,0-0.6c0.1-0.5,0.2-1,0.5-1.5
					c0.3-0.4,0.6-0.8,1-1c0.4-0.3,0.9-0.4,1.5-0.4C317.2,304.2,317.9,304.5,318.4,305z M318.1,307.1L318.1,307.1
					c0-0.6-0.2-1-0.5-1.3c-0.3-0.3-0.8-0.5-1.3-0.5c-0.5,0-0.9,0.2-1.3,0.5c-0.4,0.3-0.5,0.7-0.5,1.3v0H318.1z"/>
				<path d="M325.5,302.2c0-0.1,0-0.2,0.1-0.2s0.2-0.1,0.2-0.1h0.5c0.1,0,0.2,0,0.2,0.1s0.1,0.2,0.1,0.2v8.5c0,0.1,0,0.2-0.1,0.2
					s-0.2,0.1-0.2,0.1h-0.5c-0.1,0-0.2,0-0.2-0.1s-0.1-0.2-0.1-0.2v-0.4c-0.4,0.6-1.1,0.9-2,0.9c-0.5,0-1-0.1-1.5-0.4
					c-0.4-0.3-0.8-0.6-1.1-1.1s-0.4-1-0.4-1.6l0-0.4l0-0.4c0-0.6,0.2-1.2,0.4-1.6s0.6-0.8,1-1.1c0.4-0.3,0.9-0.4,1.5-0.4
					c0.5,0,0.9,0.1,1.2,0.3s0.6,0.4,0.8,0.6V302.2z M324.9,305.8c-0.3-0.3-0.8-0.5-1.3-0.5c-0.6,0-1,0.2-1.3,0.5
					c-0.3,0.4-0.5,0.9-0.6,1.5l0,0.4l0,0.4c0,0.6,0.2,1.1,0.6,1.5c0.3,0.4,0.8,0.5,1.3,0.5c0.5,0,1-0.2,1.3-0.5s0.5-0.8,0.6-1.3
					c0-0.1,0-0.3,0-0.5c0-0.3,0-0.4,0-0.5C325.5,306.6,325.3,306.1,324.9,305.8z"/>
				<path d="M329.8,303.2c-0.1,0.1-0.2,0.1-0.2,0.1h-0.7c-0.1,0-0.2,0-0.2-0.1c-0.1-0.1-0.1-0.2-0.1-0.2v-0.7c0-0.1,0-0.2,0.1-0.2
					c0.1-0.1,0.2-0.1,0.2-0.1h0.7c0.1,0,0.2,0,0.2,0.1s0.1,0.2,0.1,0.2v0.7C329.9,303,329.8,303.1,329.8,303.2z M329.6,310.9
					c-0.1,0.1-0.2,0.1-0.2,0.1h-0.5c-0.1,0-0.2,0-0.2-0.1s-0.1-0.2-0.1-0.2v-6.1c0-0.1,0-0.2,0.1-0.2s0.2-0.1,0.2-0.1h0.5
					c0.1,0,0.2,0,0.2,0.1s0.1,0.2,0.1,0.2v6.1C329.7,310.8,329.7,310.9,329.6,310.9z"/>
				<path d="M335.6,306.8v-0.2c0-0.4-0.1-0.8-0.4-1c-0.3-0.2-0.6-0.3-1.1-0.3c-0.3,0-0.6,0.1-0.8,0.2s-0.4,0.3-0.6,0.5
					c-0.1,0.1-0.1,0.1-0.2,0.1c-0.1,0-0.1,0-0.2,0h-0.4c-0.1,0-0.2,0-0.3-0.1c-0.1-0.1-0.1-0.2-0.1-0.2c0-0.3,0.2-0.5,0.4-0.8
					c0.2-0.3,0.5-0.5,0.9-0.6c0.4-0.2,0.8-0.2,1.2-0.2c0.8,0,1.5,0.2,2,0.7c0.5,0.5,0.7,1.1,0.7,1.9v4c0,0.1,0,0.2-0.1,0.2
					s-0.2,0.1-0.2,0.1H336c-0.1,0-0.2,0-0.2-0.1s-0.1-0.2-0.1-0.2v-0.5c-0.1,0.3-0.4,0.6-0.9,0.7c-0.5,0.2-0.9,0.3-1.4,0.3
					c-0.4,0-0.8-0.1-1.2-0.2c-0.3-0.2-0.6-0.4-0.8-0.7s-0.3-0.6-0.3-0.9c0-0.6,0.2-1.2,0.7-1.5s1.1-0.6,1.9-0.7L335.6,306.8z
					 M335.6,307.8l-1.5,0.2c-0.6,0.1-1,0.2-1.3,0.4c-0.3,0.2-0.5,0.4-0.5,0.7c0,0.2,0.1,0.4,0.3,0.6c0.2,0.2,0.5,0.3,0.9,0.3
					c0.6,0,1.1-0.2,1.5-0.5c0.4-0.4,0.6-0.8,0.6-1.4V307.8z"/>
				<path d="M340.6,309.6c0.2,0.2,0.4,0.3,0.9,0.3h0.7c0.1,0,0.2,0,0.2,0.1s0.1,0.2,0.1,0.2v0.4c0,0.1,0,0.2-0.1,0.2
					s-0.2,0.1-0.2,0.1h-0.8c-0.7,0-1.3-0.2-1.6-0.6s-0.5-1-0.5-1.7v-3.4h-1c-0.1,0-0.2,0-0.2-0.1s-0.1-0.2-0.1-0.2v-0.4
					c0-0.1,0-0.2,0.1-0.2s0.2-0.1,0.2-0.1h1v-2.1c0-0.1,0-0.2,0.1-0.2s0.2-0.1,0.2-0.1h0.5c0.1,0,0.2,0,0.2,0.1s0.1,0.2,0.1,0.2v2.1
					h1.7c0.1,0,0.2,0,0.2,0.1s0.1,0.2,0.1,0.2v0.4c0,0.1,0,0.2-0.1,0.2s-0.2,0.1-0.2,0.1h-1.7v3.4
					C340.4,309.1,340.5,309.4,340.6,309.6z"/>
				<path d="M345,303.2c-0.1,0.1-0.2,0.1-0.2,0.1h-0.7c-0.1,0-0.2,0-0.2-0.1s-0.1-0.2-0.1-0.2v-0.7c0-0.1,0-0.2,0.1-0.2
					s0.2-0.1,0.2-0.1h0.7c0.1,0,0.2,0,0.2,0.1s0.1,0.2,0.1,0.2v0.7C345.1,303,345.1,303.1,345,303.2z M344.9,310.9
					c-0.1,0.1-0.2,0.1-0.2,0.1h-0.5c-0.1,0-0.2,0-0.2-0.1s-0.1-0.2-0.1-0.2v-6.1c0-0.1,0-0.2,0.1-0.2s0.2-0.1,0.2-0.1h0.5
					c0.1,0,0.2,0,0.2,0.1c0.1,0.1,0.1,0.2,0.1,0.2v6.1C345,310.8,345,310.9,344.9,310.9z"/>
				<path d="M352.8,307.7c0,0.2,0,0.4,0,0.6c-0.1,0.9-0.4,1.6-0.9,2.1s-1.3,0.8-2.2,0.8c-0.9,0-1.6-0.3-2.2-0.8s-0.8-1.2-0.9-2.1
					c0-0.1,0-0.3,0-0.6c0-0.3,0-0.5,0-0.6c0.1-0.9,0.4-1.6,0.9-2.1c0.5-0.5,1.3-0.8,2.2-0.8c0.9,0,1.6,0.3,2.2,0.8
					c0.5,0.5,0.8,1.2,0.9,2.1C352.8,307.2,352.8,307.5,352.8,307.7z M351,305.8c-0.3-0.3-0.8-0.5-1.3-0.5c-0.6,0-1,0.2-1.3,0.5
					s-0.5,0.8-0.6,1.3c0,0.1,0,0.3,0,0.6c0,0.3,0,0.4,0,0.5c0.1,0.6,0.2,1,0.6,1.3s0.8,0.5,1.3,0.5c0.6,0,1-0.2,1.3-0.5
					s0.5-0.8,0.6-1.3c0-0.2,0-0.4,0-0.5c0-0.2,0-0.4,0-0.6C351.5,306.6,351.4,306.1,351,305.8z"/>
				<path d="M360.3,310.9c-0.1,0.1-0.2,0.1-0.2,0.1h-0.5c-0.1,0-0.2,0-0.2-0.1s-0.1-0.2-0.1-0.2v-3.4c0-0.6-0.2-1.1-0.5-1.5
					c-0.3-0.3-0.8-0.5-1.3-0.5c-0.6,0-1,0.2-1.3,0.5s-0.5,0.8-0.5,1.5v3.4c0,0.1,0,0.2-0.1,0.2s-0.2,0.1-0.2,0.1h-0.5
					c-0.1,0-0.2,0-0.2-0.1s-0.1-0.2-0.1-0.2v-6.1c0-0.1,0-0.2,0.1-0.2s0.2-0.1,0.2-0.1h0.5c0.1,0,0.2,0,0.2,0.1s0.1,0.2,0.1,0.2v0.4
					c0.2-0.3,0.5-0.5,0.8-0.6c0.3-0.2,0.7-0.3,1.2-0.3c0.5,0,1,0.1,1.5,0.4s0.8,0.6,1,1s0.4,1,0.4,1.6v3.6
					C360.4,310.8,360.4,310.9,360.3,310.9z"/>
			</g>
		</g>
		<g>
			<g>
				<path d="M222.7,187.5c0.4,0.4,1,0.7,1.8,0.7c0.8,0,1.3-0.2,1.7-0.5c0.4-0.3,0.6-0.8,0.7-1.3c0-0.1,0.1-0.2,0.1-0.2
					c0.1-0.1,0.1-0.1,0.2-0.1h0.6c0.1,0,0.1,0,0.2,0.1c0.1,0.1,0.1,0.1,0.1,0.2c0,0.4-0.2,0.9-0.4,1.3s-0.7,0.8-1.2,1.2
					c-0.5,0.3-1.2,0.5-2,0.5c-0.7,0-1.4-0.2-1.9-0.5c-0.5-0.3-1-0.7-1.3-1.3c-0.3-0.5-0.5-1.1-0.5-1.8c0-0.3,0-0.6,0-1.2
					s0-0.9,0-1.2c0-0.7,0.2-1.3,0.5-1.8s0.7-1,1.3-1.3c0.5-0.3,1.2-0.5,1.9-0.5c0.8,0,1.5,0.2,2,0.5c0.5,0.3,0.9,0.7,1.2,1.2
					s0.4,0.9,0.4,1.3c0,0.1,0,0.1-0.1,0.2c-0.1,0.1-0.1,0.1-0.2,0.1h-0.6c-0.1,0-0.1,0-0.2-0.1c-0.1-0.1-0.1-0.1-0.1-0.2
					c-0.1-0.5-0.4-0.9-0.7-1.3c-0.4-0.3-0.9-0.5-1.7-0.5c-0.8,0-1.3,0.2-1.8,0.7c-0.4,0.4-0.6,1-0.7,1.8c0,0.3,0,0.6,0,1.1
					s0,0.8,0,1.1C222,186.5,222.3,187.1,222.7,187.5z"/>
				<path d="M235.6,185.9c0,0.2,0,0.4,0,0.6c-0.1,0.9-0.4,1.6-0.9,2.1c-0.5,0.5-1.3,0.8-2.2,0.8s-1.6-0.3-2.2-0.8
					c-0.5-0.5-0.8-1.2-0.9-2.1c0-0.1,0-0.3,0-0.6c0-0.3,0-0.5,0-0.6c0.1-0.9,0.4-1.6,0.9-2.1c0.5-0.5,1.3-0.8,2.2-0.8
					s1.6,0.3,2.2,0.8s0.8,1.2,0.9,2.1C235.6,185.4,235.6,185.6,235.6,185.9z M233.9,184c-0.3-0.3-0.8-0.5-1.3-0.5
					c-0.6,0-1,0.2-1.3,0.5s-0.5,0.8-0.6,1.3c0,0.1,0,0.3,0,0.6c0,0.3,0,0.4,0,0.5c0.1,0.6,0.2,1,0.6,1.3s0.8,0.5,1.3,0.5
					c0.6,0,1-0.2,1.3-0.5s0.5-0.8,0.6-1.3c0-0.2,0-0.4,0-0.5c0-0.2,0-0.4,0-0.6C234.4,184.7,234.2,184.3,233.9,184z"/>
				<path d="M239.1,182.6c0.3-0.2,0.6-0.2,1-0.2c1,0,1.7,0.4,2.1,1.1c0.3-0.4,0.5-0.6,0.9-0.8c0.3-0.2,0.7-0.3,1.3-0.3
					c0.8,0,1.5,0.3,1.9,0.8c0.4,0.5,0.6,1.2,0.6,2.2v3.6c0,0.1,0,0.2-0.1,0.2s-0.2,0.1-0.2,0.1h-0.5c-0.1,0-0.2,0-0.2-0.1
					s-0.1-0.2-0.1-0.2v-3.5c0-1.3-0.5-2-1.5-2c-0.5,0-0.8,0.2-1.1,0.5c-0.3,0.3-0.4,0.8-0.4,1.4v3.6c0,0.1,0,0.2-0.1,0.2
					s-0.2,0.1-0.2,0.1h-0.5c-0.1,0-0.2,0-0.2-0.1s-0.1-0.2-0.1-0.2v-3.5c0-1.3-0.5-2-1.5-2c-0.5,0-0.8,0.2-1.1,0.5
					c-0.3,0.3-0.4,0.8-0.4,1.4v3.6c0,0.1,0,0.2-0.1,0.2s-0.2,0.1-0.2,0.1h-0.5c-0.1,0-0.2,0-0.2-0.1s-0.1-0.2-0.1-0.2v-6.1
					c0-0.1,0-0.2,0.1-0.2s0.2-0.1,0.2-0.1h0.5c0.1,0,0.2,0,0.2,0.1s0.1,0.2,0.1,0.2v0.4C238.6,183,238.8,182.7,239.1,182.6z"/>
				<path d="M249.9,191.3c0,0.1,0,0.2-0.1,0.2s-0.2,0.1-0.2,0.1h-0.5c-0.1,0-0.2,0-0.2-0.1s-0.1-0.2-0.1-0.2v-8.5
					c0-0.1,0-0.2,0.1-0.2s0.2-0.1,0.2-0.1h0.5c0.1,0,0.2,0,0.2,0.1s0.1,0.2,0.1,0.2v0.4c0.4-0.6,1.1-0.9,2-0.9c0.5,0,1,0.1,1.5,0.4
					c0.4,0.3,0.8,0.6,1.1,1.1c0.3,0.5,0.4,1,0.4,1.6c0,0.1,0,0.2,0,0.4c0,0.2,0,0.3,0,0.4c0,0.6-0.2,1.2-0.4,1.6s-0.6,0.8-1,1.1
					c-0.4,0.3-0.9,0.4-1.5,0.4c-0.5,0-0.9-0.1-1.2-0.3c-0.3-0.2-0.6-0.4-0.8-0.6V191.3z M250.5,187.7c0.3,0.3,0.8,0.5,1.3,0.5
					c0.6,0,1-0.2,1.3-0.5c0.3-0.4,0.5-0.9,0.6-1.5c0-0.1,0-0.2,0-0.4s0-0.3,0-0.4c0-0.6-0.2-1.1-0.6-1.5c-0.3-0.4-0.8-0.5-1.3-0.5
					c-0.5,0-1,0.2-1.3,0.5s-0.5,0.8-0.6,1.3l0,0.5l0,0.5C249.9,186.9,250.1,187.4,250.5,187.7z"/>
				<path d="M262.4,185.9c0,0.2,0,0.4,0,0.6c-0.1,0.9-0.4,1.6-0.9,2.1c-0.5,0.5-1.3,0.8-2.2,0.8s-1.6-0.3-2.2-0.8
					c-0.5-0.5-0.8-1.2-0.9-2.1c0-0.1,0-0.3,0-0.6c0-0.3,0-0.5,0-0.6c0.1-0.9,0.4-1.6,0.9-2.1c0.5-0.5,1.3-0.8,2.2-0.8
					s1.6,0.3,2.2,0.8s0.8,1.2,0.9,2.1C262.4,185.4,262.4,185.6,262.4,185.9z M260.6,184c-0.3-0.3-0.8-0.5-1.3-0.5
					c-0.6,0-1,0.2-1.3,0.5s-0.5,0.8-0.6,1.3c0,0.1,0,0.3,0,0.6c0,0.3,0,0.4,0,0.5c0.1,0.6,0.2,1,0.6,1.3s0.8,0.5,1.3,0.5
					c0.6,0,1-0.2,1.3-0.5s0.5-0.8,0.6-1.3c0-0.2,0-0.4,0-0.5c0-0.2,0-0.4,0-0.6C261.1,184.7,260.9,184.3,260.6,184z"/>
				<path d="M263.7,184.3c0-0.4,0.1-0.7,0.3-1c0.2-0.3,0.5-0.5,0.9-0.7s0.8-0.3,1.4-0.3c0.5,0,1,0.1,1.4,0.2
					c0.4,0.2,0.7,0.4,0.9,0.6c0.2,0.2,0.3,0.5,0.3,0.7c0,0.1,0,0.2-0.1,0.2c-0.1,0.1-0.2,0.1-0.2,0.1H268c-0.2,0-0.3-0.1-0.4-0.2
					c-0.3-0.3-0.7-0.5-1.4-0.5c-0.4,0-0.7,0.1-1,0.2s-0.4,0.4-0.4,0.6c0,0.2,0.1,0.4,0.2,0.5c0.1,0.1,0.3,0.2,0.5,0.3
					c0.2,0.1,0.7,0.2,1.3,0.3c0.8,0.2,1.3,0.4,1.6,0.8c0.3,0.3,0.5,0.8,0.5,1.2c0,0.4-0.1,0.7-0.3,1c-0.2,0.3-0.5,0.5-0.9,0.7
					c-0.4,0.2-0.9,0.3-1.4,0.3c-0.5,0-1-0.1-1.4-0.3c-0.4-0.2-0.7-0.4-1-0.6c-0.2-0.2-0.3-0.5-0.3-0.7c0-0.1,0-0.2,0.1-0.2
					c0.1-0.1,0.2-0.1,0.2-0.1h0.5c0.1,0,0.1,0,0.2,0c0.1,0,0.1,0.1,0.2,0.1c0.3,0.4,0.8,0.6,1.5,0.6c0.4,0,0.8-0.1,1.1-0.3
					s0.5-0.4,0.5-0.6c0-0.2-0.1-0.4-0.2-0.5c-0.2-0.1-0.4-0.2-0.7-0.3c-0.3-0.1-0.7-0.2-1.3-0.3C264.3,186,263.7,185.3,263.7,184.3z
					"/>
				<path d="M272.6,187.8c0.2,0.2,0.4,0.3,0.9,0.3h0.7c0.1,0,0.2,0,0.2,0.1c0.1,0.1,0.1,0.2,0.1,0.2v0.4c0,0.1,0,0.2-0.1,0.2
					c-0.1,0.1-0.2,0.1-0.2,0.1h-0.8c-0.7,0-1.3-0.2-1.6-0.6s-0.5-1-0.5-1.7v-3.4h-1c-0.1,0-0.2,0-0.2-0.1s-0.1-0.2-0.1-0.2v-0.4
					c0-0.1,0-0.2,0.1-0.2s0.2-0.1,0.2-0.1h1v-2.1c0-0.1,0-0.2,0.1-0.2s0.2-0.1,0.2-0.1h0.5c0.1,0,0.2,0,0.2,0.1s0.1,0.2,0.1,0.2v2.1
					h1.7c0.1,0,0.2,0,0.2,0.1s0.1,0.2,0.1,0.2v0.4c0,0.1,0,0.2-0.1,0.2s-0.2,0.1-0.2,0.1h-1.7v3.4
					C272.4,187.3,272.5,187.6,272.6,187.8z"/>
			</g>
		</g>
		<g>
			<path class="st15" d="M200,209.6c-8.1,0-14.6-6.6-14.6-14.6s6.6-14.6,14.6-14.6s14.6,6.6,14.6,14.6S208.1,209.6,200,209.6z"/>
			<g>
				<path class="st13" d="M200,210.9c-8.8,0-15.9-7.1-15.9-15.9s7.1-15.9,15.9-15.9s15.9,7.1,15.9,15.9S208.8,210.9,200,210.9z
					 M200,181.1c-7.7,0-13.9,6.2-13.9,13.9s6.2,13.9,13.9,13.9s13.9-6.2,13.9-13.9S207.7,181.1,200,181.1z"/>
				<path class="st13" d="M200,205.8c-5.9,0-10.8-4.8-10.8-10.8s4.8-10.8,10.8-10.8s10.8,4.8,10.8,10.8S205.9,205.8,200,205.8z
					 M200,186.2c-4.8,0-8.8,3.9-8.8,8.8s3.9,8.8,8.8,8.8s8.8-3.9,8.8-8.8S204.8,186.2,200,186.2z"/>
				<path class="st13" d="M200,200.7c-3.1,0-5.7-2.5-5.7-5.7c0-3.1,2.5-5.7,5.7-5.7s5.7,2.5,5.7,5.7
					C205.7,198.1,203.1,200.7,200,200.7z M200,191.3c-2,0-3.7,1.6-3.7,3.7c0,2,1.6,3.7,3.7,3.7s3.7-1.6,3.7-3.7
					C203.7,193,202,191.3,200,191.3z"/>
			</g>
		</g>
	</g>
	<g>
		<path class="st13" d="M130,300.9c-5.5,0-10-4.5-10-10s4.5-10,10-10s10,4.5,10,10S135.5,300.9,130,300.9z"/>
		<g>
			<path class="st12" d="M202.6,215v4.4c0,5.5-4.5,10-10,10"/>
			<path class="st12" d="M192.6,229.4h-55c-2.8,0-5,2.2-5,5V288"/>
			<path class="st12" d="M137.4,224.2c-5.5,0-10,4.5-10,10V288"/>
			<path class="st12" d="M197.4,214.7v4.6c0,2.8-2.2,5-5,5h-55"/>
		</g>
	</g>
	<g>
		<path class="st13" d="M269,300.9c5.5,0,10-4.5,10-10s-4.5-10-10-10s-10,4.5-10,10S263.5,300.9,269,300.9z"/>
		<g>
			<path class="st12" d="M197.4,215v4.4c0,5.5,4.5,10,10,10"/>
			<path class="st12" d="M207.4,229.4h54c2.8,0,5,2.2,5,5V288"/>
			<path class="st12" d="M261.6,224.2c5.5,0,10,4.5,10,10V288"/>
			<path class="st12" d="M202.6,214.7v4.6c0,2.8,2.2,5,5,5h54"/>
		</g>
	</g>
	<g>
		<rect y="100" width="400" height="20"/>
		<g>
			<g>
				<path class="st15" d="M87,106.1c0.1,0.1,0.1,0.2,0.1,0.2v0.5c0,0.1,0,0.2-0.1,0.2c-0.1,0.1-0.2,0.1-0.2,0.1h-2.4v7.6
					c0,0.1,0,0.2-0.1,0.2S84.1,115,84,115h-0.5c-0.1,0-0.2,0-0.2-0.1s-0.1-0.2-0.1-0.2v-7.6h-2.4c-0.1,0-0.2,0-0.2-0.1
					s-0.1-0.2-0.1-0.2v-0.5c0-0.1,0-0.2,0.1-0.2s0.2-0.1,0.2-0.1h6.1C86.9,106,87,106,87,106.1z"/>
				<path class="st15" d="M91,108.4c0.1,0.1,0.1,0.2,0.1,0.2v0.4c0,0.1,0,0.2-0.1,0.2s-0.2,0.1-0.2,0.1H90c-0.5,0-0.9,0.1-1.1,0.4
					c-0.3,0.3-0.4,0.6-0.4,1.1v3.8c0,0.1,0,0.2-0.1,0.2c-0.1,0.1-0.2,0.1-0.2,0.1h-0.5c-0.1,0-0.2,0-0.2-0.1s-0.1-0.2-0.1-0.2v-6.1
					c0-0.1,0-0.2,0.1-0.2s0.2-0.1,0.2-0.1h0.5c0.1,0,0.2,0,0.2,0.1c0.1,0.1,0.1,0.2,0.1,0.2v0.4c0.2-0.3,0.4-0.5,0.6-0.6
					c0.2-0.1,0.6-0.2,0.9-0.2h0.7C90.9,108.3,90.9,108.3,91,108.4z"/>
				<path class="st15" d="M97.1,109c0.5,0.6,0.8,1.4,0.8,2.4v0.4c0,0.1,0,0.2-0.1,0.2s-0.2,0.1-0.2,0.1h-4.5v0.1
					c0,0.6,0.2,1,0.5,1.3c0.3,0.3,0.8,0.5,1.3,0.5c0.4,0,0.8-0.1,1-0.2c0.2-0.1,0.5-0.3,0.6-0.5c0.1-0.1,0.1-0.1,0.2-0.1
					c0.1,0,0.1,0,0.2,0h0.4c0.1,0,0.2,0,0.3,0.1s0.1,0.2,0.1,0.2c0,0.2-0.2,0.5-0.4,0.7c-0.2,0.2-0.5,0.5-0.9,0.6
					c-0.4,0.2-0.9,0.3-1.5,0.3c-0.6,0-1-0.1-1.5-0.4c-0.4-0.3-0.8-0.6-1-1.1c-0.3-0.5-0.4-1-0.5-1.5c0-0.3,0-0.5,0-0.6s0-0.3,0-0.6
					c0.1-0.5,0.2-1,0.5-1.5c0.3-0.4,0.6-0.8,1-1c0.4-0.3,0.9-0.4,1.5-0.4C95.8,108.2,96.5,108.5,97.1,109z M96.7,111.1L96.7,111.1
					c0-0.6-0.2-1-0.5-1.3c-0.3-0.3-0.8-0.5-1.3-0.5c-0.5,0-0.9,0.2-1.3,0.5s-0.5,0.7-0.5,1.3v0H96.7z"/>
				<path class="st15" d="M103.5,110.8v-0.2c0-0.4-0.1-0.8-0.4-1s-0.6-0.3-1.1-0.3c-0.3,0-0.6,0.1-0.8,0.2c-0.2,0.1-0.4,0.3-0.6,0.5
					c-0.1,0.1-0.1,0.1-0.2,0.1c-0.1,0-0.1,0-0.2,0h-0.4c-0.1,0-0.2,0-0.3-0.1s-0.1-0.2-0.1-0.2c0-0.3,0.2-0.5,0.4-0.8
					c0.2-0.3,0.5-0.5,0.9-0.6c0.4-0.2,0.8-0.2,1.2-0.2c0.8,0,1.5,0.2,2,0.7c0.5,0.5,0.7,1.1,0.7,1.9v4c0,0.1,0,0.2-0.1,0.2
					s-0.2,0.1-0.2,0.1h-0.5c-0.1,0-0.2,0-0.2-0.1c-0.1-0.1-0.1-0.2-0.1-0.2v-0.5c-0.1,0.3-0.4,0.6-0.9,0.7c-0.5,0.2-0.9,0.3-1.4,0.3
					c-0.4,0-0.8-0.1-1.2-0.2c-0.3-0.2-0.6-0.4-0.8-0.7s-0.3-0.6-0.3-0.9c0-0.6,0.2-1.2,0.7-1.5c0.5-0.4,1.1-0.6,1.9-0.7L103.5,110.8
					z M103.5,111.8l-1.5,0.2c-0.6,0.1-1,0.2-1.3,0.4s-0.5,0.4-0.5,0.7c0,0.2,0.1,0.4,0.3,0.6c0.2,0.2,0.5,0.3,0.9,0.3
					c0.6,0,1.1-0.2,1.5-0.5c0.4-0.4,0.6-0.8,0.6-1.4V111.8z"/>
				<path class="st15" d="M108.5,113.6c0.2,0.2,0.4,0.3,0.9,0.3h0.7c0.1,0,0.2,0,0.2,0.1s0.1,0.2,0.1,0.2v0.4c0,0.1,0,0.2-0.1,0.2
					s-0.2,0.1-0.2,0.1h-0.8c-0.7,0-1.3-0.2-1.6-0.6s-0.5-1-0.5-1.7v-3.4h-1c-0.1,0-0.2,0-0.2-0.1s-0.1-0.2-0.1-0.2v-0.4
					c0-0.1,0-0.2,0.1-0.2s0.2-0.1,0.2-0.1h1v-2.1c0-0.1,0-0.2,0.1-0.2s0.2-0.1,0.2-0.1h0.5c0.1,0,0.2,0,0.2,0.1
					c0.1,0.1,0.1,0.2,0.1,0.2v2.1h1.7c0.1,0,0.2,0,0.2,0.1c0.1,0.1,0.1,0.2,0.1,0.2v0.4c0,0.1,0,0.2-0.1,0.2
					c-0.1,0.1-0.2,0.1-0.2,0.1h-1.7v3.4C108.2,113.1,108.3,113.4,108.5,113.6z"/>
				<path class="st15" d="M113.6,108.4c0.3-0.2,0.6-0.2,1-0.2c1,0,1.7,0.4,2.1,1.1c0.3-0.4,0.5-0.6,0.9-0.8c0.3-0.2,0.7-0.3,1.3-0.3
					c0.8,0,1.5,0.3,1.9,0.8c0.4,0.5,0.6,1.2,0.6,2.2v3.6c0,0.1,0,0.2-0.1,0.2c-0.1,0.1-0.2,0.1-0.2,0.1h-0.5c-0.1,0-0.2,0-0.2-0.1
					s-0.1-0.2-0.1-0.2v-3.5c0-1.3-0.5-2-1.5-2c-0.5,0-0.8,0.2-1.1,0.5c-0.3,0.3-0.4,0.8-0.4,1.4v3.6c0,0.1,0,0.2-0.1,0.2
					c-0.1,0.1-0.2,0.1-0.2,0.1h-0.5c-0.1,0-0.2,0-0.2-0.1s-0.1-0.2-0.1-0.2v-3.5c0-1.3-0.5-2-1.5-2c-0.5,0-0.8,0.2-1.1,0.5
					c-0.3,0.3-0.4,0.8-0.4,1.4v3.6c0,0.1,0,0.2-0.1,0.2c-0.1,0.1-0.2,0.1-0.2,0.1H112c-0.1,0-0.2,0-0.2-0.1s-0.1-0.2-0.1-0.2v-6.1
					c0-0.1,0-0.2,0.1-0.2s0.2-0.1,0.2-0.1h0.5c0.1,0,0.2,0,0.2,0.1c0.1,0.1,0.1,0.2,0.1,0.2v0.4
					C113.1,108.8,113.3,108.6,113.6,108.4z"/>
				<path class="st15" d="M128.1,109c0.5,0.6,0.8,1.4,0.8,2.4v0.4c0,0.1,0,0.2-0.1,0.2s-0.2,0.1-0.2,0.1H124v0.1
					c0,0.6,0.2,1,0.5,1.3c0.3,0.3,0.8,0.5,1.3,0.5c0.4,0,0.8-0.1,1-0.2c0.2-0.1,0.5-0.3,0.6-0.5c0.1-0.1,0.1-0.1,0.2-0.1
					c0.1,0,0.1,0,0.2,0h0.4c0.1,0,0.2,0,0.3,0.1s0.1,0.2,0.1,0.2c0,0.2-0.2,0.5-0.4,0.7c-0.2,0.2-0.5,0.5-0.9,0.6
					c-0.4,0.2-0.9,0.3-1.5,0.3c-0.6,0-1-0.1-1.5-0.4c-0.4-0.3-0.8-0.6-1-1.1c-0.3-0.5-0.4-1-0.5-1.5c0-0.3,0-0.5,0-0.6s0-0.3,0-0.6
					c0.1-0.5,0.2-1,0.5-1.5c0.3-0.4,0.6-0.8,1-1c0.4-0.3,0.9-0.4,1.5-0.4C126.8,108.2,127.5,108.5,128.1,109z M127.7,111.1
					L127.7,111.1c0-0.6-0.2-1-0.5-1.3c-0.3-0.3-0.8-0.5-1.3-0.5c-0.5,0-0.9,0.2-1.3,0.5s-0.5,0.7-0.5,1.3v0H127.7z"/>
				<path class="st15" d="M136.3,114.9c-0.1,0.1-0.2,0.1-0.2,0.1h-0.5c-0.1,0-0.2,0-0.2-0.1s-0.1-0.2-0.1-0.2v-3.4
					c0-0.6-0.2-1.1-0.5-1.5s-0.8-0.5-1.3-0.5c-0.6,0-1,0.2-1.3,0.5s-0.5,0.8-0.5,1.5v3.4c0,0.1,0,0.2-0.1,0.2
					c-0.1,0.1-0.2,0.1-0.2,0.1h-0.5c-0.1,0-0.2,0-0.2-0.1s-0.1-0.2-0.1-0.2v-6.1c0-0.1,0-0.2,0.1-0.2s0.2-0.1,0.2-0.1h0.5
					c0.1,0,0.2,0,0.2,0.1c0.1,0.1,0.1,0.2,0.1,0.2v0.4c0.2-0.3,0.5-0.5,0.8-0.6s0.7-0.3,1.2-0.3c0.5,0,1,0.1,1.5,0.4s0.8,0.6,1,1
					s0.4,1,0.4,1.6v3.6C136.4,114.8,136.4,114.9,136.3,114.9z"/>
				<path class="st15" d="M140.1,113.6c0.2,0.2,0.4,0.3,0.9,0.3h0.7c0.1,0,0.2,0,0.2,0.1s0.1,0.2,0.1,0.2v0.4c0,0.1,0,0.2-0.1,0.2
					s-0.2,0.1-0.2,0.1h-0.8c-0.7,0-1.3-0.2-1.6-0.6s-0.5-1-0.5-1.7v-3.4h-1c-0.1,0-0.2,0-0.2-0.1s-0.1-0.2-0.1-0.2v-0.4
					c0-0.1,0-0.2,0.1-0.2s0.2-0.1,0.2-0.1h1v-2.1c0-0.1,0-0.2,0.1-0.2s0.2-0.1,0.2-0.1h0.5c0.1,0,0.2,0,0.2,0.1
					c0.1,0.1,0.1,0.2,0.1,0.2v2.1h1.7c0.1,0,0.2,0,0.2,0.1c0.1,0.1,0.1,0.2,0.1,0.2v0.4c0,0.1,0,0.2-0.1,0.2
					c-0.1,0.1-0.2,0.1-0.2,0.1h-1.7v3.4C139.9,113.1,140,113.4,140.1,113.6z"/>
				<path class="st15" d="M144.8,109c0.1,0.1,0.1,0.2,0.1,0.2v0.9c0,0.1,0,0.2-0.1,0.2s-0.2,0.1-0.2,0.1h-0.9c-0.1,0-0.2,0-0.2-0.1
					s-0.1-0.2-0.1-0.2v-0.9c0-0.1,0-0.2,0.1-0.2s0.2-0.1,0.2-0.1h0.9C144.7,108.9,144.8,109,144.8,109z M144.8,113.6
					c0.1,0.1,0.1,0.2,0.1,0.2v0.9c0,0.1,0,0.2-0.1,0.2s-0.2,0.1-0.2,0.1h-0.9c-0.1,0-0.2,0-0.2-0.1s-0.1-0.2-0.1-0.2v-0.9
					c0-0.1,0-0.2,0.1-0.2s0.2-0.1,0.2-0.1h0.9C144.7,113.5,144.8,113.5,144.8,113.6z"/>
				<path class="st15" d="M154.8,109c0.5,0.6,0.8,1.4,0.8,2.4v0.4c0,0.1,0,0.2-0.1,0.2s-0.2,0.1-0.2,0.1h-4.5v0.1
					c0,0.6,0.2,1,0.5,1.3c0.3,0.3,0.8,0.5,1.3,0.5c0.4,0,0.8-0.1,1-0.2c0.2-0.1,0.5-0.3,0.6-0.5c0.1-0.1,0.1-0.1,0.2-0.1
					c0.1,0,0.1,0,0.2,0h0.4c0.1,0,0.2,0,0.3,0.1s0.1,0.2,0.1,0.2c0,0.2-0.2,0.5-0.4,0.7c-0.2,0.2-0.5,0.5-0.9,0.6
					c-0.4,0.2-0.9,0.3-1.5,0.3c-0.6,0-1-0.1-1.5-0.4c-0.4-0.3-0.8-0.6-1-1.1c-0.3-0.5-0.4-1-0.5-1.5c0-0.3,0-0.5,0-0.6s0-0.3,0-0.6
					c0.1-0.5,0.2-1,0.5-1.5c0.3-0.4,0.6-0.8,1-1c0.4-0.3,0.9-0.4,1.5-0.4C153.6,108.2,154.3,108.5,154.8,109z M154.5,111.1
					L154.5,111.1c0-0.6-0.2-1-0.5-1.3c-0.3-0.3-0.8-0.5-1.3-0.5c-0.5,0-0.9,0.2-1.3,0.5s-0.5,0.7-0.5,1.3v0H154.5z"/>
				<path class="st15" d="M158.5,113.6c0.1,0.1,0.1,0.2,0.1,0.2v0.9c0,0.1,0,0.2-0.1,0.2s-0.2,0.1-0.2,0.1h-0.9
					c-0.1,0-0.2,0-0.2-0.1s-0.1-0.2-0.1-0.2v-0.9c0-0.1,0-0.2,0.1-0.2s0.2-0.1,0.2-0.1h0.9C158.3,113.5,158.4,113.5,158.5,113.6z"/>
				<path class="st15" d="M164.1,108.4c0.3,0.2,0.6,0.4,0.8,0.6v-0.4c0-0.1,0-0.2,0.1-0.2c0.1-0.1,0.2-0.1,0.2-0.1h0.5
					c0.1,0,0.2,0,0.2,0.1s0.1,0.2,0.1,0.2v6.3c0,0.9-0.3,1.6-0.8,2.2s-1.3,0.8-2.3,0.8c-0.6,0-1.2-0.1-1.6-0.3
					c-0.4-0.2-0.8-0.4-1-0.7c-0.2-0.3-0.3-0.6-0.3-0.9c0-0.1,0-0.2,0.1-0.2s0.2-0.1,0.3-0.1h0.4c0.1,0,0.2,0,0.2,0.1
					c0.1,0.1,0.1,0.1,0.2,0.3c0.1,0.2,0.3,0.4,0.5,0.6c0.2,0.2,0.6,0.3,1.2,0.3c1.3,0,2-0.6,2-1.7v-0.8c-0.4,0.6-1.1,0.9-2,0.9
					c-0.5,0-1-0.1-1.5-0.4c-0.4-0.3-0.8-0.6-1.1-1.1c-0.3-0.5-0.4-1-0.4-1.6l0-0.4l0-0.4c0-0.6,0.2-1.2,0.4-1.6
					c0.3-0.5,0.6-0.8,1-1.1c0.4-0.3,0.9-0.4,1.5-0.4C163.4,108.2,163.8,108.2,164.1,108.4z M161.7,109.8c-0.3,0.4-0.5,0.9-0.6,1.5
					l0,0.4l0,0.4c0,0.6,0.2,1.1,0.6,1.5c0.3,0.4,0.8,0.5,1.3,0.5c0.6,0,1-0.2,1.3-0.5c0.3-0.3,0.5-0.8,0.5-1.4c0-0.1,0-0.2,0-0.5
					s0-0.4,0-0.5c0-0.6-0.2-1.1-0.5-1.4c-0.3-0.3-0.8-0.5-1.3-0.5C162.5,109.3,162,109.5,161.7,109.8z"/>
				<path class="st15" d="M169.4,113.6c0.1,0.1,0.1,0.2,0.1,0.2v0.9c0,0.1,0,0.2-0.1,0.2s-0.2,0.1-0.2,0.1h-0.9
					c-0.1,0-0.2,0-0.2-0.1s-0.1-0.2-0.1-0.2v-0.9c0-0.1,0-0.2,0.1-0.2s0.2-0.1,0.2-0.1h0.9C169.2,113.5,169.3,113.5,169.4,113.6z"/>
				<path class="st15" d="M179.1,106.2c0-0.1,0-0.2,0.1-0.2c0.1-0.1,0.2-0.1,0.2-0.1h0.5c0.1,0,0.2,0,0.2,0.1s0.1,0.2,0.1,0.2v8.5
					c0,0.1,0,0.2-0.1,0.2s-0.2,0.1-0.2,0.1h-0.5c-0.1,0-0.2,0-0.2-0.1c-0.1-0.1-0.1-0.2-0.1-0.2v-0.4c-0.4,0.6-1.1,0.9-2,0.9
					c-0.5,0-1-0.1-1.5-0.4c-0.4-0.3-0.8-0.6-1.1-1.1c-0.3-0.5-0.4-1-0.4-1.6l0-0.4l0-0.4c0-0.6,0.2-1.2,0.4-1.6
					c0.3-0.5,0.6-0.8,1-1.1c0.4-0.3,0.9-0.4,1.5-0.4c0.5,0,0.9,0.1,1.2,0.3c0.3,0.2,0.6,0.4,0.8,0.6V106.2z M178.5,109.8
					c-0.3-0.3-0.8-0.5-1.3-0.5c-0.6,0-1,0.2-1.3,0.5c-0.3,0.4-0.5,0.9-0.6,1.5l0,0.4l0,0.4c0,0.6,0.2,1.1,0.6,1.5
					c0.3,0.4,0.8,0.5,1.3,0.5c0.5,0,1-0.2,1.3-0.5c0.3-0.3,0.5-0.8,0.6-1.3c0-0.1,0-0.3,0-0.5c0-0.3,0-0.4,0-0.5
					C179.1,110.6,178.9,110.1,178.5,109.8z"/>
				<path class="st15" d="M187,109c0.5,0.6,0.8,1.4,0.8,2.4v0.4c0,0.1,0,0.2-0.1,0.2s-0.2,0.1-0.2,0.1H183v0.1c0,0.6,0.2,1,0.5,1.3
					c0.3,0.3,0.8,0.5,1.3,0.5c0.4,0,0.8-0.1,1-0.2c0.2-0.1,0.5-0.3,0.6-0.5c0.1-0.1,0.1-0.1,0.2-0.1c0.1,0,0.1,0,0.2,0h0.4
					c0.1,0,0.2,0,0.3,0.1s0.1,0.2,0.1,0.2c0,0.2-0.2,0.5-0.4,0.7c-0.2,0.2-0.5,0.5-0.9,0.6c-0.4,0.2-0.9,0.3-1.5,0.3
					c-0.6,0-1-0.1-1.5-0.4c-0.4-0.3-0.8-0.6-1-1.1c-0.3-0.5-0.4-1-0.5-1.5c0-0.3,0-0.5,0-0.6s0-0.3,0-0.6c0.1-0.5,0.2-1,0.5-1.5
					c0.3-0.4,0.6-0.8,1-1c0.4-0.3,0.9-0.4,1.5-0.4C185.8,108.2,186.5,108.5,187,109z M186.7,111.1L186.7,111.1c0-0.6-0.2-1-0.5-1.3
					c-0.3-0.3-0.8-0.5-1.3-0.5c-0.5,0-0.9,0.2-1.3,0.5s-0.5,0.7-0.5,1.3v0H186.7z"/>
				<path class="st15" d="M197.1,108.6c0.1-0.2,0.2-0.3,0.4-0.3h0.4c0.1,0,0.2,0,0.2,0.1s0.1,0.1,0.1,0.2l0,0.1l-2,6
					c-0.1,0.2-0.2,0.4-0.4,0.4h-0.4c-0.1,0-0.2,0-0.2-0.1c-0.1-0.1-0.1-0.2-0.2-0.3l-1.5-4.3l-1.5,4.3c0,0.1-0.1,0.2-0.2,0.3
					c-0.1,0.1-0.1,0.1-0.2,0.1h-0.4c-0.2,0-0.3-0.1-0.4-0.4l-2-6l0-0.1c0-0.1,0-0.2,0.1-0.2s0.1-0.1,0.2-0.1h0.4
					c0.2,0,0.4,0.1,0.4,0.3l1.5,4.3l1.6-4.3c0.1-0.2,0.2-0.3,0.4-0.3h0.3c0.2,0,0.3,0.1,0.4,0.3l1.6,4.3L197.1,108.6z"/>
				<path class="st15" d="M203.5,110.8v-0.2c0-0.4-0.1-0.8-0.4-1s-0.6-0.3-1.1-0.3c-0.3,0-0.6,0.1-0.8,0.2c-0.2,0.1-0.4,0.3-0.6,0.5
					c-0.1,0.1-0.1,0.1-0.2,0.1c-0.1,0-0.1,0-0.2,0h-0.4c-0.1,0-0.2,0-0.3-0.1s-0.1-0.2-0.1-0.2c0-0.3,0.2-0.5,0.4-0.8
					c0.2-0.3,0.5-0.5,0.9-0.6c0.4-0.2,0.8-0.2,1.2-0.2c0.8,0,1.5,0.2,2,0.7c0.5,0.5,0.7,1.1,0.7,1.9v4c0,0.1,0,0.2-0.1,0.2
					s-0.2,0.1-0.2,0.1h-0.5c-0.1,0-0.2,0-0.2-0.1c-0.1-0.1-0.1-0.2-0.1-0.2v-0.5c-0.1,0.3-0.4,0.6-0.9,0.7c-0.5,0.2-0.9,0.3-1.4,0.3
					c-0.4,0-0.8-0.1-1.2-0.2c-0.3-0.2-0.6-0.4-0.8-0.7s-0.3-0.6-0.3-0.9c0-0.6,0.2-1.2,0.7-1.5c0.5-0.4,1.1-0.6,1.9-0.7L203.5,110.8
					z M203.5,111.8l-1.5,0.2c-0.6,0.1-1,0.2-1.3,0.4s-0.5,0.4-0.5,0.7c0,0.2,0.1,0.4,0.3,0.6c0.2,0.2,0.5,0.3,0.9,0.3
					c0.6,0,1.1-0.2,1.5-0.5c0.4-0.4,0.6-0.8,0.6-1.4V111.8z"/>
				<path class="st15" d="M208.5,113.6c0.2,0.2,0.4,0.3,0.9,0.3h0.7c0.1,0,0.2,0,0.2,0.1s0.1,0.2,0.1,0.2v0.4c0,0.1,0,0.2-0.1,0.2
					s-0.2,0.1-0.2,0.1h-0.8c-0.7,0-1.3-0.2-1.6-0.6s-0.5-1-0.5-1.7v-3.4h-1c-0.1,0-0.2,0-0.2-0.1s-0.1-0.2-0.1-0.2v-0.4
					c0-0.1,0-0.2,0.1-0.2s0.2-0.1,0.2-0.1h1v-2.1c0-0.1,0-0.2,0.1-0.2s0.2-0.1,0.2-0.1h0.5c0.1,0,0.2,0,0.2,0.1
					c0.1,0.1,0.1,0.2,0.1,0.2v2.1h1.7c0.1,0,0.2,0,0.2,0.1c0.1,0.1,0.1,0.2,0.1,0.2v0.4c0,0.1,0,0.2-0.1,0.2
					c-0.1,0.1-0.2,0.1-0.2,0.1h-1.7v3.4C208.3,113.1,208.4,113.4,208.5,113.6z"/>
				<path class="st15" d="M216.4,109c0.5,0.6,0.8,1.4,0.8,2.4v0.4c0,0.1,0,0.2-0.1,0.2s-0.2,0.1-0.2,0.1h-4.5v0.1
					c0,0.6,0.2,1,0.5,1.3c0.3,0.3,0.8,0.5,1.3,0.5c0.4,0,0.8-0.1,1-0.2c0.2-0.1,0.5-0.3,0.6-0.5c0.1-0.1,0.1-0.1,0.2-0.1
					c0.1,0,0.1,0,0.2,0h0.4c0.1,0,0.2,0,0.3,0.1s0.1,0.2,0.1,0.2c0,0.2-0.2,0.5-0.4,0.7c-0.2,0.2-0.5,0.5-0.9,0.6
					c-0.4,0.2-0.9,0.3-1.5,0.3c-0.6,0-1-0.1-1.5-0.4c-0.4-0.3-0.8-0.6-1-1.1c-0.3-0.5-0.4-1-0.5-1.5c0-0.3,0-0.5,0-0.6s0-0.3,0-0.6
					c0.1-0.5,0.2-1,0.5-1.5c0.3-0.4,0.6-0.8,1-1c0.4-0.3,0.9-0.4,1.5-0.4C215.2,108.2,215.9,108.5,216.4,109z M216.1,111.1
					L216.1,111.1c0-0.6-0.2-1-0.5-1.3c-0.3-0.3-0.8-0.5-1.3-0.5c-0.5,0-0.9,0.2-1.3,0.5s-0.5,0.7-0.5,1.3v0H216.1z"/>
				<path class="st15" d="M222.5,108.4c0.1,0.1,0.1,0.2,0.1,0.2v0.4c0,0.1,0,0.2-0.1,0.2s-0.2,0.1-0.2,0.1h-0.8
					c-0.5,0-0.9,0.1-1.1,0.4c-0.3,0.3-0.4,0.6-0.4,1.1v3.8c0,0.1,0,0.2-0.1,0.2c-0.1,0.1-0.2,0.1-0.2,0.1h-0.5c-0.1,0-0.2,0-0.2-0.1
					s-0.1-0.2-0.1-0.2v-6.1c0-0.1,0-0.2,0.1-0.2s0.2-0.1,0.2-0.1h0.5c0.1,0,0.2,0,0.2,0.1c0.1,0.1,0.1,0.2,0.1,0.2v0.4
					c0.2-0.3,0.4-0.5,0.6-0.6c0.2-0.1,0.6-0.2,0.9-0.2h0.7C222.3,108.3,222.4,108.3,222.5,108.4z"/>
				<path class="st15" d="M225,107.2c-0.1,0.1-0.2,0.1-0.2,0.1H224c-0.1,0-0.2,0-0.2-0.1c-0.1-0.1-0.1-0.2-0.1-0.2v-0.7
					c0-0.1,0-0.2,0.1-0.2c0.1-0.1,0.2-0.1,0.2-0.1h0.7c0.1,0,0.2,0,0.2,0.1s0.1,0.2,0.1,0.2v0.7C225.1,107,225.1,107.1,225,107.2z
					 M224.9,114.9c-0.1,0.1-0.2,0.1-0.2,0.1h-0.5c-0.1,0-0.2,0-0.2-0.1s-0.1-0.2-0.1-0.2v-6.1c0-0.1,0-0.2,0.1-0.2s0.2-0.1,0.2-0.1
					h0.5c0.1,0,0.2,0,0.2,0.1c0.1,0.1,0.1,0.2,0.1,0.2v6.1C225,114.8,224.9,114.9,224.9,114.9z"/>
				<path class="st15" d="M232.8,114.9c-0.1,0.1-0.2,0.1-0.2,0.1H232c-0.1,0-0.2,0-0.2-0.1s-0.1-0.2-0.1-0.2v-3.4
					c0-0.6-0.2-1.1-0.5-1.5s-0.8-0.5-1.3-0.5c-0.6,0-1,0.2-1.3,0.5s-0.5,0.8-0.5,1.5v3.4c0,0.1,0,0.2-0.1,0.2
					c-0.1,0.1-0.2,0.1-0.2,0.1h-0.5c-0.1,0-0.2,0-0.2-0.1s-0.1-0.2-0.1-0.2v-6.1c0-0.1,0-0.2,0.1-0.2s0.2-0.1,0.2-0.1h0.5
					c0.1,0,0.2,0,0.2,0.1c0.1,0.1,0.1,0.2,0.1,0.2v0.4c0.2-0.3,0.5-0.5,0.8-0.6s0.7-0.3,1.2-0.3c0.5,0,1,0.1,1.5,0.4s0.8,0.6,1,1
					s0.4,1,0.4,1.6v3.6C232.9,114.8,232.8,114.9,232.8,114.9z"/>
				<path class="st15" d="M238.5,108.4c0.3,0.2,0.6,0.4,0.8,0.6v-0.4c0-0.1,0-0.2,0.1-0.2c0.1-0.1,0.2-0.1,0.2-0.1h0.5
					c0.1,0,0.2,0,0.2,0.1s0.1,0.2,0.1,0.2v6.3c0,0.9-0.3,1.6-0.8,2.2s-1.3,0.8-2.3,0.8c-0.6,0-1.2-0.1-1.6-0.3
					c-0.4-0.2-0.8-0.4-1-0.7c-0.2-0.3-0.3-0.6-0.3-0.9c0-0.1,0-0.2,0.1-0.2s0.2-0.1,0.3-0.1h0.4c0.1,0,0.2,0,0.2,0.1
					c0.1,0.1,0.1,0.1,0.2,0.3c0.1,0.2,0.3,0.4,0.5,0.6c0.2,0.2,0.6,0.3,1.2,0.3c1.3,0,2-0.6,2-1.7v-0.8c-0.4,0.6-1.1,0.9-2,0.9
					c-0.5,0-1-0.1-1.5-0.4c-0.4-0.3-0.8-0.6-1.1-1.1c-0.3-0.5-0.4-1-0.4-1.6l0-0.4l0-0.4c0-0.6,0.2-1.2,0.4-1.6
					c0.3-0.5,0.6-0.8,1-1.1c0.4-0.3,0.9-0.4,1.5-0.4C237.8,108.2,238.2,108.2,238.5,108.4z M236.1,109.8c-0.3,0.4-0.5,0.9-0.6,1.5
					l0,0.4l0,0.4c0,0.6,0.2,1.1,0.6,1.5c0.3,0.4,0.8,0.5,1.3,0.5c0.6,0,1-0.2,1.3-0.5c0.3-0.3,0.5-0.8,0.5-1.4c0-0.1,0-0.2,0-0.5
					s0-0.4,0-0.5c0-0.6-0.2-1.1-0.5-1.4c-0.3-0.3-0.8-0.5-1.3-0.5C236.9,109.3,236.4,109.5,236.1,109.8z"/>
				<path class="st15" d="M242.6,113.6c0.1-0.1,0.2-0.1,0.4-0.1h0.8c0.1,0,0.1,0,0.2,0.1c0.1,0.1,0.1,0.1,0.1,0.2c0,0,0,0.1,0,0.1
					l-0.7,1.8c-0.1,0.3-0.3,0.4-0.6,0.4h-0.3c-0.1,0-0.1,0-0.2-0.1c-0.1-0.1-0.1-0.1-0.1-0.2v0l0.3-1.7
					C242.5,113.8,242.5,113.7,242.6,113.6z"/>
				<path class="st15" d="M253.4,113c0.1-0.1,0.1-0.2,0.2-0.3c0.1-0.1,0.1-0.1,0.2-0.1h0.4c0.1,0,0.2,0,0.2,0.1
					c0.1,0.1,0.1,0.1,0.1,0.2c0,0.3-0.1,0.6-0.4,0.9c-0.2,0.3-0.6,0.6-1,0.9c-0.4,0.2-1,0.4-1.6,0.4c-0.6,0-1.1-0.1-1.6-0.4
					s-0.8-0.6-1-1.1c-0.2-0.5-0.4-1-0.4-1.5c0-0.1,0-0.3,0-0.6c0-0.2,0-0.4,0-0.4c0.1-0.9,0.4-1.6,0.9-2.2s1.2-0.8,2.1-0.8
					c0.6,0,1.1,0.1,1.6,0.3c0.4,0.2,0.8,0.5,1,0.8c0.2,0.3,0.4,0.6,0.4,0.9c0,0.1,0,0.2-0.1,0.2c-0.1,0.1-0.2,0.1-0.3,0.1h-0.4
					c-0.1,0-0.2,0-0.2-0.1c-0.1-0.1-0.1-0.1-0.2-0.3c-0.3-0.7-0.9-1-1.8-1c-0.5,0-0.9,0.2-1.2,0.5s-0.6,0.8-0.6,1.5
					c0,0.1,0,0.3,0,0.5c0,0.2,0,0.3,0,0.4c0.1,0.6,0.3,1.1,0.6,1.5s0.8,0.5,1.2,0.5C252.6,114.1,253.1,113.7,253.4,113z"/>
				<path class="st15" d="M262.1,111.7c0,0.2,0,0.4,0,0.6c-0.1,0.9-0.4,1.6-0.9,2.1c-0.5,0.5-1.3,0.8-2.2,0.8
					c-0.9,0-1.6-0.3-2.2-0.8c-0.5-0.5-0.8-1.2-0.9-2.1c0-0.1,0-0.3,0-0.6c0-0.3,0-0.5,0-0.6c0.1-0.9,0.4-1.6,0.9-2.1
					c0.5-0.5,1.3-0.8,2.2-0.8c0.9,0,1.6,0.3,2.2,0.8c0.5,0.5,0.8,1.2,0.9,2.1C262,111.2,262.1,111.5,262.1,111.7z M260.3,109.8
					c-0.3-0.3-0.8-0.5-1.3-0.5c-0.6,0-1,0.2-1.3,0.5s-0.5,0.8-0.6,1.3c0,0.1,0,0.3,0,0.6c0,0.3,0,0.4,0,0.5c0.1,0.6,0.2,1,0.6,1.3
					s0.8,0.5,1.3,0.5c0.6,0,1-0.2,1.3-0.5s0.5-0.8,0.6-1.3c0-0.2,0-0.4,0-0.5c0-0.2,0-0.4,0-0.6
					C260.8,110.6,260.6,110.1,260.3,109.8z"/>
				<path class="st15" d="M265.5,108.4c0.3-0.2,0.6-0.2,1-0.2c1,0,1.7,0.4,2.1,1.1c0.3-0.4,0.5-0.6,0.9-0.8c0.3-0.2,0.7-0.3,1.3-0.3
					c0.8,0,1.5,0.3,1.9,0.8c0.4,0.5,0.6,1.2,0.6,2.2v3.6c0,0.1,0,0.2-0.1,0.2c-0.1,0.1-0.2,0.1-0.2,0.1h-0.5c-0.1,0-0.2,0-0.2-0.1
					s-0.1-0.2-0.1-0.2v-3.5c0-1.3-0.5-2-1.5-2c-0.5,0-0.8,0.2-1.1,0.5c-0.3,0.3-0.4,0.8-0.4,1.4v3.6c0,0.1,0,0.2-0.1,0.2
					c-0.1,0.1-0.2,0.1-0.2,0.1h-0.5c-0.1,0-0.2,0-0.2-0.1s-0.1-0.2-0.1-0.2v-3.5c0-1.3-0.5-2-1.5-2c-0.5,0-0.8,0.2-1.1,0.5
					c-0.3,0.3-0.4,0.8-0.4,1.4v3.6c0,0.1,0,0.2-0.1,0.2c-0.1,0.1-0.2,0.1-0.2,0.1H264c-0.1,0-0.2,0-0.2-0.1s-0.1-0.2-0.1-0.2v-6.1
					c0-0.1,0-0.2,0.1-0.2s0.2-0.1,0.2-0.1h0.5c0.1,0,0.2,0,0.2,0.1c0.1,0.1,0.1,0.2,0.1,0.2v0.4C265,108.8,265.3,108.6,265.5,108.4z
					"/>
				<path class="st15" d="M276.3,117.2c0,0.1,0,0.2-0.1,0.2c-0.1,0.1-0.2,0.1-0.2,0.1h-0.5c-0.1,0-0.2,0-0.2-0.1s-0.1-0.2-0.1-0.2
					v-8.5c0-0.1,0-0.2,0.1-0.2s0.2-0.1,0.2-0.1h0.5c0.1,0,0.2,0,0.2,0.1c0.1,0.1,0.1,0.2,0.1,0.2v0.4c0.4-0.6,1.1-0.9,2-0.9
					c0.5,0,1,0.1,1.5,0.4c0.4,0.3,0.8,0.6,1.1,1.1c0.3,0.5,0.4,1,0.4,1.6c0,0.1,0,0.2,0,0.4c0,0.2,0,0.3,0,0.4
					c0,0.6-0.2,1.2-0.4,1.6c-0.3,0.5-0.6,0.8-1,1.1c-0.4,0.3-0.9,0.4-1.5,0.4c-0.5,0-0.9-0.1-1.2-0.3c-0.3-0.2-0.6-0.4-0.8-0.6
					V117.2z M276.9,113.6c0.3,0.3,0.8,0.5,1.3,0.5c0.6,0,1-0.2,1.3-0.5c0.3-0.4,0.5-0.9,0.6-1.5c0-0.1,0-0.2,0-0.4s0-0.3,0-0.4
					c0-0.6-0.2-1.1-0.6-1.5c-0.3-0.4-0.8-0.5-1.3-0.5c-0.5,0-1,0.2-1.3,0.5s-0.5,0.8-0.6,1.3l0,0.5l0,0.5
					C276.4,112.7,276.6,113.2,276.9,113.6z"/>
				<path class="st15" d="M288.8,111.7c0,0.2,0,0.4,0,0.6c-0.1,0.9-0.4,1.6-0.9,2.1c-0.5,0.5-1.3,0.8-2.2,0.8
					c-0.9,0-1.6-0.3-2.2-0.8c-0.5-0.5-0.8-1.2-0.9-2.1c0-0.1,0-0.3,0-0.6c0-0.3,0-0.5,0-0.6c0.1-0.9,0.4-1.6,0.9-2.1
					c0.5-0.5,1.3-0.8,2.2-0.8c0.9,0,1.6,0.3,2.2,0.8c0.5,0.5,0.8,1.2,0.9,2.1C288.8,111.2,288.8,111.5,288.8,111.7z M287.1,109.8
					c-0.3-0.3-0.8-0.5-1.3-0.5c-0.6,0-1,0.2-1.3,0.5s-0.5,0.8-0.6,1.3c0,0.1,0,0.3,0,0.6c0,0.3,0,0.4,0,0.5c0.1,0.6,0.2,1,0.6,1.3
					s0.8,0.5,1.3,0.5c0.6,0,1-0.2,1.3-0.5s0.5-0.8,0.6-1.3c0-0.2,0-0.4,0-0.5c0-0.2,0-0.4,0-0.6
					C287.6,110.6,287.4,110.1,287.1,109.8z"/>
				<path class="st15" d="M290.1,110.1c0-0.4,0.1-0.7,0.3-1c0.2-0.3,0.5-0.5,0.9-0.7s0.8-0.3,1.4-0.3c0.5,0,1,0.1,1.4,0.2
					c0.4,0.2,0.7,0.4,0.9,0.6c0.2,0.2,0.3,0.5,0.3,0.7c0,0.1,0,0.2-0.1,0.2c-0.1,0.1-0.2,0.1-0.2,0.1h-0.4c-0.2,0-0.3-0.1-0.4-0.2
					c-0.3-0.3-0.7-0.5-1.4-0.5c-0.4,0-0.7,0.1-1,0.2s-0.4,0.4-0.4,0.6c0,0.2,0.1,0.4,0.2,0.5c0.1,0.1,0.3,0.2,0.5,0.3
					s0.7,0.2,1.3,0.3c0.8,0.2,1.3,0.4,1.6,0.8c0.3,0.3,0.5,0.8,0.5,1.2c0,0.4-0.1,0.7-0.3,1c-0.2,0.3-0.5,0.5-0.9,0.7
					s-0.9,0.3-1.4,0.3c-0.5,0-1-0.1-1.4-0.3c-0.4-0.2-0.7-0.4-1-0.6c-0.2-0.2-0.3-0.5-0.3-0.7c0-0.1,0-0.2,0.1-0.2
					c0.1-0.1,0.2-0.1,0.2-0.1h0.5c0.1,0,0.1,0,0.2,0c0.1,0,0.1,0.1,0.2,0.1c0.3,0.4,0.8,0.6,1.5,0.6c0.4,0,0.8-0.1,1.1-0.3
					s0.5-0.4,0.5-0.6c0-0.2-0.1-0.4-0.2-0.5c-0.2-0.1-0.4-0.2-0.7-0.3c-0.3-0.1-0.7-0.2-1.3-0.3
					C290.7,111.8,290.1,111.1,290.1,110.1z"/>
				<path class="st15" d="M299.1,113.6c0.2,0.2,0.4,0.3,0.9,0.3h0.7c0.1,0,0.2,0,0.2,0.1s0.1,0.2,0.1,0.2v0.4c0,0.1,0,0.2-0.1,0.2
					s-0.2,0.1-0.2,0.1h-0.8c-0.7,0-1.3-0.2-1.6-0.6s-0.5-1-0.5-1.7v-3.4h-1c-0.1,0-0.2,0-0.2-0.1s-0.1-0.2-0.1-0.2v-0.4
					c0-0.1,0-0.2,0.1-0.2s0.2-0.1,0.2-0.1h1v-2.1c0-0.1,0-0.2,0.1-0.2s0.2-0.1,0.2-0.1h0.5c0.1,0,0.2,0,0.2,0.1
					c0.1,0.1,0.1,0.2,0.1,0.2v2.1h1.7c0.1,0,0.2,0,0.2,0.1c0.1,0.1,0.1,0.2,0.1,0.2v0.4c0,0.1,0,0.2-0.1,0.2
					c-0.1,0.1-0.2,0.1-0.2,0.1h-1.7v3.4C298.8,113.1,298.9,113.4,299.1,113.6z"/>
				<path class="st15" d="M303.5,107.2c-0.1,0.1-0.2,0.1-0.2,0.1h-0.7c-0.1,0-0.2,0-0.2-0.1c-0.1-0.1-0.1-0.2-0.1-0.2v-0.7
					c0-0.1,0-0.2,0.1-0.2c0.1-0.1,0.2-0.1,0.2-0.1h0.7c0.1,0,0.2,0,0.2,0.1s0.1,0.2,0.1,0.2v0.7C303.6,107,303.5,107.1,303.5,107.2z
					 M303.3,114.9c-0.1,0.1-0.2,0.1-0.2,0.1h-0.5c-0.1,0-0.2,0-0.2-0.1s-0.1-0.2-0.1-0.2v-6.1c0-0.1,0-0.2,0.1-0.2s0.2-0.1,0.2-0.1
					h0.5c0.1,0,0.2,0,0.2,0.1c0.1,0.1,0.1,0.2,0.1,0.2v6.1C303.4,114.8,303.4,114.9,303.3,114.9z"/>
				<path class="st15" d="M311.2,114.9c-0.1,0.1-0.2,0.1-0.2,0.1h-0.5c-0.1,0-0.2,0-0.2-0.1s-0.1-0.2-0.1-0.2v-3.4
					c0-0.6-0.2-1.1-0.5-1.5s-0.8-0.5-1.3-0.5c-0.6,0-1,0.2-1.3,0.5s-0.5,0.8-0.5,1.5v3.4c0,0.1,0,0.2-0.1,0.2
					c-0.1,0.1-0.2,0.1-0.2,0.1h-0.5c-0.1,0-0.2,0-0.2-0.1s-0.1-0.2-0.1-0.2v-6.1c0-0.1,0-0.2,0.1-0.2s0.2-0.1,0.2-0.1h0.5
					c0.1,0,0.2,0,0.2,0.1c0.1,0.1,0.1,0.2,0.1,0.2v0.4c0.2-0.3,0.5-0.5,0.8-0.6s0.7-0.3,1.2-0.3c0.5,0,1,0.1,1.5,0.4s0.8,0.6,1,1
					s0.4,1,0.4,1.6v3.6C311.3,114.8,311.3,114.9,311.2,114.9z"/>
				<path class="st15" d="M317,108.4c0.3,0.2,0.6,0.4,0.8,0.6v-0.4c0-0.1,0-0.2,0.1-0.2c0.1-0.1,0.2-0.1,0.2-0.1h0.5
					c0.1,0,0.2,0,0.2,0.1s0.1,0.2,0.1,0.2v6.3c0,0.9-0.3,1.6-0.8,2.2s-1.3,0.8-2.3,0.8c-0.6,0-1.2-0.1-1.6-0.3
					c-0.4-0.2-0.8-0.4-1-0.7c-0.2-0.3-0.3-0.6-0.3-0.9c0-0.1,0-0.2,0.1-0.2s0.2-0.1,0.3-0.1h0.4c0.1,0,0.2,0,0.2,0.1
					c0.1,0.1,0.1,0.1,0.2,0.3c0.1,0.2,0.3,0.4,0.5,0.6c0.2,0.2,0.6,0.3,1.2,0.3c1.3,0,2-0.6,2-1.7v-0.8c-0.4,0.6-1.1,0.9-2,0.9
					c-0.5,0-1-0.1-1.5-0.4c-0.4-0.3-0.8-0.6-1.1-1.1c-0.3-0.5-0.4-1-0.4-1.6l0-0.4l0-0.4c0-0.6,0.2-1.2,0.4-1.6
					c0.3-0.5,0.6-0.8,1-1.1c0.4-0.3,0.9-0.4,1.5-0.4C316.3,108.2,316.7,108.2,317,108.4z M314.6,109.8c-0.3,0.4-0.5,0.9-0.6,1.5
					l0,0.4l0,0.4c0,0.6,0.2,1.1,0.6,1.5c0.3,0.4,0.8,0.5,1.3,0.5c0.6,0,1-0.2,1.3-0.5c0.3-0.3,0.5-0.8,0.5-1.4c0-0.1,0-0.2,0-0.5
					s0-0.4,0-0.5c0-0.6-0.2-1.1-0.5-1.4c-0.3-0.3-0.8-0.5-1.3-0.5C315.4,109.3,314.9,109.5,314.6,109.8z"/>
			</g>
		</g>
	</g>
	<g>
		<g>
			<g>
				<line class="st21" x1="85.1" y1="100" x2="85.1" y2="90"/>
				<line class="st31" x1="85.1" y1="84.7" x2="85.1" y2="62.1"/>
				<line class="st32" x1="85.1" y1="60.5" x2="85.1" y2="11.6"/>
				<line class="st21" x1="85.1" y1="10" x2="85.1" y2="0"/>
			</g>
		</g>
		<g>
			<g>
				<line class="st21" x1="90.2" y1="100" x2="90.2" y2="90"/>
				<line class="st24" x1="90.2" y1="87.5" x2="90.2" y2="69.2"/>
				<line class="st25" x1="90.2" y1="68" x2="90.2" y2="-8.7"/>
			</g>
		</g>
		<g>
			<g>
				<line class="st8" x1="265.1" y1="100" x2="265.1" y2="90"/>
				<line class="st33" x1="265.1" y1="84.7" x2="265.1" y2="62.1"/>
				<line class="st34" x1="265.1" y1="60.5" x2="265.1" y2="11.6"/>
				<line class="st8" x1="265.1" y1="10" x2="265.1" y2="0"/>
			</g>
		</g>
		<g>
			<g>
				<line class="st8" x1="270.2" y1="100" x2="270.2" y2="90"/>
				<line class="st9" x1="270.2" y1="87.5" x2="270.2" y2="69.2"/>
				<line class="st10" x1="270.2" y1="68" x2="270.2" y2="-8.7"/>
			</g>
		</g>
	</g>
	<g>
		<g>
			<rect x="100" y="40" class="st11" width="60" height="40"/>
			<path d="M107.7,49.4c-0.3,0.5-0.7,0.9-1.3,1.2c-0.5,0.3-1.2,0.4-1.9,0.4h-3.1c-0.1,0-0.2,0-0.2-0.1c-0.1-0.1-0.1-0.2-0.1-0.2
				v-8.4c0-0.1,0-0.2,0.1-0.2c0.1-0.1,0.2-0.1,0.2-0.1h3c0.7,0,1.4,0.1,1.9,0.4c0.6,0.3,1,0.7,1.3,1.2c0.3,0.5,0.5,1.2,0.5,1.9
				c0,0.3,0,0.6,0,1s0,0.8,0,1C108.2,48.2,108,48.9,107.7,49.4z M102.4,43.1v6.8h2.1c0.9,0,1.5-0.2,1.9-0.7c0.4-0.5,0.6-1,0.6-1.7
				c0-0.3,0-0.6,0-1c0-0.4,0-0.7,0-1c0-0.7-0.2-1.3-0.6-1.7c-0.4-0.5-1-0.7-1.9-0.7H102.4z"/>
			<path d="M114.8,45c0.5,0.6,0.8,1.4,0.8,2.4v0.4c0,0.1,0,0.2-0.1,0.2s-0.2,0.1-0.2,0.1h-4.5v0.1c0,0.6,0.2,1,0.5,1.3
				c0.3,0.3,0.8,0.5,1.3,0.5c0.4,0,0.8-0.1,1-0.2c0.2-0.1,0.5-0.3,0.6-0.5c0.1-0.1,0.1-0.1,0.2-0.1c0.1,0,0.1,0,0.2,0h0.4
				c0.1,0,0.2,0,0.3,0.1s0.1,0.2,0.1,0.2c0,0.2-0.2,0.5-0.4,0.7c-0.2,0.2-0.5,0.5-0.9,0.6c-0.4,0.2-0.9,0.3-1.5,0.3
				c-0.6,0-1-0.1-1.5-0.4c-0.4-0.3-0.8-0.6-1-1.1c-0.3-0.5-0.4-1-0.5-1.5c0-0.3,0-0.5,0-0.6s0-0.3,0-0.6c0.1-0.5,0.2-1,0.5-1.5
				c0.3-0.4,0.6-0.8,1-1c0.4-0.3,0.9-0.4,1.5-0.4C113.5,44.2,114.2,44.5,114.8,45z M114.4,47.1L114.4,47.1c0-0.6-0.2-1-0.5-1.3
				c-0.3-0.3-0.8-0.5-1.3-0.5c-0.5,0-0.9,0.2-1.3,0.5s-0.5,0.7-0.5,1.3v0H114.4z"/>
			<path d="M118.3,43.2c-0.1,0.1-0.2,0.1-0.2,0.1h-0.7c-0.1,0-0.2,0-0.2-0.1c-0.1-0.1-0.1-0.2-0.1-0.2v-0.7c0-0.1,0-0.2,0.1-0.2
				c0.1-0.1,0.2-0.1,0.2-0.1h0.7c0.1,0,0.2,0,0.2,0.1s0.1,0.2,0.1,0.2v0.7C118.4,43,118.4,43.1,118.3,43.2z M118.2,50.9
				C118.1,51,118,51,118,51h-0.5c-0.1,0-0.2,0-0.2-0.1s-0.1-0.2-0.1-0.2v-6.1c0-0.1,0-0.2,0.1-0.2s0.2-0.1,0.2-0.1h0.5
				c0.1,0,0.2,0,0.2,0.1c0.1,0.1,0.1,0.2,0.1,0.2v6.1C118.3,50.8,118.3,50.9,118.2,50.9z"/>
			<path d="M126.1,50.9c-0.1,0.1-0.2,0.1-0.2,0.1h-0.5c-0.1,0-0.2,0-0.2-0.1s-0.1-0.2-0.1-0.2v-3.4c0-0.6-0.2-1.1-0.5-1.5
				s-0.8-0.5-1.3-0.5c-0.6,0-1,0.2-1.3,0.5s-0.5,0.8-0.5,1.5v3.4c0,0.1,0,0.2-0.1,0.2c-0.1,0.1-0.2,0.1-0.2,0.1h-0.5
				c-0.1,0-0.2,0-0.2-0.1s-0.1-0.2-0.1-0.2v-6.1c0-0.1,0-0.2,0.1-0.2s0.2-0.1,0.2-0.1h0.5c0.1,0,0.2,0,0.2,0.1
				c0.1,0.1,0.1,0.2,0.1,0.2V45c0.2-0.3,0.5-0.5,0.8-0.6s0.7-0.3,1.2-0.3c0.5,0,1,0.1,1.5,0.4s0.8,0.6,1,1s0.4,1,0.4,1.6v3.6
				C126.2,50.8,126.2,50.9,126.1,50.9z"/>
			<path d="M129.2,50.7c0,0.1,0,0.2-0.1,0.2c-0.1,0.1-0.2,0.1-0.2,0.1h-0.5c-0.1,0-0.2,0-0.2-0.1s-0.1-0.2-0.1-0.2v-8.5
				c0-0.1,0-0.2,0.1-0.2s0.2-0.1,0.2-0.1h0.5c0.1,0,0.2,0,0.2,0.1c0.1,0.1,0.1,0.2,0.1,0.2v4.3l2.5-2c0.1-0.1,0.2-0.1,0.2-0.2
				s0.2-0.1,0.3-0.1h0.6c0.1,0,0.2,0,0.2,0.1s0.1,0.1,0.1,0.2c0,0.1,0,0.2-0.1,0.3l-3.1,2.4l3.5,3.2c0.1,0.1,0.1,0.2,0.1,0.2
				c0,0.1,0,0.2-0.1,0.2s-0.1,0.1-0.2,0.1h-0.6c-0.2,0-0.4-0.1-0.5-0.2l-2.9-2.6V50.7z"/>
			<path d="M136,43.2c-0.1,0.1-0.2,0.1-0.2,0.1H135c-0.1,0-0.2,0-0.2-0.1c-0.1-0.1-0.1-0.2-0.1-0.2v-0.7c0-0.1,0-0.2,0.1-0.2
				c0.1-0.1,0.2-0.1,0.2-0.1h0.7c0.1,0,0.2,0,0.2,0.1s0.1,0.2,0.1,0.2v0.7C136.1,43,136,43.1,136,43.2z M135.8,50.9
				c-0.1,0.1-0.2,0.1-0.2,0.1h-0.5c-0.1,0-0.2,0-0.2-0.1s-0.1-0.2-0.1-0.2v-6.1c0-0.1,0-0.2,0.1-0.2s0.2-0.1,0.2-0.1h0.5
				c0.1,0,0.2,0,0.2,0.1c0.1,0.1,0.1,0.2,0.1,0.2v6.1C135.9,50.8,135.9,50.9,135.8,50.9z"/>
			<path d="M143.7,50.9c-0.1,0.1-0.2,0.1-0.2,0.1H143c-0.1,0-0.2,0-0.2-0.1s-0.1-0.2-0.1-0.2v-3.4c0-0.6-0.2-1.1-0.5-1.5
				s-0.8-0.5-1.3-0.5c-0.6,0-1,0.2-1.3,0.5s-0.5,0.8-0.5,1.5v3.4c0,0.1,0,0.2-0.1,0.2c-0.1,0.1-0.2,0.1-0.2,0.1h-0.5
				c-0.1,0-0.2,0-0.2-0.1s-0.1-0.2-0.1-0.2v-6.1c0-0.1,0-0.2,0.1-0.2s0.2-0.1,0.2-0.1h0.5c0.1,0,0.2,0,0.2,0.1
				c0.1,0.1,0.1,0.2,0.1,0.2V45c0.2-0.3,0.5-0.5,0.8-0.6s0.7-0.3,1.2-0.3c0.5,0,1,0.1,1.5,0.4s0.8,0.6,1,1s0.4,1,0.4,1.6v3.6
				C143.8,50.8,143.8,50.9,143.7,50.9z"/>
			<path d="M149.5,44.4c0.3,0.2,0.6,0.4,0.8,0.6v-0.4c0-0.1,0-0.2,0.1-0.2c0.1-0.1,0.2-0.1,0.2-0.1h0.5c0.1,0,0.2,0,0.2,0.1
				s0.1,0.2,0.1,0.2V51c0,0.9-0.3,1.6-0.8,2.2s-1.3,0.8-2.3,0.8c-0.6,0-1.2-0.1-1.6-0.3c-0.4-0.2-0.8-0.4-1-0.7
				c-0.2-0.3-0.3-0.6-0.3-0.9c0-0.1,0-0.2,0.1-0.2s0.2-0.1,0.3-0.1h0.4c0.1,0,0.2,0,0.2,0.1c0.1,0.1,0.1,0.1,0.2,0.3
				c0.1,0.2,0.3,0.4,0.5,0.6c0.2,0.2,0.6,0.3,1.2,0.3c1.3,0,2-0.6,2-1.7v-0.8c-0.4,0.6-1.1,0.9-2,0.9c-0.5,0-1-0.1-1.5-0.4
				c-0.4-0.3-0.8-0.6-1.1-1.1c-0.3-0.5-0.4-1-0.4-1.6l0-0.4l0-0.4c0-0.6,0.2-1.2,0.4-1.6c0.3-0.5,0.6-0.8,1-1.1
				c0.4-0.3,0.9-0.4,1.5-0.4C148.8,44.2,149.2,44.2,149.5,44.4z M147.1,45.8c-0.3,0.4-0.5,0.9-0.6,1.5l0,0.4l0,0.4
				c0,0.6,0.2,1.1,0.6,1.5c0.3,0.4,0.8,0.5,1.3,0.5c0.6,0,1-0.2,1.3-0.5c0.3-0.3,0.5-0.8,0.5-1.4c0-0.1,0-0.2,0-0.5s0-0.4,0-0.5
				c0-0.6-0.2-1.1-0.5-1.4c-0.3-0.3-0.8-0.5-1.3-0.5C147.8,45.3,147.4,45.5,147.1,45.8z"/>
			<path d="M100.7,65.1c0-0.4,0.1-0.7,0.3-1c0.2-0.3,0.5-0.5,0.9-0.7s0.8-0.3,1.4-0.3c0.5,0,1,0.1,1.4,0.2c0.4,0.2,0.7,0.4,0.9,0.6
				c0.2,0.2,0.3,0.5,0.3,0.7c0,0.1,0,0.2-0.1,0.2c-0.1,0.1-0.2,0.1-0.2,0.1H105c-0.2,0-0.3-0.1-0.4-0.2c-0.3-0.3-0.7-0.5-1.4-0.5
				c-0.4,0-0.7,0.1-1,0.2s-0.4,0.4-0.4,0.6c0,0.2,0.1,0.4,0.2,0.5c0.1,0.1,0.3,0.2,0.5,0.3s0.7,0.2,1.3,0.3c0.8,0.2,1.3,0.4,1.6,0.8
				c0.3,0.3,0.5,0.8,0.5,1.2c0,0.4-0.1,0.7-0.3,1c-0.2,0.3-0.5,0.5-0.9,0.7s-0.9,0.3-1.4,0.3c-0.5,0-1-0.1-1.4-0.3
				c-0.4-0.2-0.7-0.4-1-0.6c-0.2-0.2-0.3-0.5-0.3-0.7c0-0.1,0-0.2,0.1-0.2c0.1-0.1,0.2-0.1,0.2-0.1h0.5c0.1,0,0.1,0,0.2,0
				c0.1,0,0.1,0.1,0.2,0.1c0.3,0.4,0.8,0.6,1.5,0.6c0.4,0,0.8-0.1,1.1-0.3s0.5-0.4,0.5-0.6c0-0.2-0.1-0.4-0.2-0.5
				c-0.2-0.1-0.4-0.2-0.7-0.3c-0.3-0.1-0.7-0.2-1.3-0.3C101.3,66.8,100.7,66.1,100.7,65.1z"/>
			<path d="M108.6,69.9c-0.1,0.1-0.2,0.1-0.2,0.1h-0.5c-0.1,0-0.2,0-0.2-0.1s-0.1-0.2-0.1-0.2v-8.5c0-0.1,0-0.2,0.1-0.2
				s0.2-0.1,0.2-0.1h0.5c0.1,0,0.2,0,0.2,0.1c0.1,0.1,0.1,0.2,0.1,0.2v8.5C108.7,69.8,108.6,69.9,108.6,69.9z"/>
			<path d="M110.6,63.4c0.1-0.1,0.2-0.1,0.2-0.1h0.5c0.1,0,0.2,0,0.2,0.1s0.1,0.2,0.1,0.2v3.4c0,0.7,0.1,1.2,0.4,1.5
				s0.7,0.5,1.3,0.5c0.6,0,1-0.2,1.3-0.5s0.5-0.8,0.5-1.5v-3.4c0-0.1,0-0.2,0.1-0.2s0.2-0.1,0.2-0.1h0.5c0.1,0,0.2,0,0.2,0.1
				c0.1,0.1,0.1,0.2,0.1,0.2v6.1c0,0.1,0,0.2-0.1,0.2c-0.1,0.1-0.2,0.1-0.2,0.1h-0.5c-0.1,0-0.2,0-0.2-0.1s-0.1-0.2-0.1-0.2v-0.4
				c-0.5,0.6-1.1,0.9-2,0.9c-0.8,0-1.5-0.3-2-0.8c-0.5-0.5-0.7-1.2-0.7-2.1v-3.6C110.5,63.5,110.5,63.5,110.6,63.4z"/>
			<path d="M123,61.2c0-0.1,0-0.2,0.1-0.2c0.1-0.1,0.2-0.1,0.2-0.1h0.5c0.1,0,0.2,0,0.2,0.1s0.1,0.2,0.1,0.2v8.5
				c0,0.1,0,0.2-0.1,0.2s-0.2,0.1-0.2,0.1h-0.5c-0.1,0-0.2,0-0.2-0.1c-0.1-0.1-0.1-0.2-0.1-0.2v-0.4c-0.4,0.6-1.1,0.9-2,0.9
				c-0.5,0-1-0.1-1.5-0.4c-0.4-0.3-0.8-0.6-1.1-1.1c-0.3-0.5-0.4-1-0.4-1.6l0-0.4l0-0.4c0-0.6,0.2-1.2,0.4-1.6
				c0.3-0.5,0.6-0.8,1-1.1c0.4-0.3,0.9-0.4,1.5-0.4c0.5,0,0.9,0.1,1.2,0.3c0.3,0.2,0.6,0.4,0.8,0.6V61.2z M122.4,64.8
				c-0.3-0.3-0.8-0.5-1.3-0.5c-0.6,0-1,0.2-1.3,0.5c-0.3,0.4-0.5,0.9-0.6,1.5l0,0.4l0,0.4c0,0.6,0.2,1.1,0.6,1.5
				c0.3,0.4,0.8,0.5,1.3,0.5c0.5,0,1-0.2,1.3-0.5c0.3-0.3,0.5-0.8,0.6-1.3c0-0.1,0-0.3,0-0.5c0-0.3,0-0.4,0-0.5
				C122.9,65.6,122.7,65.1,122.4,64.8z"/>
			<path d="M129.9,63.4c0.3,0.2,0.6,0.4,0.8,0.6v-0.4c0-0.1,0-0.2,0.1-0.2c0.1-0.1,0.2-0.1,0.2-0.1h0.5c0.1,0,0.2,0,0.2,0.1
				s0.1,0.2,0.1,0.2V70c0,0.9-0.3,1.6-0.8,2.2s-1.3,0.8-2.3,0.8c-0.6,0-1.2-0.1-1.6-0.3c-0.4-0.2-0.8-0.4-1-0.7
				c-0.2-0.3-0.3-0.6-0.3-0.9c0-0.1,0-0.2,0.1-0.2s0.2-0.1,0.3-0.1h0.4c0.1,0,0.2,0,0.2,0.1c0.1,0.1,0.1,0.1,0.2,0.3
				c0.1,0.2,0.3,0.4,0.5,0.6c0.2,0.2,0.6,0.3,1.2,0.3c1.3,0,2-0.6,2-1.7v-0.8c-0.4,0.6-1.1,0.9-2,0.9c-0.5,0-1-0.1-1.5-0.4
				c-0.4-0.3-0.8-0.6-1.1-1.1c-0.3-0.5-0.4-1-0.4-1.6l0-0.4l0-0.4c0-0.6,0.2-1.2,0.4-1.6c0.3-0.5,0.6-0.8,1-1.1
				c0.4-0.3,0.9-0.4,1.5-0.4C129.2,63.2,129.6,63.2,129.9,63.4z M127.5,64.8c-0.3,0.4-0.5,0.9-0.6,1.5l0,0.4l0,0.4
				c0,0.6,0.2,1.1,0.6,1.5c0.3,0.4,0.8,0.5,1.3,0.5c0.6,0,1-0.2,1.3-0.5c0.3-0.3,0.5-0.8,0.5-1.4c0-0.1,0-0.2,0-0.5s0-0.4,0-0.5
				c0-0.6-0.2-1.1-0.5-1.4c-0.3-0.3-0.8-0.5-1.3-0.5C128.2,64.3,127.8,64.5,127.5,64.8z"/>
			<path d="M138.6,64c0.5,0.6,0.8,1.4,0.8,2.4v0.4c0,0.1,0,0.2-0.1,0.2s-0.2,0.1-0.2,0.1h-4.5v0.1c0,0.6,0.2,1,0.5,1.3
				c0.3,0.3,0.8,0.5,1.3,0.5c0.4,0,0.8-0.1,1-0.2c0.2-0.1,0.5-0.3,0.6-0.5c0.1-0.1,0.1-0.1,0.2-0.1c0.1,0,0.1,0,0.2,0h0.4
				c0.1,0,0.2,0,0.3,0.1s0.1,0.2,0.1,0.2c0,0.2-0.2,0.5-0.4,0.7c-0.2,0.2-0.5,0.5-0.9,0.6c-0.4,0.2-0.9,0.3-1.5,0.3
				c-0.6,0-1-0.1-1.5-0.4c-0.4-0.3-0.8-0.6-1-1.1c-0.3-0.5-0.4-1-0.5-1.5c0-0.3,0-0.5,0-0.6s0-0.3,0-0.6c0.1-0.5,0.2-1,0.5-1.5
				c0.3-0.4,0.6-0.8,1-1c0.4-0.3,0.9-0.4,1.5-0.4C137.4,63.2,138.1,63.5,138.6,64z M138.3,66.1L138.3,66.1c0-0.6-0.2-1-0.5-1.3
				c-0.3-0.3-0.8-0.5-1.3-0.5c-0.5,0-0.9,0.2-1.3,0.5s-0.5,0.7-0.5,1.3v0H138.3z"/>
		</g>
		<g>
			<rect x="280" y="40" class="st11" width="60" height="40"/>
			<path d="M287,42.7c0.6,0.5,0.9,1.2,0.9,2.1c0,0.6-0.1,1.1-0.4,1.5c-0.3,0.4-0.7,0.7-1.1,0.9c-0.5,0.2-1,0.3-1.6,0.3h-2.4v3.2
				c0,0.1,0,0.2-0.1,0.2S282.1,51,282,51h-0.5c-0.1,0-0.2,0-0.2-0.1c-0.1-0.1-0.1-0.2-0.1-0.2v-8.4c0-0.1,0-0.2,0.1-0.2
				c0.1-0.1,0.2-0.1,0.2-0.1h3.3C285.6,42,286.4,42.2,287,42.7z M284.7,46.3c0.6,0,1.1-0.1,1.5-0.4c0.3-0.3,0.5-0.7,0.5-1.2
				c0-1.1-0.7-1.6-2-1.6h-2.3v3.2H284.7z"/>
			<path d="M293,44.4c0.1,0.1,0.1,0.2,0.1,0.2v0.4c0,0.1,0,0.2-0.1,0.2s-0.2,0.1-0.2,0.1H292c-0.5,0-0.9,0.1-1.1,0.4
				c-0.3,0.3-0.4,0.6-0.4,1.1v3.8c0,0.1,0,0.2-0.1,0.2c-0.1,0.1-0.2,0.1-0.2,0.1h-0.5c-0.1,0-0.2,0-0.2-0.1s-0.1-0.2-0.1-0.2v-6.1
				c0-0.1,0-0.2,0.1-0.2s0.2-0.1,0.2-0.1h0.5c0.1,0,0.2,0,0.2,0.1c0.1,0.1,0.1,0.2,0.1,0.2V45c0.2-0.3,0.4-0.5,0.6-0.6
				c0.2-0.1,0.6-0.2,0.9-0.2h0.7C292.8,44.3,292.9,44.3,293,44.4z"/>
			<path d="M295.5,43.2c-0.1,0.1-0.2,0.1-0.2,0.1h-0.7c-0.1,0-0.2,0-0.2-0.1c-0.1-0.1-0.1-0.2-0.1-0.2v-0.7c0-0.1,0-0.2,0.1-0.2
				c0.1-0.1,0.2-0.1,0.2-0.1h0.7c0.1,0,0.2,0,0.2,0.1s0.1,0.2,0.1,0.2v0.7C295.6,43,295.6,43.1,295.5,43.2z M295.4,50.9
				c-0.1,0.1-0.2,0.1-0.2,0.1h-0.5c-0.1,0-0.2,0-0.2-0.1s-0.1-0.2-0.1-0.2v-6.1c0-0.1,0-0.2,0.1-0.2s0.2-0.1,0.2-0.1h0.5
				c0.1,0,0.2,0,0.2,0.1c0.1,0.1,0.1,0.2,0.1,0.2v6.1C295.5,50.8,295.4,50.9,295.4,50.9z"/>
			<path d="M299.2,44.4c0.3-0.2,0.6-0.2,1-0.2c1,0,1.7,0.4,2.1,1.1c0.3-0.4,0.5-0.6,0.9-0.8c0.3-0.2,0.7-0.3,1.3-0.3
				c0.8,0,1.5,0.3,1.9,0.8c0.4,0.5,0.6,1.2,0.6,2.2v3.6c0,0.1,0,0.2-0.1,0.2c-0.1,0.1-0.2,0.1-0.2,0.1h-0.5c-0.1,0-0.2,0-0.2-0.1
				s-0.1-0.2-0.1-0.2v-3.5c0-1.3-0.5-2-1.5-2c-0.5,0-0.8,0.2-1.1,0.5c-0.3,0.3-0.4,0.8-0.4,1.4v3.6c0,0.1,0,0.2-0.1,0.2
				c-0.1,0.1-0.2,0.1-0.2,0.1H302c-0.1,0-0.2,0-0.2-0.1s-0.1-0.2-0.1-0.2v-3.5c0-1.3-0.5-2-1.5-2c-0.5,0-0.8,0.2-1.1,0.5
				c-0.3,0.3-0.4,0.8-0.4,1.4v3.6c0,0.1,0,0.2-0.1,0.2c-0.1,0.1-0.2,0.1-0.2,0.1h-0.5c-0.1,0-0.2,0-0.2-0.1s-0.1-0.2-0.1-0.2v-6.1
				c0-0.1,0-0.2,0.1-0.2s0.2-0.1,0.2-0.1h0.5c0.1,0,0.2,0,0.2,0.1c0.1,0.1,0.1,0.2,0.1,0.2V45C298.7,44.8,299,44.6,299.2,44.4z"/>
			<path d="M312.9,46.8v-0.2c0-0.4-0.1-0.8-0.4-1s-0.6-0.3-1.1-0.3c-0.3,0-0.6,0.1-0.8,0.2c-0.2,0.1-0.4,0.3-0.6,0.5
				c-0.1,0.1-0.1,0.1-0.2,0.1c-0.1,0-0.1,0-0.2,0h-0.4c-0.1,0-0.2,0-0.3-0.1s-0.1-0.2-0.1-0.2c0-0.3,0.2-0.5,0.4-0.8
				c0.2-0.3,0.5-0.5,0.9-0.6c0.4-0.2,0.8-0.2,1.2-0.2c0.8,0,1.5,0.2,2,0.7c0.5,0.5,0.7,1.1,0.7,1.9v4c0,0.1,0,0.2-0.1,0.2
				s-0.2,0.1-0.2,0.1h-0.5c-0.1,0-0.2,0-0.2-0.1c-0.1-0.1-0.1-0.2-0.1-0.2v-0.5c-0.1,0.3-0.4,0.6-0.9,0.7c-0.5,0.2-0.9,0.3-1.4,0.3
				c-0.4,0-0.8-0.1-1.2-0.2c-0.3-0.2-0.6-0.4-0.8-0.7s-0.3-0.6-0.3-0.9c0-0.6,0.2-1.2,0.7-1.5c0.5-0.4,1.1-0.6,1.9-0.7L312.9,46.8z
				 M312.9,47.8l-1.5,0.2c-0.6,0.1-1,0.2-1.3,0.4s-0.5,0.4-0.5,0.7c0,0.2,0.1,0.4,0.3,0.6c0.2,0.2,0.5,0.3,0.9,0.3
				c0.6,0,1.1-0.2,1.5-0.5c0.4-0.4,0.6-0.8,0.6-1.4V47.8z"/>
			<path d="M319.6,44.4c0.1,0.1,0.1,0.2,0.1,0.2v0.4c0,0.1,0,0.2-0.1,0.2s-0.2,0.1-0.2,0.1h-0.8c-0.5,0-0.9,0.1-1.1,0.4
				c-0.3,0.3-0.4,0.6-0.4,1.1v3.8c0,0.1,0,0.2-0.1,0.2c-0.1,0.1-0.2,0.1-0.2,0.1h-0.5c-0.1,0-0.2,0-0.2-0.1s-0.1-0.2-0.1-0.2v-6.1
				c0-0.1,0-0.2,0.1-0.2s0.2-0.1,0.2-0.1h0.5c0.1,0,0.2,0,0.2,0.1c0.1,0.1,0.1,0.2,0.1,0.2V45c0.2-0.3,0.4-0.5,0.6-0.6
				c0.2-0.1,0.6-0.2,0.9-0.2h0.7C319.5,44.3,319.5,44.3,319.6,44.4z"/>
			<path d="M322.8,53.5h-0.5c-0.1,0-0.2,0-0.2-0.1s-0.1-0.1-0.1-0.2c0,0,0-0.1,0-0.1l1.2-2.7l-2.6-5.7c0,0,0-0.1,0-0.1
				c0-0.1,0-0.2,0.1-0.2s0.1-0.1,0.2-0.1h0.5c0.2,0,0.3,0.1,0.4,0.3l2,4.4l2-4.4c0.1-0.2,0.2-0.3,0.4-0.3h0.5c0.1,0,0.2,0,0.2,0.1
				s0.1,0.1,0.1,0.2c0,0,0,0.1,0,0.1l-3.9,8.5C323.1,53.4,323,53.5,322.8,53.5z"/>
			<path d="M280.7,65.1c0-0.4,0.1-0.7,0.3-1c0.2-0.3,0.5-0.5,0.9-0.7s0.8-0.3,1.4-0.3c0.5,0,1,0.1,1.4,0.2c0.4,0.2,0.7,0.4,0.9,0.6
				c0.2,0.2,0.3,0.5,0.3,0.7c0,0.1,0,0.2-0.1,0.2c-0.1,0.1-0.2,0.1-0.2,0.1H285c-0.2,0-0.3-0.1-0.4-0.2c-0.3-0.3-0.7-0.5-1.4-0.5
				c-0.4,0-0.7,0.1-1,0.2s-0.4,0.4-0.4,0.6c0,0.2,0.1,0.4,0.2,0.5c0.1,0.1,0.3,0.2,0.5,0.3s0.7,0.2,1.3,0.3c0.8,0.2,1.3,0.4,1.6,0.8
				c0.3,0.3,0.5,0.8,0.5,1.2c0,0.4-0.1,0.7-0.3,1c-0.2,0.3-0.5,0.5-0.9,0.7s-0.9,0.3-1.4,0.3c-0.5,0-1-0.1-1.4-0.3
				c-0.4-0.2-0.7-0.4-1-0.6c-0.2-0.2-0.3-0.5-0.3-0.7c0-0.1,0-0.2,0.1-0.2c0.1-0.1,0.2-0.1,0.2-0.1h0.5c0.1,0,0.1,0,0.2,0
				c0.1,0,0.1,0.1,0.2,0.1c0.3,0.4,0.8,0.6,1.5,0.6c0.4,0,0.8-0.1,1.1-0.3s0.5-0.4,0.5-0.6c0-0.2-0.1-0.4-0.2-0.5
				c-0.2-0.1-0.4-0.2-0.7-0.3c-0.3-0.1-0.7-0.2-1.3-0.3C281.3,66.8,280.7,66.1,280.7,65.1z"/>
			<path d="M288.6,69.9c-0.1,0.1-0.2,0.1-0.2,0.1h-0.5c-0.1,0-0.2,0-0.2-0.1s-0.1-0.2-0.1-0.2v-8.5c0-0.1,0-0.2,0.1-0.2
				s0.2-0.1,0.2-0.1h0.5c0.1,0,0.2,0,0.2,0.1c0.1,0.1,0.1,0.2,0.1,0.2v8.5C288.7,69.8,288.6,69.9,288.6,69.9z"/>
			<path d="M290.6,63.4c0.1-0.1,0.2-0.1,0.2-0.1h0.5c0.1,0,0.2,0,0.2,0.1s0.1,0.2,0.1,0.2v3.4c0,0.7,0.1,1.2,0.4,1.5
				s0.7,0.5,1.3,0.5c0.6,0,1-0.2,1.3-0.5s0.5-0.8,0.5-1.5v-3.4c0-0.1,0-0.2,0.1-0.2s0.2-0.1,0.2-0.1h0.5c0.1,0,0.2,0,0.2,0.1
				c0.1,0.1,0.1,0.2,0.1,0.2v6.1c0,0.1,0,0.2-0.1,0.2c-0.1,0.1-0.2,0.1-0.2,0.1h-0.5c-0.1,0-0.2,0-0.2-0.1s-0.1-0.2-0.1-0.2v-0.4
				c-0.5,0.6-1.1,0.9-2,0.9c-0.8,0-1.5-0.3-2-0.8c-0.5-0.5-0.7-1.2-0.7-2.1v-3.6C290.5,63.5,290.5,63.5,290.6,63.4z"/>
			<path d="M303,61.2c0-0.1,0-0.2,0.1-0.2c0.1-0.1,0.2-0.1,0.2-0.1h0.5c0.1,0,0.2,0,0.2,0.1s0.1,0.2,0.1,0.2v8.5
				c0,0.1,0,0.2-0.1,0.2s-0.2,0.1-0.2,0.1h-0.5c-0.1,0-0.2,0-0.2-0.1c-0.1-0.1-0.1-0.2-0.1-0.2v-0.4c-0.4,0.6-1.1,0.9-2,0.9
				c-0.5,0-1-0.1-1.5-0.4c-0.4-0.3-0.8-0.6-1.1-1.1c-0.3-0.5-0.4-1-0.4-1.6l0-0.4l0-0.4c0-0.6,0.2-1.2,0.4-1.6
				c0.3-0.5,0.6-0.8,1-1.1c0.4-0.3,0.9-0.4,1.5-0.4c0.5,0,0.9,0.1,1.2,0.3c0.3,0.2,0.6,0.4,0.8,0.6V61.2z M302.4,64.8
				c-0.3-0.3-0.8-0.5-1.3-0.5c-0.6,0-1,0.2-1.3,0.5c-0.3,0.4-0.5,0.9-0.6,1.5l0,0.4l0,0.4c0,0.6,0.2,1.1,0.6,1.5
				c0.3,0.4,0.8,0.5,1.3,0.5c0.5,0,1-0.2,1.3-0.5c0.3-0.3,0.5-0.8,0.6-1.3c0-0.1,0-0.3,0-0.5c0-0.3,0-0.4,0-0.5
				C302.9,65.6,302.7,65.1,302.4,64.8z"/>
			<path d="M309.9,63.4c0.3,0.2,0.6,0.4,0.8,0.6v-0.4c0-0.1,0-0.2,0.1-0.2c0.1-0.1,0.2-0.1,0.2-0.1h0.5c0.1,0,0.2,0,0.2,0.1
				s0.1,0.2,0.1,0.2V70c0,0.9-0.3,1.6-0.8,2.2s-1.3,0.8-2.3,0.8c-0.6,0-1.2-0.1-1.6-0.3c-0.4-0.2-0.8-0.4-1-0.7
				c-0.2-0.3-0.3-0.6-0.3-0.9c0-0.1,0-0.2,0.1-0.2s0.2-0.1,0.3-0.1h0.4c0.1,0,0.2,0,0.2,0.1c0.1,0.1,0.1,0.1,0.2,0.3
				c0.1,0.2,0.3,0.4,0.5,0.6c0.2,0.2,0.6,0.3,1.2,0.3c1.3,0,2-0.6,2-1.7v-0.8c-0.4,0.6-1.1,0.9-2,0.9c-0.5,0-1-0.1-1.5-0.4
				c-0.4-0.3-0.8-0.6-1.1-1.1c-0.3-0.5-0.4-1-0.4-1.6l0-0.4l0-0.4c0-0.6,0.2-1.2,0.4-1.6c0.3-0.5,0.6-0.8,1-1.1
				c0.4-0.3,0.9-0.4,1.5-0.4C309.2,63.2,309.6,63.2,309.9,63.4z M307.5,64.8c-0.3,0.4-0.5,0.9-0.6,1.5l0,0.4l0,0.4
				c0,0.6,0.2,1.1,0.6,1.5c0.3,0.4,0.8,0.5,1.3,0.5c0.6,0,1-0.2,1.3-0.5c0.3-0.3,0.5-0.8,0.5-1.4c0-0.1,0-0.2,0-0.5s0-0.4,0-0.5
				c0-0.6-0.2-1.1-0.5-1.4c-0.3-0.3-0.8-0.5-1.3-0.5C308.2,64.3,307.8,64.5,307.5,64.8z"/>
			<path d="M318.6,64c0.5,0.6,0.8,1.4,0.8,2.4v0.4c0,0.1,0,0.2-0.1,0.2s-0.2,0.1-0.2,0.1h-4.5v0.1c0,0.6,0.2,1,0.5,1.3
				c0.3,0.3,0.8,0.5,1.3,0.5c0.4,0,0.8-0.1,1-0.2c0.2-0.1,0.5-0.3,0.6-0.5c0.1-0.1,0.1-0.1,0.2-0.1c0.1,0,0.1,0,0.2,0h0.4
				c0.1,0,0.2,0,0.3,0.1s0.1,0.2,0.1,0.2c0,0.2-0.2,0.5-0.4,0.7c-0.2,0.2-0.5,0.5-0.9,0.6c-0.4,0.2-0.9,0.3-1.5,0.3
				c-0.6,0-1-0.1-1.5-0.4c-0.4-0.3-0.8-0.6-1-1.1c-0.3-0.5-0.4-1-0.5-1.5c0-0.3,0-0.5,0-0.6s0-0.3,0-0.6c0.1-0.5,0.2-1,0.5-1.5
				c0.3-0.4,0.6-0.8,1-1c0.4-0.3,0.9-0.4,1.5-0.4C317.4,63.2,318.1,63.5,318.6,64z M318.3,66.1L318.3,66.1c0-0.6-0.2-1-0.5-1.3
				c-0.3-0.3-0.8-0.5-1.3-0.5c-0.5,0-0.9,0.2-1.3,0.5s-0.5,0.7-0.5,1.3v0H318.3z"/>
		</g>
	</g>
</g>
<g id="Laag_2">
</g>
<g id="Laag_3">
</g>
</svg>
