<?xml version="1.0" encoding="utf-8"?>
<!-- Generator: Adobe Illustrator 15.0.0, SVG Export Plug-In . SVG Version: 6.00 Build 0)  -->
<!DOCTYPE svg PUBLIC "-//W3C//DTD SVG 1.1//EN" "http://www.w3.org/Graphics/SVG/1.1/DTD/svg11.dtd">
<svg version="1.1" id="Layer_1" xmlns="http://www.w3.org/2000/svg" xmlns:xlink="http://www.w3.org/1999/xlink" x="0px" y="0px"
	 width="700px" height="755px" viewBox="0 0 700 755" enable-background="new 0 0 700 755" xml:space="preserve">
<g id="cover">
	<path fill="none" stroke="#441515" stroke-width="2" stroke-miterlimit="10" d="M0,100v325c0,19.299,15.701,35,35,35
		s35-15.701,35-35V295c0-8.271,6.729-15,15-15s15,6.729,15,15v130c0,19.299,15.701,35,35,35s35-15.701,35-35V315
		c0-8.271,6.729-15,15-15s15,6.729,15,15v110c0,19.299,15.701,35,35,35s35-15.701,35-35v-90c0-8.271,6.729-15,15-15s15,6.729,15,15
		v90c0,19.299,15.701,35,35,35s35-15.701,35-35v-65c0-8.271,6.729-15,15-15s15,6.729,15,15v65c0,19.299,15.701,35,35,35
		s35-15.701,35-35v-50c0-8.271,6.729-15,15-15s15,6.729,15,15v50c0,19.299,15.701,35,35,35h85.525"/>
	<path fill="none" stroke="#441515" stroke-width="2" stroke-miterlimit="10" d="M503.998,421.645V425c0,17.093,13.907,31,31,31
		h71.445"/>
	<path fill="none" stroke="#441515" stroke-width="2" stroke-miterlimit="10" d="M3.998,127.73V425c0,17.093,13.906,31,31,31
		c17.094,0,31-13.907,31-31V295c0-10.477,8.523-19,19-19s19,8.523,19,19v130c0,17.093,13.906,31,31,31c17.094,0,31-13.907,31-31V315
		c0-10.477,8.523-19,19-19s19,8.523,19,19v110c0,17.093,13.907,31,31,31c17.093,0,31-13.907,31-31v-90c0-10.477,8.523-19,19-19
		s19,8.523,19,19v90c0,17.093,13.907,31,31,31c17.093,0,31-13.907,31-31v-65c0-10.477,8.523-19,19-19s19,8.523,19,19v65
		c0,17.093,13.906,31,31,31c17.093,0,31-13.907,31-31v-50c0-10.477,8.523-19,19-19s19,8.523,19,19v46.645"/>
	<path fill="none" stroke="#441515" stroke-width="2" stroke-miterlimit="10" d="M8,138.472V425c0,14.889,12.112,27,27,27
		s27-12.111,27-27V295c0-12.682,10.318-23,23-23s23,10.318,23,23v130c0,14.889,12.112,27,27,27s27-12.111,27-27V315
		c0-12.682,10.318-23,23-23s23,10.318,23,23v110c0,14.889,12.112,27,27,27s27-12.111,27-27v-90c0-12.682,10.318-23,23-23
		s23,10.318,23,23v90c0,14.889,12.112,27,27,27s27-12.111,27-27v-65c0-12.682,10.318-23,23-23s23,10.318,23,23v65
		c0,14.889,12.111,27,27,27c14.888,0,27-12.111,27-27v-50c0-12.682,10.318-23,23-23s23,10.318,23,23v50c0,14.889,12.112,27,27,27
		h64.025"/>
	<path fill="none" stroke="#441515" stroke-width="2" stroke-miterlimit="10" d="M12,146.145V425c0,12.682,10.318,23,23,23
		s23-10.318,23-23V295c0-14.889,12.112-27,27-27s27,12.111,27,27v130c0,12.682,10.318,23,23,23s23-10.318,23-23V315
		c0-14.889,12.112-27,27-27s27,12.111,27,27v110c0,12.682,10.318,23,23,23s23-10.318,23-23v-90c0-14.889,12.112-27,27-27
		s27,12.111,27,27v90c0,12.682,10.318,23,23,23s23-10.318,23-23v-65c0-14.889,12.111-27,27-27s27,12.111,27,27v65
		c0,12.682,10.318,23,23,23s23-10.318,23-23v-50c0-14.889,12.112-27,27-27s27,12.111,27,27v50c0,12.682,10.318,23,23,23h59.148"/>
	<path fill="none" stroke="#441515" stroke-width="2" stroke-miterlimit="10" d="M16,152.539V425c0,10.477,8.523,19,19,19
		s19-8.523,19-19V295c0-17.093,13.906-31,31-31s31,13.907,31,31v130c0,10.477,8.523,19,19,19s19-8.523,19-19V315
		c0-17.093,13.906-31,31-31s31,13.907,31,31v110c0,10.477,8.523,19,19,19s19-8.523,19-19v-90c0-17.093,13.907-31,31-31
		s31,13.907,31,31v90c0,10.477,8.523,19,19,19s19-8.523,19-19v-65c0-17.093,13.907-31,31-31s31,13.907,31,31v65
		c0,10.477,8.523,19,19,19s19-8.523,19-19v-50c0-17.093,13.907-31,31-31s31,13.907,31,31v50c0,10.477,8.523,19,19,19h54.958"/>
	<path fill="none" stroke="#441515" stroke-width="2" stroke-miterlimit="10" d="M20,158.677V425c0,8.271,6.729,15,15,15
		s15-6.729,15-15V295c0-19.299,15.701-35,35-35s35,15.701,35,35v130c0,8.271,6.729,15,15,15s15-6.729,15-15V315
		c0-19.299,15.701-35,35-35s35,15.701,35,35v110c0,8.271,6.729,15,15,15s15-6.729,15-15v-90c0-19.299,15.701-35,35-35
		s35,15.701,35,35v90c0,8.271,6.729,15,15,15s15-6.729,15-15v-65c0-19.299,15.701-35,35-35s35,15.701,35,35v65
		c0,8.271,6.729,15,15,15s15-6.729,15-15v-50c0-19.299,15.701-35,35-35s35,15.701,35,35v50c0,8.271,6.729,15,15,15h51.729"/>
</g>
<path fill="none" stroke="#FFFF00" stroke-width="2" stroke-miterlimit="10" d="M0,422.911V425c0,19.299,15.701,35,35,35
	s35-15.701,35-35V295c0-8.271,6.729-15,15-15s15,6.729,15,15v128.093"/>
<path fill="none" stroke="#00FFFF" stroke-width="2" stroke-miterlimit="10" d="M100,423.093V425c0,19.299,15.701,35,35,35
	s35-15.701,35-35V315c0-8.271,6.729-15,15-15s15,6.729,15,15v108.119"/>
<path fill="none" stroke="#0000FF" stroke-width="2" stroke-miterlimit="10" d="M200,423.119V425c0,19.299,15.701,35,35,35
	s35-15.701,35-35v-90c0-8.271,6.729-15,15-15s15,6.729,15,15v90c0,0.486,0.01,0.973,0.03,1.455"/>
<path fill="none" stroke="#DE0000" stroke-width="2" stroke-miterlimit="10" d="M300.03,426.455
	C300.795,445.082,316.188,460,335,460c19.299,0,35-15.701,35-35v-65c0-8.271,6.729-15,15-15s15,6.729,15,15v63.408"/>
<path fill="none" stroke="#00FF00" stroke-width="2" stroke-miterlimit="10" d="M400,423.408V425c0,19.299,15.701,35,35,35
	s35-15.701,35-35v-50c0-8.271,6.729-15,15-15s15,6.729,15,15v46.588"/>
<path fill="none" stroke="#153D15" stroke-miterlimit="10" d="M500,421.588V425c0,19.299,15.701,35,35,35h85.482"/>
<path fill="none" stroke="#153D15" stroke-miterlimit="10" d="M503.998,421.645V425c0,1.457,0.101,2.891,0.296,4.295
	C506.392,444.361,519.362,456,534.998,456h71.443"/>
<path fill="none" stroke="#00FF00" stroke-width="2" stroke-miterlimit="10" d="M403.998,423.193V425c0,17.093,13.906,31,31,31
	c17.093,0,31-13.907,31-31v-50c0-10.477,8.523-19,19-19s19,8.523,19,19v46.645"/>
<path fill="none" stroke="#DE0000" stroke-width="2" stroke-miterlimit="10" d="M304.229,428.79
	C306.104,444.102,319.188,456,335,456c17.093,0,31-13.907,31-31v-65c0-10.477,8.523-19,19-19s19,8.523,19,19v63.193"/>
<path fill="none" stroke="#0000FF" stroke-width="2" stroke-miterlimit="10" d="M204.587,431.032
	C207.402,445.248,219.968,456,234.998,456c17.093,0,31-13.907,31-31v-90c0-10.477,8.523-19,19-19s19,8.523,19,19v90
	c0,1.283,0.079,2.548,0.229,3.79"/>
<path fill="none" stroke="#00FFFF" stroke-width="2" stroke-miterlimit="10" d="M104.158,428.164
	c1.59,15.611,14.813,27.836,30.84,27.836c17.094,0,31-13.907,31-31V315c0-10.477,8.523-19,19-19s19,8.523,19,19v110
	c0,2.062,0.203,4.08,0.589,6.032"/>
<path fill="none" stroke="#FFFF00" stroke-width="2" stroke-miterlimit="10" d="M3.998,418.794V425c0,17.093,13.906,31,31,31
	c17.094,0,31-13.907,31-31V295c0-10.477,8.523-19,19-19s19,8.523,19,19v130c0,1.068,0.054,2.124,0.16,3.164"/>
<path fill="none" stroke="#153D15" stroke-miterlimit="10" d="M508,421.57V425c0,14.889,12.112,27,27,27h64.037"/>
<path fill="none" stroke="#00FF00" stroke-width="2" stroke-miterlimit="10" d="M408.391,429.588
	C410.575,442.299,421.676,452,435,452c14.888,0,27-12.111,27-27v-50c0-12.682,10.318-23,23-23s23,10.318,23,23v46.57"/>
<path fill="none" stroke="#DE0000" stroke-width="2" stroke-miterlimit="10" d="M308,419.365V425c0,14.889,12.112,27,27,27
	s27-12.111,27-27v-65c0-12.682,10.318-23,23-23s23,10.318,23,23v65c0,1.562,0.134,3.098,0.391,4.588"/>
<path fill="none" stroke="#0000FF" stroke-width="2" stroke-miterlimit="10" d="M208,408.132V425c0,14.889,12.112,27,27,27
	s27-12.111,27-27v-90c0-12.682,10.318-23,23-23s23,10.318,23,23v84.365"/>
<path fill="none" stroke="#00FFFF" stroke-width="2" stroke-miterlimit="10" d="M108,410.613V425c0,14.889,12.112,27,27,27
	s27-12.111,27-27V315c0-12.682,10.318-23,23-23s23,10.318,23,23v93.132"/>
<path fill="none" stroke="#FFFF00" stroke-width="2" stroke-miterlimit="10" d="M11.1,437.553C15.626,446.136,24.641,452,35,452
	c14.888,0,27-12.111,27-27V295c0-12.682,10.318-23,23-23s23,10.318,23,23v115.613"/>
<path fill="none" stroke="#153D15" stroke-miterlimit="10" d="M512,421.5v3.5c0,1.585,0.161,3.134,0.468,4.63
	C514.616,440.102,523.903,448,535,448h59.046"/>
<path fill="none" stroke="#00FF00" stroke-width="2" stroke-miterlimit="10" d="M412,419.975V425c0,12.682,10.318,23,23,23
	s23-10.318,23-23v-50c0-14.889,12.112-27,27-27s27,12.111,27,27v46.5"/>
<path fill="none" stroke="#DE0000" stroke-width="2" stroke-miterlimit="10" d="M312.199,428.032
	C313.688,439.286,323.346,448,335,448c12.682,0,23-10.318,23-23v-65c0-14.889,12.111-27,27-27s27,12.111,27,27v59.975"/>
<path fill="none" stroke="#0000FF" stroke-width="2" stroke-miterlimit="10" d="M212.047,426.479
	C212.812,438.475,222.815,448,235,448c12.682,0,23-10.318,23-23v-90c0-14.889,12.112-27,27-27s27,12.111,27,27v90
	c0,1.027,0.068,2.04,0.199,3.032"/>
<path fill="none" stroke="#00FFFF" stroke-width="2" stroke-miterlimit="10" d="M114.021,434.425
	C117.627,442.42,125.674,448,135,448c12.682,0,23-10.318,23-23V315c0-14.889,12.112-27,27-27s27,12.111,27,27v110
	c0,0.497,0.016,0.99,0.047,1.479"/>
<path fill="none" stroke="#FFFF00" stroke-width="2" stroke-miterlimit="10" d="M12,421.066V425c0,12.682,10.318,23,23,23
	s23-10.318,23-23V295c0-14.889,12.112-27,27-27s27,12.111,27,27v130c0,3.355,0.723,6.547,2.021,9.425"/>
<path fill="none" stroke="#153D15" stroke-miterlimit="10" d="M516,421.57V425c0,10.477,8.523,19,19,19h54.877"/>
<path fill="none" stroke="#00FF00" stroke-width="2" stroke-miterlimit="10" d="M416.364,428.716
	C418.098,437.42,425.795,444,435,444c10.477,0,19-8.523,19-19v-50c0-17.093,13.907-31,31-31s31,13.907,31,31v46.57"/>
<path fill="none" stroke="#DE0000" stroke-width="2" stroke-miterlimit="10" d="M316,421.98V425c0,10.477,8.523,19,19,19
	s19-8.523,19-19v-65c0-17.093,13.907-31,31-31s31,13.907,31,31v65c0,1.271,0.125,2.514,0.364,3.716"/>
<path fill="none" stroke="#0000FF" stroke-width="2" stroke-miterlimit="10" d="M216,411.486V425c0,10.477,8.523,19,19,19
	s19-8.523,19-19v-90c0-17.093,13.907-31,31-31s31,13.907,31,31v86.98"/>
<path fill="none" stroke="#00FFFF" stroke-width="2" stroke-miterlimit="10" d="M116,414.018V425c0,10.477,8.523,19,19,19
	s19-8.523,19-19V315c0-17.093,13.906-31,31-31s31,13.907,31,31v96.486"/>
<path fill="none" stroke="#FFFF00" stroke-width="2" stroke-miterlimit="10" d="M17.118,431.424C19.757,438.748,26.776,444,35,444
	c10.477,0,19-8.523,19-19V295c0-17.093,13.906-31,31-31s31,13.907,31,31v119.018"/>
<path fill="none" stroke="#153D15" stroke-miterlimit="10" d="M520,421.555V425c0,8.271,6.729,15,15,15h51.751"/>
<path fill="none" stroke="#00FF00" stroke-width="2" stroke-miterlimit="10" d="M420,420.709V425c0,8.271,6.729,15,15,15
	s15-6.729,15-15v-50c0-19.299,15.701-35,35-35s35,15.701,35,35v46.555"/>
<path fill="none" stroke="#DE0000" stroke-width="2" stroke-miterlimit="10" d="M320.374,428.338
	C321.896,435.009,327.875,440,335,440c8.271,0,15-6.729,15-15v-65c0-19.299,15.701-35,35-35s35,15.701,35,35v60.709"/>
<path fill="none" stroke="#0000FF" stroke-width="2" stroke-miterlimit="10" d="M221.249,430.991
	C223.565,436.289,228.857,440,235,440c8.271,0,15-6.729,15-15v-90c0-19.299,15.701-35,35-35s35,15.701,35,35v90
	c0,1.146,0.129,2.264,0.374,3.338"/>
<path fill="none" stroke="#00FFFF" stroke-width="2" stroke-miterlimit="10" d="M120,422.668V425c0,8.271,6.729,15,15,15
	s15-6.729,15-15V315c0-19.299,15.701-35,35-35s35,15.701,35,35v110c0,2.129,0.446,4.154,1.249,5.991"/>
<path fill="none" stroke="#FFFF00" stroke-width="2" stroke-miterlimit="10" d="M20,413.966V425c0,8.271,6.729,15,15,15
	s15-6.729,15-15V295c0-19.299,15.701-35,35-35s35,15.701,35,35v127.668"/>
<polyline fill="none" stroke="#FF6D00" stroke-width="2" stroke-miterlimit="10" points="0,440.098 0,474.377 0,796 "/>
<polyline fill="none" stroke="#FF6D00" stroke-width="2" stroke-miterlimit="10" points="3.998,447.559 3.998,466.891 3.998,796 "/>
<polyline fill="none" stroke="#49FF8D" stroke-width="2" stroke-miterlimit="10" points="100,438.541 100,471.881 100,796 "/>
<polyline fill="none" stroke="#49FF8D" stroke-width="2" stroke-miterlimit="10" points="103.998,447.464 103.998,468.553 
	103.998,796 "/>
<polyline fill="none" stroke="#FF827C" stroke-width="2" stroke-miterlimit="10" points="200,438.562 200,497.43 200,796 "/>
<polyline fill="none" stroke="#FF827C" stroke-width="2" stroke-miterlimit="10" points="203.998,447.289 203.998,516.225 
	203.998,796 "/>
<polyline fill="none" stroke="#D1C49A" stroke-width="2" stroke-miterlimit="10" points="300,438.164 300,518.314 300,796 "/>
<polyline fill="none" stroke="#D1C49A" stroke-width="2" stroke-miterlimit="10" points="303.998,446.596 303.998,506.828 
	303.998,796 "/>
<polyline fill="none" stroke="#00011F" stroke-width="2" stroke-miterlimit="10" points="400,438.346 400,547.028 400,796 "/>
<polyline fill="none" stroke="#00011F" stroke-width="2" stroke-miterlimit="10" points="403.998,447.82 403.998,525.624 
	403.998,796 "/>
<polyline fill="none" stroke="#00DF22" stroke-width="2" stroke-miterlimit="10" points="499.982,437.312 499.982,567.912 
	499.982,796 "/>
<polyline fill="none" stroke="#00DF22" stroke-width="2" stroke-miterlimit="10" points="503.98,446.878 503.98,553.293 503.98,796 
	"/>
<g>
	<path fill="none" stroke="#FF0055" stroke-width="2" stroke-miterlimit="10" d="M106.825,91.052
		c-2.959-4.175-7.829-6.9-13.336-6.898c-9.023,0-16.336,7.314-16.336,16.336c0,9.022,7.313,16.336,16.336,16.336
		c9.023,0,16.336-7.315,16.336-16.336C109.825,96.973,108.714,93.717,106.825,91.052"/>
	<path fill="none" stroke="#FF0055" stroke-width="2" stroke-miterlimit="10" d="M81.548,83.019
		c-5.566,3.811-9.217,10.214-9.217,17.47c0,11.685,9.474,21.158,21.158,21.158c11.684,0,21.157-9.473,21.157-21.158
		c0-11.685-9.472-21.158-21.157-21.158C89.059,79.331,84.946,80.692,81.548,83.019"/>
	<path fill="none" stroke="#FF0055" stroke-width="2" stroke-miterlimit="10" d="M114.782,85.6
		c-4.698-6.706-12.483-11.092-21.293-11.092c-14.348,0-25.979,11.633-25.979,25.98c0,14.347,11.631,25.98,25.979,25.98
		c14.348,0,25.979-11.632,25.979-25.98C119.469,94.95,117.735,89.816,114.782,85.6"/>
	<path fill="none" stroke="#FF0055" stroke-width="2" stroke-miterlimit="10" d="M65.104,88.508
		c-1.557,3.682-2.417,7.731-2.417,11.98c0,17.012,13.791,30.804,30.802,30.804c17.011,0,30.802-13.791,30.802-30.803
		c0-17.012-13.791-30.802-30.802-30.802C80.728,69.687,69.778,77.448,65.104,88.508"/>
	<path fill="none" stroke="#FF0055" stroke-width="2" stroke-miterlimit="10" d="M125.079,84.007
		c-5.948-11.377-17.862-19.143-31.59-19.143c-19.675,0-35.624,15.949-35.624,35.624c0,19.675,15.949,35.624,35.624,35.624
		c19.675,0,35.624-15.949,35.624-35.624C129.113,94.542,127.656,88.936,125.079,84.007"/>
	<path fill="none" stroke="#FF0055" stroke-width="2" stroke-miterlimit="10" d="M57.064,82.883
		c-2.577,5.322-4.022,11.295-4.022,17.605c0,22.338,18.109,40.446,40.446,40.446c22.338,0,40.446-18.108,40.446-40.446
		c0-22.338-18.108-40.446-40.446-40.446C77.461,60.042,63.611,69.364,57.064,82.883"/>
	<path fill="none" stroke="#FF0055" stroke-width="2" stroke-miterlimit="10" d="M127.956,71.141
		c-8.304-9.743-20.664-15.92-34.467-15.921c-25.001,0-45.269,20.267-45.269,45.268c0,25.001,20.268,45.27,45.269,45.27
		c25.001,0,45.269-20.268,45.269-45.269C138.758,89.291,134.692,79.043,127.956,71.141"/>
	<path fill="none" stroke="#FF0055" stroke-width="2" stroke-miterlimit="10" d="M46.463,83.195
		c-1.983,5.39-3.065,11.215-3.066,17.293c0,27.664,22.428,50.09,50.091,50.09c27.663,0,50.091-22.426,50.091-50.09
		c0-27.664-22.428-50.09-50.091-50.09C71.903,50.398,53.505,64.052,46.463,83.195"/>
	<path fill="none" stroke="#FF0055" stroke-width="2" stroke-miterlimit="10" d="M141.744,74.259
		c-9.308-17.087-27.428-28.683-48.255-28.683c-30.327,0-54.912,24.585-54.912,54.912c0,30.327,24.585,54.912,54.912,54.912
		c30.327,0,54.912-24.585,54.912-54.912C148.401,90.989,145.989,82.052,141.744,74.259"/>
	<path fill="none" stroke="#FF0055" stroke-width="2" stroke-miterlimit="10" d="M66.84,47.014
		c-19.615,9.793-33.086,30.06-33.085,53.474c0,32.99,26.744,59.734,59.734,59.734c32.99,0,59.734-26.744,59.734-59.734
		c0-32.99-26.744-59.734-59.734-59.734C83.912,40.754,74.862,43.008,66.84,47.014"/>
	<path fill="none" stroke="#FF0055" stroke-width="2" stroke-miterlimit="10" d="M129.582,46.956
		c-10.303-6.96-22.724-11.025-36.094-11.025c-35.654,0-64.557,28.903-64.557,64.557c0,35.654,28.903,64.557,64.557,64.557
		c35.654,0,64.556-28.904,64.556-64.557C158.044,78.205,146.754,58.558,129.582,46.956"/>
	<path fill="none" stroke="#FF0055" stroke-width="2" stroke-miterlimit="10" d="M35.536,62.33
		C28.313,73.277,24.11,86.392,24.11,100.488c0,38.317,31.062,69.379,69.379,69.379c38.317,0,69.379-31.062,69.379-69.379
		c0-38.317-31.063-69.379-69.379-69.379C69.269,31.109,47.947,43.52,35.536,62.33"/>
	<path fill="none" stroke="#FF0055" stroke-width="2" stroke-miterlimit="10" d="M148.66,50.871
		c-13.582-15.093-33.268-24.584-55.171-24.584c-40.979,0-74.2,33.222-74.2,74.201s33.221,74.201,74.2,74.201
		s74.2-33.222,74.2-74.201C167.689,81.412,160.49,64.017,148.66,50.871"/>
	<path fill="none" stroke="#FF0055" stroke-width="2" stroke-miterlimit="10" d="M32.51,50.222
		c-11.273,13.66-18.044,31.173-18.043,50.266c0,43.642,35.38,79.022,79.022,79.022c43.642,0,79.022-35.38,79.022-79.022
		c0-43.642-35.379-79.023-79.022-79.023C68.939,21.465,47.005,32.66,32.51,50.222"/>
	<path fill="none" stroke="#FF0055" stroke-width="2" stroke-miterlimit="10" d="M146.822,35.79
		c-14.494-11.961-33.075-19.146-53.333-19.146c-46.306,0-83.845,37.538-83.845,83.844c0,46.306,37.539,83.845,83.845,83.845
		c46.306,0,83.845-37.539,83.845-83.845C177.334,74.441,165.456,51.168,146.822,35.79"/>
	<path fill="none" stroke="#FF0055" stroke-width="2" stroke-miterlimit="10" d="M38.662,30.8
		c-20.608,16.236-33.84,41.417-33.84,69.688c0,48.969,39.698,88.667,88.667,88.667c48.969,0,88.667-39.698,88.667-88.667
		c0-48.969-39.698-88.666-88.667-88.666C72.791,11.822,53.75,18.914,38.662,30.8"/>
	<path fill="none" stroke="#FF0055" stroke-width="2" stroke-miterlimit="10" d="M136.663,17.545C123.748,10.809,109.063,7,93.489,7
		C41.857,7,0,48.856,0,100.488c0,51.632,41.857,93.488,93.489,93.488c51.632,0,93.489-41.856,93.489-93.488
		C186.978,64.431,166.564,33.141,136.663,17.545"/>
</g>
<g>
	<path fill="none" stroke="#FF00FF" stroke-width="2" stroke-miterlimit="10" d="M0,100v322.911"/>
	<path fill="none" stroke="#FF00FF" stroke-width="2" stroke-miterlimit="10" d="M3.998,127.502v291.292"/>
	<path fill="none" stroke="#FF00FF" stroke-width="2" stroke-miterlimit="10" d="M8,138.396V425c0,4.527,1.121,8.801,3.1,12.553"/>
	<path fill="none" stroke="#FF00FF" stroke-width="2" stroke-miterlimit="10" d="M12,145.938v275.128"/>
	<path fill="none" stroke="#FF00FF" stroke-width="2" stroke-miterlimit="10" d="M16,152.307V425c0,2.254,0.394,4.417,1.118,6.424"
		/>
	<path fill="none" stroke="#FF00FF" stroke-width="2" stroke-miterlimit="10" d="M20,158.508v255.458"/>
	<path fill="none" stroke="#FF00FF" stroke-width="2" stroke-miterlimit="10" d="M0,100"/>
	<path fill="none" stroke="#FF00FF" stroke-width="2" stroke-miterlimit="10" d="M0,100"/>
</g>
<g>
	<path fill="none" stroke="#153D15" stroke-miterlimit="10" d="M677.541,410.129c0,27.479-22.274,49.752-49.752,49.752
		c-27.479,0-49.752-22.271-49.752-49.752c0-23.963,16.938-43.969,39.499-48.695c3.309-0.689,6.738-1.057,10.253-1.057
		C655.267,360.377,677.541,382.65,677.541,410.129z"/>
	<path fill="none" stroke="#153D15" stroke-miterlimit="10" d="M673.095,410.129c0,25.021-20.284,45.307-45.306,45.307
		c-25.022,0-45.307-20.281-45.307-45.307c0-22.212,15.98-40.688,37.074-44.559c2.669-0.49,5.419-0.746,8.229-0.746
		C652.811,364.824,673.095,385.107,673.095,410.129z"/>
	<path fill="none" stroke="#153D15" stroke-miterlimit="10" d="M668.646,410.129c0,22.564-18.291,40.857-40.857,40.857
		s-40.858-18.293-40.858-40.857c0-21.134,16.045-38.52,36.619-40.641c1.396-0.146,2.811-0.22,4.239-0.22
		C650.355,369.271,668.646,387.562,668.646,410.129z"/>
	<path fill="none" stroke="#153D15" stroke-miterlimit="10" d="M664.201,410.129c0,20.109-16.303,36.412-36.412,36.412
		c-20.11,0-36.412-16.303-36.412-36.412c0-18.779,14.216-34.238,32.475-36.202c1.293-0.139,2.606-0.21,3.938-0.21
		C647.898,373.717,664.201,390.02,664.201,410.129z"/>
	<path fill="none" stroke="#153D15" stroke-miterlimit="10" d="M659.754,410.129c0,17.654-14.311,31.965-31.965,31.965
		s-31.965-14.311-31.965-31.965c0-16.215,12.072-29.606,27.72-31.686c1.389-0.188,2.806-0.279,4.245-0.279
		C645.443,378.164,659.754,392.475,659.754,410.129z"/>
	<path fill="none" stroke="#153D15" stroke-miterlimit="10" d="M655.308,410.129c0,15.198-12.316,27.521-27.519,27.521
		s-27.521-12.319-27.521-27.521c0-13.749,10.084-25.143,23.262-27.188c1.389-0.218,2.812-0.328,4.261-0.328
		C642.987,382.609,655.308,394.932,655.308,410.129z"/>
	<path fill="none" stroke="#153D15" stroke-miterlimit="10" d="M650.861,410.129c0,12.742-10.33,23.072-23.072,23.072
		s-23.072-10.33-23.072-23.072c0-11.501,8.416-21.036,19.426-22.785c1.188-0.188,2.405-0.287,3.646-0.287
		C640.531,387.057,650.861,397.387,650.861,410.129z"/>
	<path fill="none" stroke="#153D15" stroke-miterlimit="10" d="M646.414,410.129c0,10.286-8.339,18.625-18.625,18.625
		c-10.287,0-18.625-8.339-18.625-18.625c0-9.059,6.465-16.604,15.032-18.279c1.163-0.227,2.36-0.346,3.593-0.346
		C638.075,391.504,646.414,399.842,646.414,410.129z"/>
	<path fill="none" stroke="#153D15" stroke-miterlimit="10" d="M641.968,410.129c0,7.831-6.348,14.18-14.179,14.18
		s-14.179-6.349-14.179-14.18c0-6.578,4.479-12.109,10.556-13.712c1.156-0.306,2.371-0.467,3.623-0.467
		C635.62,395.95,641.968,402.299,641.968,410.129z"/>
	<path fill="none" stroke="#153D15" stroke-miterlimit="10" d="M637.521,410.129c0,5.375-4.357,9.73-9.732,9.73
		s-9.731-4.355-9.731-9.73c0-4.173,2.625-7.729,6.315-9.115c1.062-0.396,2.214-0.614,3.416-0.614
		C633.164,400.396,637.521,404.754,637.521,410.129z"/>
	<path fill="none" stroke="#153D15" stroke-miterlimit="10" d="M633.074,410.129c0,2.919-2.366,5.285-5.285,5.285
		s-5.285-2.366-5.285-5.285c0-1.824,0.924-3.434,2.33-4.383c0.844-0.569,1.86-0.902,2.955-0.902
		C630.708,404.844,633.074,407.21,633.074,410.129z"/>
</g>
</svg>
