<?xml version="1.0" encoding="utf-8"?>
<!-- Generator: Adobe Illustrator 15.0.0, SVG Export Plug-In . SVG Version: 6.00 Build 0)  -->
<!DOCTYPE svg PUBLIC "-//W3C//DTD SVG 1.1//EN" "http://www.w3.org/Graphics/SVG/1.1/DTD/svg11.dtd">
<svg version="1.1" id="Layer_1" xmlns="http://www.w3.org/2000/svg" xmlns:xlink="http://www.w3.org/1999/xlink" x="0px" y="0px"
	 width="510.072px" height="597.564px" viewBox="0 0 510.072 597.564" enable-background="new 0 0 510.072 597.564"
	 xml:space="preserve">
<g id="cover">
	<path fill="none" stroke="#441515" stroke-width="2" stroke-miterlimit="10" d="M0,76.666v243.455
		c0,14.457,11.762,26.218,26.218,26.218s26.218-11.762,26.218-26.218v-97.382c0-6.196,5.041-11.236,11.236-11.236
		s11.236,5.041,11.236,11.236v97.382c0,14.457,11.762,26.218,26.218,26.218s26.218-11.762,26.218-26.218v-82.4
		c0-6.196,5.041-11.236,11.236-11.236s11.236,5.04,11.236,11.236v82.4c0,14.457,11.762,26.218,26.218,26.218
		s26.218-11.762,26.218-26.218v-67.418c0-6.196,5.041-11.237,11.236-11.237c6.196,0,11.237,5.041,11.237,11.237v67.418
		c0,14.457,11.761,26.218,26.218,26.218c14.457,0,26.218-11.762,26.218-26.218V271.43c0-6.196,5.041-11.236,11.237-11.236
		c6.196,0,11.236,5.04,11.236,11.236v48.691c0,14.457,11.762,26.218,26.218,26.218s26.218-11.762,26.218-26.218v-37.455
		c0-6.196,5.041-11.236,11.236-11.236c6.196,0,11.236,5.041,11.236,11.236v37.455c0,14.457,11.762,26.218,26.219,26.218h64.066"/>
	<path fill="none" stroke="#441515" stroke-width="2" stroke-miterlimit="10" d="M377.541,317.607v2.513
		c0,12.804,10.418,23.222,23.222,23.222h53.52"/>
	<path fill="none" stroke="#441515" stroke-width="2" stroke-miterlimit="10" d="M2.995,97.438v222.683
		c0,12.804,10.417,23.222,23.222,23.222c12.805,0,23.222-10.418,23.222-23.222v-97.382c0-7.848,6.385-14.233,14.233-14.233
		s14.233,6.385,14.233,14.233v97.382c0,12.804,10.417,23.222,23.222,23.222c12.805,0,23.222-10.418,23.222-23.222v-82.4
		c0-7.848,6.384-14.233,14.232-14.233c7.849,0,14.233,6.385,14.233,14.233v82.4c0,12.804,10.417,23.222,23.222,23.222
		s23.222-10.418,23.222-23.222v-67.418c0-7.848,6.384-14.233,14.232-14.233c7.849,0,14.233,6.385,14.233,14.233v67.418
		c0,12.804,10.417,23.222,23.222,23.222c12.804,0,23.222-10.418,23.222-23.222V271.43c0-7.848,6.385-14.233,14.233-14.233
		c7.848,0,14.232,6.385,14.232,14.233v48.691c0,12.804,10.417,23.222,23.222,23.222c12.804,0,23.222-10.418,23.222-23.222v-37.455
		c0-7.848,6.385-14.232,14.233-14.232s14.232,6.385,14.232,14.232v34.941"/>
	<path fill="none" stroke="#441515" stroke-width="2" stroke-miterlimit="10" d="M5.993,105.485v214.636
		c0,11.153,9.073,20.226,20.226,20.226s20.226-9.072,20.226-20.226v-97.382c0-9.5,7.729-17.229,17.229-17.229
		s17.229,7.729,17.229,17.229v97.382c0,11.153,9.073,20.226,20.226,20.226c11.153,0,20.226-9.072,20.226-20.226v-82.4
		c0-9.5,7.729-17.229,17.229-17.229s17.229,7.729,17.229,17.229v82.4c0,11.153,9.073,20.226,20.225,20.226
		c11.153,0,20.226-9.072,20.226-20.226v-67.418c0-9.5,7.729-17.229,17.229-17.229c9.5,0,17.229,7.729,17.229,17.229v67.418
		c0,11.153,9.073,20.226,20.226,20.226c11.152,0,20.225-9.072,20.225-20.226V271.43c0-9.5,7.729-17.229,17.229-17.229
		c9.5,0,17.229,7.729,17.229,17.229v48.691c0,11.153,9.072,20.226,20.226,20.226c11.152,0,20.226-9.072,20.226-20.226v-37.455
		c0-9.5,7.729-17.229,17.229-17.229c9.5,0,17.229,7.729,17.229,17.229v37.455c0,11.153,9.073,20.226,20.226,20.226h47.961"/>
	<path fill="none" stroke="#441515" stroke-width="2" stroke-miterlimit="10" d="M8.989,111.232v208.888
		c0,9.5,7.729,17.229,17.229,17.229s17.229-7.729,17.229-17.229v-97.382c0-11.153,9.073-20.226,20.226-20.226
		c11.153,0,20.226,9.072,20.226,20.226v97.382c0,9.5,7.729,17.229,17.229,17.229s17.229-7.729,17.229-17.229v-82.4
		c0-11.153,9.073-20.226,20.226-20.226c11.153,0,20.226,9.072,20.226,20.226v82.4c0,9.5,7.729,17.229,17.229,17.229
		c9.5,0,17.229-7.729,17.229-17.229v-67.418c0-11.153,9.073-20.226,20.225-20.226c11.153,0,20.226,9.072,20.226,20.226v67.418
		c0,9.5,7.729,17.229,17.229,17.229c9.5,0,17.229-7.729,17.229-17.229V271.43c0-11.153,9.072-20.226,20.226-20.226
		c11.153,0,20.225,9.073,20.225,20.226v48.691c0,9.5,7.729,17.229,17.229,17.229c9.5,0,17.229-7.729,17.229-17.229v-37.455
		c0-11.153,9.074-20.226,20.225-20.226c11.152,0,20.226,9.073,20.226,20.226v37.455c0,9.5,7.729,17.229,17.229,17.229h44.308"/>
	<path fill="none" stroke="#441515" stroke-width="2" stroke-miterlimit="10" d="M11.985,116.022v204.098
		c0,7.848,6.385,14.233,14.233,14.233s14.233-6.385,14.233-14.233v-97.382c0-12.804,10.417-23.222,23.222-23.222
		s23.222,10.418,23.222,23.222v97.382c0,7.848,6.385,14.233,14.233,14.233s14.233-6.385,14.233-14.233v-82.4
		c0-12.804,10.417-23.222,23.222-23.222s23.222,10.418,23.222,23.222v82.4c0,7.848,6.384,14.233,14.232,14.233
		c7.849,0,14.233-6.385,14.233-14.233v-67.418c0-12.804,10.418-23.222,23.222-23.222c12.804,0,23.222,10.418,23.222,23.222v67.418
		c0,7.848,6.384,14.233,14.233,14.233c7.848,0,14.232-6.385,14.232-14.233V271.43c0-12.804,10.418-23.222,23.222-23.222
		c12.804,0,23.222,10.417,23.222,23.222v48.691c0,7.848,6.385,14.233,14.233,14.233c7.848,0,14.232-6.385,14.232-14.233v-37.455
		c0-12.804,10.418-23.222,23.222-23.222c12.805,0,23.223,10.418,23.223,23.222v37.455c0,7.848,6.385,14.233,14.232,14.233h41.169"/>
	<path fill="none" stroke="#441515" stroke-width="2" stroke-miterlimit="10" d="M14.982,120.62v199.5
		c0,6.196,5.041,11.236,11.236,11.236s11.236-5.04,11.236-11.236v-97.382c0-14.457,11.762-26.218,26.218-26.218
		s26.218,11.762,26.218,26.218v97.382c0,6.196,5.041,11.236,11.236,11.236s11.236-5.04,11.236-11.236v-82.4
		c0-14.457,11.762-26.218,26.218-26.218s26.218,11.762,26.218,26.218v82.4c0,6.196,5.041,11.236,11.236,11.236
		s11.237-5.04,11.237-11.236v-67.418c0-14.457,11.761-26.218,26.218-26.218c14.457,0,26.218,11.761,26.218,26.218v67.418
		c0,6.196,5.041,11.236,11.237,11.236c6.195,0,11.236-5.04,11.236-11.236V271.43c0-14.457,11.762-26.218,26.218-26.218
		s26.218,11.762,26.218,26.218v48.691c0,6.196,5.04,11.236,11.236,11.236c6.196,0,11.236-5.04,11.236-11.236v-37.455
		c0-14.457,11.762-26.218,26.218-26.218c14.457,0,26.219,11.762,26.219,26.218v37.455c0,6.196,5.04,11.236,11.236,11.236h38.749"/>
</g>
<g id="Layer_1_1_">
	<path fill="none" stroke="#FFFF00" stroke-width="2" stroke-miterlimit="10" d="M0,318.556v1.564
		c0,14.457,11.762,26.218,26.218,26.218s26.218-11.762,26.218-26.218v-97.382c0-6.196,5.041-11.236,11.236-11.236
		s11.236,5.041,11.236,11.236v95.953"/>
	<path fill="none" stroke="#00FFFF" stroke-width="2" stroke-miterlimit="10" d="M74.909,318.692v1.429
		c0,14.457,11.762,26.218,26.218,26.218s26.218-11.762,26.218-26.218v-82.4c0-6.196,5.041-11.236,11.236-11.236
		s11.236,5.04,11.236,11.236v80.991"/>
	<path fill="none" stroke="#0000FF" stroke-width="2" stroke-miterlimit="10" d="M149.818,318.712v1.409
		c0,14.457,11.762,26.218,26.218,26.218s26.218-11.762,26.218-26.218v-67.418c0-6.196,5.041-11.237,11.236-11.237
		c6.196,0,11.237,5.041,11.237,11.237v67.418c0,0.364,0.007,0.729,0.022,1.09"/>
	<path fill="none" stroke="#DE0000" stroke-width="2" stroke-miterlimit="10" d="M224.75,321.211
		c0.573,13.953,12.104,25.128,26.196,25.128c14.457,0,26.218-11.762,26.218-26.218V271.43c0-6.196,5.041-11.236,11.237-11.236
		c6.196,0,11.236,5.04,11.236,11.236v47.499"/>
	<path fill="none" stroke="#00FF00" stroke-width="2" stroke-miterlimit="10" d="M299.637,318.928v1.192
		c0,14.457,11.762,26.218,26.218,26.218s26.218-11.762,26.218-26.218v-37.455c0-6.196,5.041-11.236,11.236-11.236
		c6.196,0,11.236,5.041,11.236,11.236v34.899"/>
	<path fill="none" stroke="#153D15" stroke-miterlimit="10" d="M374.546,317.565v2.556c0,14.457,11.762,26.218,26.219,26.218h64.034
		"/>
	<path fill="none" stroke="#153D15" stroke-miterlimit="10" d="M377.541,317.607v2.513c0,1.092,0.075,2.166,0.222,3.217
		c1.571,11.286,11.288,20.005,23,20.005h53.519"/>
	<path fill="none" stroke="#00FF00" stroke-width="2" stroke-miterlimit="10" d="M302.632,318.768v1.353
		c0,12.804,10.417,23.222,23.222,23.222c12.804,0,23.222-10.418,23.222-23.222v-37.455c0-7.848,6.385-14.232,14.233-14.232
		s14.232,6.385,14.232,14.232v34.941"/>
	<path fill="none" stroke="#DE0000" stroke-width="2" stroke-miterlimit="10" d="M227.896,322.96
		c1.405,11.47,11.206,20.383,23.051,20.383c12.804,0,23.222-10.418,23.222-23.222V271.43c0-7.848,6.385-14.233,14.233-14.233
		c7.848,0,14.232,6.385,14.232,14.233v47.338"/>
	<path fill="none" stroke="#0000FF" stroke-width="2" stroke-miterlimit="10" d="M153.254,324.64
		c2.109,10.649,11.522,18.703,22.781,18.703c12.804,0,23.222-10.418,23.222-23.222v-67.418c0-7.848,6.384-14.233,14.232-14.233
		c7.849,0,14.233,6.385,14.233,14.233v67.418c0,0.961,0.06,1.909,0.171,2.839"/>
	<path fill="none" stroke="#00FFFF" stroke-width="2" stroke-miterlimit="10" d="M78.024,322.491
		c1.191,11.694,11.097,20.852,23.102,20.852c12.805,0,23.222-10.418,23.222-23.222v-82.4c0-7.848,6.384-14.233,14.232-14.233
		c7.849,0,14.233,6.385,14.233,14.233v82.4c0,1.545,0.152,3.057,0.441,4.519"/>
	<path fill="none" stroke="#FFFF00" stroke-width="2" stroke-miterlimit="10" d="M2.995,315.472v4.649
		c0,12.804,10.417,23.222,23.222,23.222c12.805,0,23.222-10.418,23.222-23.222v-97.382c0-7.848,6.385-14.233,14.233-14.233
		s14.233,6.385,14.233,14.233v97.382c0,0.8,0.04,1.591,0.12,2.37"/>
	<path fill="none" stroke="#153D15" stroke-miterlimit="10" d="M380.539,317.552v2.569c0,11.153,9.073,20.226,20.226,20.226h47.97"
		/>
	<path fill="none" stroke="#00FF00" stroke-width="2" stroke-miterlimit="10" d="M305.922,323.558
		c1.637,9.521,9.952,16.789,19.933,16.789c11.152,0,20.226-9.072,20.226-20.226v-37.455c0-9.5,7.729-17.229,17.229-17.229
		c9.5,0,17.229,7.729,17.229,17.229v34.886"/>
	<path fill="none" stroke="#DE0000" stroke-width="2" stroke-miterlimit="10" d="M230.721,315.9v4.221
		c0,11.153,9.073,20.226,20.226,20.226c11.152,0,20.225-9.072,20.225-20.226V271.43c0-9.5,7.729-17.229,17.229-17.229
		c9.5,0,17.229,7.729,17.229,17.229v48.691c0,1.17,0.1,2.321,0.292,3.437"/>
	<path fill="none" stroke="#0000FF" stroke-width="2" stroke-miterlimit="10" d="M155.812,307.485v12.636
		c0,11.153,9.073,20.226,20.225,20.226c11.153,0,20.226-9.072,20.226-20.226v-67.418c0-9.5,7.729-17.229,17.229-17.229
		c9.5,0,17.229,7.729,17.229,17.229V315.9"/>
	<path fill="none" stroke="#00FFFF" stroke-width="2" stroke-miterlimit="10" d="M80.902,309.344v10.777
		c0,11.153,9.073,20.226,20.226,20.226c11.153,0,20.226-9.072,20.226-20.226v-82.4c0-9.5,7.729-17.229,17.229-17.229
		s17.229,7.729,17.229,17.229v69.764"/>
	<path fill="none" stroke="#FFFF00" stroke-width="2" stroke-miterlimit="10" d="M8.315,329.524
		c3.39,6.429,10.144,10.822,17.903,10.822c11.153,0,20.226-9.072,20.226-20.226v-97.382c0-9.5,7.729-17.229,17.229-17.229
		s17.229,7.729,17.229,17.229v86.605"/>
	<path fill="none" stroke="#153D15" stroke-miterlimit="10" d="M383.535,317.499v2.622c0,1.188,0.121,2.348,0.351,3.468
		c1.609,7.844,8.566,13.761,16.879,13.761h44.23"/>
	<path fill="none" stroke="#00FF00" stroke-width="2" stroke-miterlimit="10" d="M308.626,316.356v3.764
		c0,9.5,7.729,17.229,17.229,17.229c9.5,0,17.229-7.729,17.229-17.229v-37.455c0-11.153,9.074-20.226,20.225-20.226
		c11.152,0,20.226,9.073,20.226,20.226v34.833"/>
	<path fill="none" stroke="#DE0000" stroke-width="2" stroke-miterlimit="10" d="M233.866,322.392
		c1.115,8.43,8.35,14.958,17.08,14.958c9.5,0,17.229-7.729,17.229-17.229V271.43c0-11.153,9.072-20.226,20.226-20.226
		c11.153,0,20.225,9.073,20.225,20.226v44.927"/>
	<path fill="none" stroke="#0000FF" stroke-width="2" stroke-miterlimit="10" d="M158.843,321.229
		c0.573,8.986,8.066,16.122,17.194,16.122c9.5,0,17.229-7.729,17.229-17.229v-67.418c0-11.153,9.073-20.226,20.225-20.226
		c11.153,0,20.226,9.072,20.226,20.226v67.418c0,0.77,0.051,1.528,0.149,2.271"/>
	<path fill="none" stroke="#00FFFF" stroke-width="2" stroke-miterlimit="10" d="M85.412,327.181
		c2.701,5.989,8.729,10.169,15.715,10.169c9.5,0,17.229-7.729,17.229-17.229v-82.4c0-11.153,9.073-20.226,20.226-20.226
		c11.153,0,20.226,9.072,20.226,20.226v82.4c0,0.373,0.012,0.742,0.035,1.108"/>
	<path fill="none" stroke="#FFFF00" stroke-width="2" stroke-miterlimit="10" d="M8.989,317.174v2.946
		c0,9.5,7.729,17.229,17.229,17.229s17.229-7.729,17.229-17.229v-97.382c0-11.153,9.073-20.226,20.226-20.226
		c11.153,0,20.226,9.072,20.226,20.226v97.382c0,2.514,0.542,4.904,1.514,7.06"/>
	<path fill="none" stroke="#DEDEDE" stroke-width="2" stroke-miterlimit="10" d="M441.882,334.354"/>
	<path fill="none" stroke="#153D15" stroke-miterlimit="10" d="M386.532,317.552v2.569c0,7.848,6.385,14.233,14.232,14.233h41.107"
		/>
	<path fill="none" stroke="#00FF00" stroke-width="2" stroke-miterlimit="10" d="M311.896,322.904
		c1.298,6.52,7.064,11.449,13.96,11.449c7.848,0,14.232-6.385,14.232-14.233v-37.455c0-12.804,10.418-23.222,23.222-23.222
		c12.805,0,23.223,10.418,23.223,23.222v34.886"/>
	<path fill="none" stroke="#DE0000" stroke-width="2" stroke-miterlimit="10" d="M236.713,317.859v2.262
		c0,7.848,6.384,14.233,14.233,14.233c7.848,0,14.232-6.385,14.232-14.233V271.43c0-12.804,10.418-23.222,23.222-23.222
		c12.804,0,23.222,10.417,23.222,23.222v48.691c0,0.953,0.094,1.883,0.273,2.784"/>
	<path fill="none" stroke="#0000FF" stroke-width="2" stroke-miterlimit="10" d="M161.804,309.998v10.123
		c0,7.848,6.384,14.233,14.232,14.233c7.849,0,14.233-6.385,14.233-14.233v-67.418c0-12.804,10.418-23.222,23.222-23.222
		c12.804,0,23.222,10.418,23.222,23.222v65.156"/>
	<path fill="none" stroke="#00FFFF" stroke-width="2" stroke-miterlimit="10" d="M86.895,311.894v8.227
		c0,7.848,6.385,14.233,14.233,14.233s14.233-6.385,14.233-14.233v-82.4c0-12.804,10.417-23.222,23.222-23.222
		s23.222,10.418,23.222,23.222v72.277"/>
	<path fill="none" stroke="#FFFF00" stroke-width="2" stroke-miterlimit="10" d="M12.823,324.933
		c1.977,5.487,7.234,9.421,13.395,9.421c7.848,0,14.233-6.385,14.233-14.233v-97.382c0-12.804,10.417-23.222,23.222-23.222
		s23.222,10.418,23.222,23.222v89.155"/>
	<path fill="none" stroke="#153D15" stroke-miterlimit="10" d="M389.528,317.54v2.581c0,6.196,5.04,11.236,11.236,11.236h38.767"/>
	<path fill="none" stroke="#00FF00" stroke-width="2" stroke-miterlimit="10" d="M314.619,316.906v3.214
		c0,6.196,5.04,11.236,11.236,11.236c6.196,0,11.236-5.04,11.236-11.236v-37.455c0-14.457,11.762-26.218,26.218-26.218
		c14.457,0,26.219,11.762,26.219,26.218v34.874"/>
	<path fill="none" stroke="#DE0000" stroke-width="2" stroke-miterlimit="10" d="M239.99,322.621
		c1.14,4.997,5.619,8.736,10.957,8.736c6.195,0,11.236-5.04,11.236-11.236V271.43c0-14.457,11.762-26.218,26.218-26.218
		s26.218,11.762,26.218,26.218v45.477"/>
	<path fill="none" stroke="#0000FF" stroke-width="2" stroke-miterlimit="10" d="M165.736,324.609
		c1.735,3.968,5.699,6.748,10.301,6.748c6.196,0,11.237-5.04,11.237-11.236v-67.418c0-14.457,11.761-26.218,26.218-26.218
		c14.457,0,26.218,11.761,26.218,26.218v67.418c0,0.859,0.097,1.696,0.28,2.5"/>
	<path fill="none" stroke="#00FFFF" stroke-width="2" stroke-miterlimit="10" d="M89.891,318.374v1.747
		c0,6.196,5.041,11.236,11.236,11.236s11.236-5.04,11.236-11.236v-82.4c0-14.457,11.762-26.218,26.218-26.218
		s26.218,11.762,26.218,26.218v82.4c0,1.595,0.334,3.112,0.936,4.488"/>
	<path fill="none" stroke="#FFFF00" stroke-width="2" stroke-miterlimit="10" d="M14.982,311.855v8.266
		c0,6.196,5.041,11.236,11.236,11.236s11.236-5.04,11.236-11.236v-97.382c0-14.457,11.762-26.218,26.218-26.218
		s26.218,11.762,26.218,26.218v95.635"/>
	<polyline fill="none" stroke="#FF6D00" stroke-width="2" stroke-miterlimit="10" points="0,331.43 0,357.109 0,598.034 	"/>
	<polyline fill="none" stroke="#FF6D00" stroke-width="2" stroke-miterlimit="10" points="2.995,337.019 2.995,351.501 
		2.995,598.034 	"/>
	<polyline fill="none" stroke="#49FF8D" stroke-width="2" stroke-miterlimit="10" points="74.909,330.264 74.909,355.239 
		74.909,598.034 	"/>
	<polyline fill="none" stroke="#49FF8D" stroke-width="2" stroke-miterlimit="10" points="77.904,336.948 77.904,352.746 
		77.904,598.034 	"/>
	<polyline fill="none" stroke="#FF827C" stroke-width="2" stroke-miterlimit="10" points="149.818,330.28 149.818,374.377 
		149.818,598.034 	"/>
	<polyline fill="none" stroke="#FF827C" stroke-width="2" stroke-miterlimit="10" points="152.813,336.817 152.813,388.456 
		152.813,598.034 	"/>
	<polyline fill="none" stroke="#D1C49A" stroke-width="2" stroke-miterlimit="10" points="224.728,329.982 224.728,390.021 
		224.728,598.034 	"/>
	<polyline fill="none" stroke="#D1C49A" stroke-width="2" stroke-miterlimit="10" points="227.723,336.298 227.723,381.418 
		227.723,598.034 	"/>
	<polyline fill="none" stroke="#00011F" stroke-width="2" stroke-miterlimit="10" points="299.637,330.118 299.637,411.531 
		299.637,598.034 	"/>
	<polyline fill="none" stroke="#00011F" stroke-width="2" stroke-miterlimit="10" points="302.632,337.215 302.632,395.497 
		302.632,598.034 	"/>
	<polyline fill="none" stroke="#00DF22" stroke-width="2" stroke-miterlimit="10" points="374.533,329.344 374.533,427.175 
		374.533,598.034 	"/>
	<polyline fill="none" stroke="#00DF22" stroke-width="2" stroke-miterlimit="10" points="377.528,336.509 377.528,416.224 
		377.528,598.034 	"/>
	<g>
		<path fill="none" stroke="#FF0055" stroke-width="2" stroke-miterlimit="10" d="M80.022,69.962
			c-2.216-3.127-5.865-5.168-9.99-5.167c-6.759,0-12.237,5.479-12.237,12.237S63.273,89.27,70.032,89.27
			c6.759,0,12.237-5.48,12.237-12.237C82.269,74.398,81.437,71.959,80.022,69.962"/>
		<path fill="none" stroke="#FF0055" stroke-width="2" stroke-miterlimit="10" d="M61.087,63.945
			c-4.169,2.855-6.904,7.651-6.904,13.087c0,8.753,7.097,15.849,15.849,15.849c8.752,0,15.849-7.096,15.849-15.849
			c0-8.753-7.095-15.85-15.849-15.85C66.713,61.183,63.632,62.202,61.087,63.945"/>
		<path fill="none" stroke="#FF0055" stroke-width="2" stroke-miterlimit="10" d="M85.982,65.879
			c-3.52-5.023-9.351-8.31-15.951-8.31c-10.748,0-19.46,8.715-19.46,19.462s8.713,19.461,19.46,19.461
			c10.748,0,19.46-8.713,19.46-19.461C89.493,72.883,88.194,69.037,85.982,65.879"/>
		<path fill="none" stroke="#FF0055" stroke-width="2" stroke-miterlimit="10" d="M48.769,68.057
			c-1.167,2.759-1.811,5.792-1.811,8.975c0,12.744,10.331,23.075,23.073,23.075c12.743,0,23.074-10.331,23.074-23.074
			c0-12.744-10.331-23.074-23.074-23.074C60.473,53.958,52.27,59.772,48.769,68.057"/>
		<path fill="none" stroke="#FF0055" stroke-width="2" stroke-miterlimit="10" d="M93.696,64.686
			c-4.456-8.522-13.38-14.34-23.664-14.34c-14.738,0-26.685,11.947-26.685,26.686s11.947,26.686,26.685,26.686
			c14.739,0,26.686-11.947,26.686-26.686C96.717,72.577,95.626,68.378,93.696,64.686"/>
		<path fill="none" stroke="#FF0055" stroke-width="2" stroke-miterlimit="10" d="M42.746,63.843
			c-1.931,3.987-3.013,8.461-3.013,13.188c0,16.733,13.565,30.298,30.298,30.298c16.733,0,30.298-13.564,30.298-30.298
			S86.765,46.733,70.031,46.733C58.025,46.733,47.65,53.717,42.746,63.843"/>
		<path fill="none" stroke="#FF0055" stroke-width="2" stroke-miterlimit="10" d="M95.851,55.048
			c-6.221-7.299-15.479-11.926-25.819-11.927c-18.728,0-33.91,15.182-33.91,33.91c0,18.728,15.182,33.911,33.91,33.911
			c18.729,0,33.911-15.182,33.911-33.91C103.942,68.644,100.896,60.967,95.851,55.048"/>
		<path fill="none" stroke="#FF0055" stroke-width="2" stroke-miterlimit="10" d="M34.805,64.077
			c-1.485,4.038-2.296,8.401-2.297,12.954c0,20.723,16.801,37.522,37.523,37.522s37.523-16.799,37.523-37.522
			S90.753,39.509,70.031,39.509C53.862,39.509,40.08,49.737,34.805,64.077"/>
		<path fill="none" stroke="#FF0055" stroke-width="2" stroke-miterlimit="10" d="M106.18,57.383
			c-6.973-12.799-20.546-21.486-36.148-21.486c-22.717,0-41.134,18.417-41.134,41.134s18.417,41.134,41.134,41.134
			c22.718,0,41.134-18.416,41.134-41.134C111.166,69.916,109.359,63.221,106.18,57.383"/>
		<path fill="none" stroke="#FF0055" stroke-width="2" stroke-miterlimit="10" d="M50.069,36.975
			C35.376,44.31,25.285,59.492,25.286,77.031c0,24.712,20.034,44.746,44.746,44.746c24.713,0,44.747-20.034,44.747-44.746
			S94.745,32.285,70.032,32.285C62.858,32.285,56.079,33.973,50.069,36.975"/>
		<path fill="none" stroke="#FF0055" stroke-width="2" stroke-miterlimit="10" d="M97.069,36.931
			c-7.718-5.213-17.022-8.259-27.038-8.259c-26.708,0-48.359,21.651-48.359,48.359s21.651,48.359,48.359,48.359
			s48.358-21.651,48.358-48.359C118.39,60.339,109.932,45.622,97.069,36.931"/>
		<path fill="none" stroke="#FF0055" stroke-width="2" stroke-miterlimit="10" d="M26.62,48.447c-5.411,8.2-8.56,18.025-8.56,28.584
			c0,28.703,23.269,51.971,51.971,51.971c28.703,0,51.972-23.268,51.972-51.971S98.734,25.06,70.032,25.06
			C51.889,25.06,35.917,34.357,26.62,48.447"/>
		<path fill="none" stroke="#FF0055" stroke-width="2" stroke-miterlimit="10" d="M111.36,39.863
			c-10.174-11.306-24.921-18.416-41.329-18.416c-30.697,0-55.583,24.886-55.583,55.583c0,30.697,24.885,55.583,55.583,55.583
			s55.583-24.887,55.583-55.583C125.615,62.742,120.222,49.711,111.36,39.863"/>
		<path fill="none" stroke="#FF0055" stroke-width="2" stroke-miterlimit="10" d="M24.353,39.377
			C15.908,49.61,10.836,62.729,10.837,77.031c0,32.692,26.503,59.194,59.195,59.194c32.692,0,59.195-26.502,59.195-59.194
			s-26.502-59.196-59.195-59.196C51.642,17.835,35.211,26.222,24.353,39.377"/>
		<path fill="none" stroke="#FF0055" stroke-width="2" stroke-miterlimit="10" d="M109.983,28.566
			c-10.857-8.96-24.776-14.342-39.951-14.342c-34.688,0-62.808,28.12-62.808,62.807s28.121,62.808,62.808,62.808
			c34.687,0,62.808-28.12,62.808-62.808C132.84,57.52,123.942,40.086,109.983,28.566"/>
		<path fill="none" stroke="#FF0055" stroke-width="2" stroke-miterlimit="10" d="M28.961,24.828
			C13.524,36.991,3.612,55.854,3.612,77.031c0,36.682,29.738,66.419,66.42,66.419c36.683,0,66.42-29.737,66.42-66.419
			c0-36.683-29.738-66.419-66.42-66.419C54.527,10.612,40.264,15.925,28.961,24.828"/>
		<path fill="none" stroke="#FF0055" stroke-width="2" stroke-miterlimit="10" d="M102.374,14.899C92.699,9.854,81.698,7,70.032,7
			C31.354,7,0,38.354,0,77.031s31.354,70.031,70.032,70.031s70.032-31.354,70.032-70.031
			C140.064,50.021,124.772,26.582,102.374,14.899"/>
	</g>
	<g>
		<path fill="none" stroke="#FF00FF" stroke-width="2" stroke-miterlimit="10" d="M0,76.666v241.891"/>
		<path fill="none" stroke="#FF00FF" stroke-width="2" stroke-miterlimit="10" d="M2.995,97.267v218.205"/>
		<path fill="none" stroke="#FF00FF" stroke-width="2" stroke-miterlimit="10" d="M5.993,105.428v214.693
			c0,3.392,0.84,6.593,2.322,9.403"/>
		<path fill="none" stroke="#FF00FF" stroke-width="2" stroke-miterlimit="10" d="M8.989,111.077v206.097"/>
		<path fill="none" stroke="#FF00FF" stroke-width="2" stroke-miterlimit="10" d="M11.985,115.849v204.272
			c0,1.688,0.295,3.309,0.838,4.812"/>
		<path fill="none" stroke="#FF00FF" stroke-width="2" stroke-miterlimit="10" d="M14.982,120.493v191.362"/>
		<path fill="none" stroke="#FF00FF" stroke-width="2" stroke-miterlimit="10" d="M0,76.666"/>
		<path fill="none" stroke="#FF00FF" stroke-width="2" stroke-miterlimit="10" d="M0,76.666"/>
	</g>
	<g>
		<path fill="none" stroke="#153D15" stroke-miterlimit="10" d="M507.541,308.981c0,20.584-16.686,37.269-37.269,37.269
			c-20.585,0-37.27-16.684-37.27-37.269c0-17.951,12.688-32.937,29.589-36.478c2.479-0.516,5.048-0.792,7.681-0.792
			C490.855,271.712,507.541,288.397,507.541,308.981z"/>
		<path fill="none" stroke="#153D15" stroke-miterlimit="10" d="M504.21,308.981c0,18.743-15.194,33.939-33.938,33.939
			c-18.744,0-33.939-15.193-33.939-33.939c0-16.639,11.971-30.479,27.772-33.378c1.999-0.367,4.06-0.559,6.164-0.559
			C489.016,275.043,504.21,290.237,504.21,308.981z"/>
		<path fill="none" stroke="#153D15" stroke-miterlimit="10" d="M500.878,308.981c0,16.903-13.701,30.606-30.605,30.606
			s-30.607-13.703-30.607-30.606c0-15.831,12.02-28.855,27.432-30.444c1.046-0.109,2.105-0.165,3.176-0.165
			C487.177,278.375,500.878,292.077,500.878,308.981z"/>
		<path fill="none" stroke="#153D15" stroke-miterlimit="10" d="M497.548,308.981c0,15.064-12.212,27.276-27.275,27.276
			c-15.064,0-27.276-12.212-27.276-27.276c0-14.067,10.649-25.647,24.326-27.119c0.969-0.104,1.953-0.157,2.95-0.157
			C485.336,281.705,497.548,293.917,497.548,308.981z"/>
		<path fill="none" stroke="#153D15" stroke-miterlimit="10" d="M494.217,308.981c0,13.225-10.72,23.945-23.944,23.945
			s-23.945-10.72-23.945-23.945c0-12.146,9.044-22.178,20.765-23.735c1.041-0.141,2.103-0.209,3.181-0.209
			C483.497,285.036,494.217,295.756,494.217,308.981z"/>
		<path fill="none" stroke="#153D15" stroke-miterlimit="10" d="M490.886,308.981c0,11.385-9.226,20.616-20.613,20.616
			s-20.616-9.229-20.616-20.616c0-10.299,7.554-18.834,17.425-20.367c1.04-0.163,2.106-0.246,3.191-0.246
			C481.657,288.366,490.886,297.597,490.886,308.981z"/>
		<path fill="none" stroke="#153D15" stroke-miterlimit="10" d="M487.556,308.981c0,9.545-7.738,17.283-17.283,17.283
			s-17.283-7.738-17.283-17.283c0-8.615,6.304-15.758,14.552-17.068c0.89-0.14,1.802-0.215,2.731-0.215
			C479.817,291.698,487.556,299.436,487.556,308.981z"/>
		<path fill="none" stroke="#153D15" stroke-miterlimit="10" d="M484.224,308.981c0,7.705-6.246,13.952-13.951,13.952
			c-7.706,0-13.952-6.247-13.952-13.952c0-6.786,4.843-12.438,11.261-13.693c0.871-0.17,1.768-0.259,2.691-0.259
			C477.978,295.029,484.224,301.275,484.224,308.981z"/>
		<path fill="none" stroke="#153D15" stroke-miterlimit="10" d="M480.894,308.981c0,5.866-4.755,10.622-10.621,10.622
			s-10.621-4.756-10.621-10.622c0-4.928,3.354-9.071,7.907-10.271c0.865-0.229,1.775-0.35,2.714-0.35
			C476.139,298.36,480.894,303.115,480.894,308.981z"/>
		<path fill="none" stroke="#153D15" stroke-miterlimit="10" d="M477.562,308.981c0,4.026-3.264,7.289-7.29,7.289
			s-7.29-3.263-7.29-7.289c0-3.126,1.967-5.79,4.73-6.828c0.796-0.296,1.659-0.46,2.56-0.46
			C474.299,301.69,477.562,304.955,477.562,308.981z"/>
		<path fill="none" stroke="#153D15" stroke-miterlimit="10" d="M474.231,308.981c0,2.187-1.772,3.959-3.959,3.959
			s-3.959-1.772-3.959-3.959c0-1.367,0.691-2.572,1.745-3.283c0.632-0.426,1.394-0.676,2.214-0.676
			C472.459,305.022,474.231,306.794,474.231,308.981z"/>
	</g>
</g>
</svg>
